<svg width="180" height="180" viewBox="0 0 180 180" fill="none" xmlns="http://www.w3.org/2000/svg">
<circle cx="90" cy="90" r="90" fill="#00A3FF"/>
<path d="M107 41L101.812 108.006H78.4041L76 41H107ZM102.824 127.624C102.824 129.493 102.466 131.234 101.749 132.847C101.032 134.461 100.062 135.862 98.8388 137.051C97.6578 138.282 96.266 139.238 94.6632 139.917C93.0605 140.639 91.3524 141 89.5388 141C87.683 141 85.9537 140.639 84.351 139.917C82.7483 139.238 81.3354 138.282 80.1122 137.051C78.9313 135.862 77.9823 134.461 77.2653 132.847C76.5905 131.234 76.253 129.493 76.253 127.624C76.253 125.798 76.5905 124.057 77.2653 122.401C77.9823 120.745 78.9313 119.323 80.1122 118.134C81.3354 116.902 82.7483 115.926 84.351 115.204C85.9537 114.482 87.683 114.121 89.5388 114.121C91.3524 114.121 93.0605 114.482 94.6632 115.204C96.266 115.926 97.6578 116.902 98.8388 118.134C100.062 119.323 101.032 120.745 101.749 122.401C102.466 124.057 102.824 125.798 102.824 127.624Z" fill="white"/>
</svg>
