<svg width="289" height="379" viewBox="0 0 289 379" fill="none" xmlns="http://www.w3.org/2000/svg">
<g clip-path="url(#clip0)">
<path d="M100.065 362.375C95.4328 362.374 91.2233 360.472 87.5529 356.723C67.4738 336.212 68.714 265.681 68.7765 262.689L68.8122 260.975L107.847 268.41L130.893 297.937L130.925 298.373C131.042 299.917 133.611 336.388 118.618 353.628C116.462 356.198 113.802 358.298 110.8 359.797C107.799 361.296 104.522 362.161 101.173 362.34C100.799 362.363 100.436 362.375 100.071 362.375L100.065 362.375Z" fill="black"/>
<path d="M70.225 262.719L107.041 269.731L129.481 298.483C129.481 298.483 134.039 358.79 101.08 360.894C100.736 360.916 100.401 360.927 100.065 360.927C68.1705 360.927 70.225 262.719 70.225 262.719ZM67.3993 259.23L67.3276 262.658C67.2645 265.676 66.0172 336.807 86.5189 357.742C90.4715 361.778 95.0291 363.825 100.065 363.825C100.466 363.825 100.859 363.812 101.265 363.786C104.806 363.598 108.271 362.683 111.445 361.1C114.618 359.516 117.432 357.296 119.711 354.579C135.097 336.887 132.489 299.833 132.37 298.264L132.304 297.39L131.765 296.7L109.325 267.948L108.654 267.089L107.583 266.885L70.7673 259.872L67.3993 259.231L67.3993 259.23Z" fill="black"/>
<path d="M154.835 362.549C153.404 362.606 151.976 362.375 150.636 361.869C141.257 357.743 144.272 329.596 146.5 323L152.562 307.051L180.21 276.888L206.745 268.17L206.999 269.867C212.827 308.776 201.819 331.14 191.559 343.05C178.272 358.473 161.731 362.549 154.838 362.549L154.835 362.549Z" fill="black"/>
<path d="M205.566 270.082C216.379 342.275 170.078 361.1 154.835 361.1C153.605 361.152 152.377 360.963 151.219 360.543C142.454 356.686 150.375 320.624 150.375 320.624L154.024 307.599L181.023 278.146L205.566 270.082ZM207.924 266.257L204.662 267.329L180.118 275.393L179.398 275.63L178.886 276.188L151.888 305.641L151.098 306.503L151.127 307.671L147.465 320.188C145.543 326.053 143.943 332.019 142.67 338.059C139.781 352.239 144.855 360.909 150.052 363.196C151.576 363.784 153.203 364.057 154.835 363.998C161.957 363.998 179.028 359.816 192.66 343.991C203.116 331.851 214.341 309.1 208.432 269.653L207.924 266.257Z" fill="black"/>
<path d="M139.654 330.789C94.61 330.789 68.7755 306.875 68.7755 265.18C68.7626 258.891 69.619 252.63 71.3205 246.575L71.4997 245.943L72.0939 245.66C84.1647 239.941 104.077 233.122 130.392 233.122C154.364 233.122 179.527 238.73 205.178 249.789L205.886 250.095L206.028 250.852C206.344 252.523 206.611 254.228 206.822 255.92C207.188 258.993 207.372 262.085 207.374 265.18C207.374 287.434 200.714 304.431 187.578 315.699C175.95 325.712 159.826 330.789 139.654 330.789Z" fill="white"/>
<path d="M130.393 234.571C151.252 234.571 176.137 238.846 204.605 251.12C204.915 252.76 205.175 254.42 205.385 256.1C205.743 259.113 205.924 262.145 205.925 265.18C205.925 288.04 198.735 304.22 186.635 314.6C174.905 324.7 158.545 329.34 139.655 329.34C101.315 329.34 70.2245 311.28 70.2245 265.18C70.2102 259.024 71.0481 252.896 72.7145 246.97C85.352 240.982 104.855 234.572 130.393 234.571ZM130.396 231.673V234.571L130.395 231.673C103.807 231.674 83.6778 238.568 71.4735 244.351L70.2846 244.915L69.9262 246.18C68.1884 252.364 67.3136 258.757 67.3264 265.18C67.3264 287.811 74.5267 305.176 88.7272 316.791C101.082 326.896 115.038 337 136 337C156.528 337 176.625 327.043 188.525 316.796C201.992 305.244 208.823 287.876 208.823 265.18C208.821 262.031 208.634 258.885 208.262 255.759C208.044 254.009 207.772 252.273 207.452 250.582L207.166 249.068L205.752 248.459C179.918 237.321 154.565 231.673 130.396 231.673Z" fill="black"/>
<path opacity="0.53" d="M205.925 265.18C205.925 288.04 198.735 304.22 186.635 314.6C186.075 305.55 181.275 296.9 174.365 290.93C166.605 284.21 156.455 280.66 146.255 279.55C156.445 278.6 172.915 276.913 182.855 279.333C171.725 267.253 149.655 262.18 133.255 261.26C149.185 259.03 165.365 260.91 181.335 262.79C171.139 255.756 159.286 251.503 146.945 250.45C154.814 249.74 162.722 249.57 170.615 249.94C177.704 250.271 184.767 251.029 191.765 252.21C196.295 252.98 201.515 253.41 205.385 256.1C205.743 259.113 205.924 262.145 205.925 265.18Z" fill="#D6D6D6"/>
<path d="M204.031 252.455C178.744 241.55 153.968 236.021 130.391 236.021C104.62 236.021 85.1373 242.687 73.3312 248.278L70.4523 249.642L71.3165 246.575C79.5963 217.197 107.059 197.459 139.652 197.459C173.217 197.459 199.892 218.915 206.028 250.851L206.545 253.538L204.031 252.455Z" fill="black"/>
<path d="M139.652 198.909C173.133 198.909 198.662 220.199 204.606 251.124C176.141 238.849 151.249 234.572 130.391 234.571C104.849 234.571 85.3513 240.982 72.7111 246.969C80.7894 218.305 107.696 198.909 139.652 198.909H139.652ZM139.652 196.011C106.402 196.011 78.3793 216.173 69.9217 246.183L68.1932 252.315L73.9516 249.588C85.6232 244.06 104.888 237.469 130.385 237.469C153.771 237.47 178.355 242.96 203.458 253.785L208.485 255.953L207.452 250.577C204.669 235.101 196.453 221.126 184.283 211.17C172.075 201.253 156.642 196.011 139.652 196.011V196.011Z" fill="black"/>
<path d="M74.4968 244.846C73.0549 243.502 39.1926 211.748 40.2785 195.32C40.3291 193.924 40.7045 192.559 41.3749 191.333C42.0452 190.107 42.9921 189.054 44.1403 188.257C46.827 186.472 50.0072 185.577 53.2306 185.699C72.5666 185.699 103.803 209.71 105.123 210.733L105.46 210.992L105.602 211.394C109.722 223.009 79.7062 242.786 76.2702 245.003L75.322 245.614L74.4968 244.846Z" fill="black"/>
<path d="M53.2306 187.149C72.2934 187.149 104.236 211.878 104.236 211.878C108.093 222.748 75.4845 243.785 75.4845 243.785C75.4845 243.785 29.202 200.658 44.9802 189.438C47.4224 187.829 50.3085 187.028 53.2306 187.149ZM53.2306 184.25C49.7059 184.126 46.2315 185.114 43.3007 187.077C41.9814 188.002 40.8923 189.217 40.1176 190.63C39.3428 192.043 38.9031 193.615 38.8325 195.225C38.3445 202.608 44.1205 213.45 55.9999 227.449C61.5091 233.904 67.3535 240.064 73.5088 245.905L75.1596 247.444L77.0556 246.22C82.6818 242.518 88.0735 238.471 93.1997 234.102C104.532 224.324 109.035 216.738 106.967 210.909L106.683 210.107L106.01 209.587C104.674 208.552 73.0561 184.25 53.2306 184.25Z" fill="black"/>
<path d="M41.5547 188.625C41.5547 188.625 33.6381 195.708 45.8047 213.542C60.3047 224.708 78.9795 201.375 73.2295 194.125C67.4795 186.875 67.1797 185.625 56.4297 184.5C45.6797 183.375 41.5547 188.625 41.5547 188.625Z" fill="#0E0E0E"/>
<path d="M80.8446 225.51C76.4713 230.646 72.5481 236.806 71.5018 243.584C71.3803 244.371 72.5846 244.71 72.7071 243.916C73.7211 237.348 77.487 231.375 81.7285 226.394C82.2472 225.785 81.3671 224.897 80.8446 225.51Z" fill="black"/>
<path d="M77.7972 225.943C78.6332 225.028 79.4692 224.114 80.3053 223.2C80.4225 223.083 80.4883 222.924 80.4883 222.758C80.4883 222.592 80.4225 222.433 80.3053 222.316C80.1881 222.199 80.0291 222.133 79.8633 222.133C79.6976 222.133 79.5386 222.199 79.4214 222.316C78.5853 223.23 77.7493 224.144 76.9133 225.059C76.7961 225.176 76.7302 225.335 76.7302 225.501C76.7302 225.666 76.7961 225.825 76.9133 225.943C77.0305 226.06 77.1895 226.126 77.3552 226.126C77.521 226.126 77.68 226.06 77.7972 225.943Z" fill="black"/>
<path d="M44.6945 198.4C44.3187 198.67 43.8512 198.781 43.3941 198.708C42.937 198.635 42.5274 198.384 42.2545 198.01C42.1849 197.909 42.1246 197.802 42.0745 197.69C41.896 197.295 41.8705 196.848 42.0031 196.436C42.1357 196.023 42.4169 195.675 42.792 195.458C43.1671 195.241 43.6095 195.171 44.0331 195.262C44.4568 195.353 44.8315 195.598 45.0845 195.95C45.2236 196.135 45.324 196.346 45.3797 196.571C45.4355 196.796 45.4455 197.029 45.4091 197.258C45.3727 197.486 45.2907 197.705 45.1679 197.901C45.0451 198.098 44.8841 198.267 44.6945 198.4Z" fill="#FFA8A9"/>
<path d="M44.1297 195.844C44.2488 196.136 43.9027 196.142 43.4253 196.337C42.9479 196.531 42.5198 196.841 42.4007 196.548C42.2816 196.256 42.5721 195.861 43.0496 195.667C43.5271 195.472 44.0106 195.552 44.1297 195.844Z" fill="white"/>
<path d="M44.6945 198.4C44.3186 198.67 43.8512 198.781 43.3941 198.708C42.937 198.635 42.5273 198.384 42.2545 198.01C42.1849 197.909 42.1246 197.802 42.0745 197.69C42.5345 197.65 43.3845 197.88 43.8045 197.79C44.1697 197.703 44.5001 197.508 44.7518 197.229C45.0036 196.951 45.1649 196.602 45.2145 196.23C45.2645 196.31 45.3045 196.39 45.3545 196.48C45.4548 196.829 45.4453 197.201 45.3272 197.544C45.2091 197.888 44.9882 198.186 44.6945 198.4Z" fill="#C97374"/>
<path d="M48.0245 192.08C47.7447 192.283 47.411 192.398 47.0657 192.411C46.7203 192.424 46.3789 192.334 46.0845 192.153C45.7901 191.972 45.556 191.708 45.4118 191.394C45.2675 191.08 45.2197 190.73 45.2742 190.389C45.3288 190.048 45.4833 189.731 45.7182 189.477C45.9531 189.224 46.2579 189.046 46.5941 188.965C46.9302 188.885 47.2826 188.907 47.6066 189.027C47.9306 189.147 48.2118 189.36 48.4145 189.64C48.4806 189.727 48.5375 189.821 48.5845 189.92C48.7591 190.289 48.7986 190.707 48.6963 191.102C48.5939 191.496 48.3562 191.843 48.0245 192.08Z" fill="#FFA8A9"/>
<path d="M47.6615 189.617C47.735 189.924 47.392 189.878 46.8907 189.998C46.3894 190.118 45.9193 190.359 45.8458 190.052C45.7723 189.745 46.1193 189.399 46.6207 189.279C47.1221 189.159 47.5881 189.31 47.6615 189.617Z" fill="white"/>
<path d="M48.0245 192.08C47.8079 192.237 47.5581 192.343 47.2943 192.389C47.0305 192.434 46.7598 192.419 46.5029 192.344C46.246 192.268 46.0098 192.135 45.8124 191.954C45.6151 191.773 45.4618 191.549 45.3645 191.3C45.8363 191.384 46.3156 191.417 46.7945 191.4C47.1837 191.301 47.5461 191.117 47.8556 190.861C48.1651 190.605 48.4141 190.284 48.5845 189.92C48.759 190.289 48.7986 190.707 48.6962 191.102C48.5939 191.496 48.3561 191.843 48.0245 192.08Z" fill="#C97374"/>
<path d="M55.5945 187.86C55.594 188.09 55.548 188.319 55.4592 188.531C55.3705 188.744 55.2407 188.937 55.0772 189.1C54.9137 189.262 54.7199 189.391 54.5066 189.479C54.2934 189.566 54.065 189.611 53.8345 189.61C53.391 189.612 52.9635 189.445 52.6399 189.142C52.3162 188.838 52.1211 188.423 52.0945 187.98C52.0862 187.941 52.0829 187.9 52.0845 187.86C52.085 187.45 52.229 187.054 52.4915 186.739C52.754 186.425 53.1184 186.212 53.5214 186.139C53.9243 186.065 54.3404 186.135 54.6972 186.336C55.054 186.537 55.3291 186.857 55.4745 187.24C55.5555 187.437 55.5963 187.647 55.5945 187.86Z" fill="#FFA8A9"/>
<path d="M54.5508 186.877C54.5813 187.191 54.2481 187.098 53.735 187.148C53.2219 187.198 52.7232 187.372 52.6926 187.058C52.662 186.744 53.0533 186.449 53.5664 186.399C54.0795 186.349 54.5203 186.563 54.5508 186.877Z" fill="white"/>
<path d="M55.5945 187.86C55.5939 188.09 55.548 188.319 55.4592 188.531C55.3705 188.744 55.2406 188.937 55.0772 189.1C54.9137 189.262 54.7198 189.391 54.5066 189.479C54.2934 189.566 54.065 189.611 53.8345 189.61C53.391 189.612 52.9635 189.445 52.6399 189.142C52.3162 188.838 52.121 188.423 52.0945 187.98C52.3045 188.06 52.5245 188.18 52.6445 188.21C53.053 188.334 53.486 188.355 53.9045 188.27C54.5413 188.143 55.104 187.773 55.4745 187.24C55.5554 187.437 55.5962 187.647 55.5945 187.86Z" fill="#C97374"/>
<path d="M63.7344 199.96C63.7344 202.074 62.8948 204.101 61.4001 205.596C59.9054 207.09 57.8782 207.93 55.7644 207.93C53.6507 207.93 51.6235 207.09 50.1288 205.596C48.6341 204.101 47.7944 202.074 47.7944 199.96C47.7928 199.679 47.8062 199.399 47.8344 199.12C48.04 197.16 48.9642 195.346 50.4286 194.027C51.893 192.709 53.7939 191.98 55.7644 191.98C57.8771 191.989 59.9004 192.833 61.3933 194.328C62.8863 195.823 63.7278 197.847 63.7344 199.96Z" fill="#FFA8A9"/>
<path d="M63.7344 199.96C63.7344 202.074 62.8948 204.101 61.4001 205.596C59.9054 207.09 57.8782 207.93 55.7644 207.93C53.6507 207.93 51.6235 207.09 50.1288 205.596C48.6341 204.101 47.7944 202.074 47.7944 199.96C47.7928 199.68 47.8062 199.399 47.8344 199.12C47.9744 199.23 48.1244 199.35 48.2744 199.49C49.5273 200.56 51.1077 201.17 52.7544 201.22C54.9766 201.442 57.2047 200.86 59.0344 199.58C59.8401 198.987 60.4839 198.201 60.9067 197.294C61.3295 196.387 61.5179 195.389 61.4544 194.39C62.9225 195.871 63.7425 197.875 63.7344 199.96Z" fill="#EB8687"/>
<path d="M58.0217 194.326C58.1218 195.357 57.0285 195.05 55.345 195.214C53.6615 195.378 52.0256 195.949 51.9254 194.918C51.8252 193.888 53.1088 192.92 54.7922 192.756C56.4756 192.592 57.9215 193.295 58.0217 194.326Z" fill="white"/>
<path d="M199.364 245.003C195.928 242.786 165.911 223.009 170.033 211.394L170.175 210.992L170.512 210.733C171.832 209.71 203.069 185.699 222.404 185.699C225.628 185.577 228.808 186.472 231.494 188.257C232.642 189.054 233.589 190.107 234.259 191.332C234.93 192.558 235.305 193.924 235.356 195.32C236.442 211.748 202.579 243.502 201.138 244.846L200.312 245.614L199.364 245.003Z" fill="black"/>
<path d="M222.404 187.149C225.326 187.028 228.212 187.829 230.654 189.438C246.432 200.658 200.15 243.785 200.15 243.785C200.15 243.785 167.541 222.748 171.398 211.878C171.398 211.878 203.341 187.15 222.404 187.149ZM222.405 184.25H222.403C202.578 184.252 170.961 208.552 169.624 209.587L168.952 210.107L168.667 210.909C166.599 216.738 171.102 224.324 182.434 234.102C187.561 238.471 192.952 242.518 198.578 246.22L200.474 247.444L202.125 245.905C208.281 240.064 214.125 233.904 219.634 227.449C231.514 213.45 237.29 202.608 236.802 195.225C236.731 193.615 236.291 192.043 235.517 190.63C234.742 189.217 233.653 188.002 232.333 187.077C229.403 185.115 225.929 184.126 222.405 184.25Z" fill="black"/>
<path d="M234.355 188.75C234.355 188.75 242.271 195.833 230.105 213.667C215.605 224.833 198.938 202.083 204.688 194.833C210.438 187.583 208.73 185.75 219.48 184.625C230.23 183.5 234.355 188.75 234.355 188.75Z" fill="#0E0E0E"/>
<path d="M232.207 197.983C232.583 198.254 233.05 198.364 233.507 198.291C233.964 198.218 234.374 197.967 234.647 197.593C234.716 197.492 234.777 197.385 234.827 197.273C235.005 196.878 235.031 196.431 234.898 196.019C234.766 195.606 234.485 195.258 234.109 195.041C233.734 194.824 233.292 194.754 232.868 194.845C232.445 194.936 232.07 195.182 231.817 195.533C231.678 195.718 231.577 195.929 231.522 196.154C231.466 196.379 231.456 196.612 231.492 196.841C231.529 197.07 231.611 197.289 231.733 197.485C231.856 197.681 232.017 197.851 232.207 197.983Z" fill="#FFA8A9"/>
<path d="M232.771 195.427C232.652 195.719 232.998 195.725 233.476 195.92C233.953 196.114 234.381 196.424 234.5 196.132C234.62 195.839 234.329 195.445 233.852 195.25C233.374 195.056 232.891 195.135 232.771 195.427Z" fill="white"/>
<path d="M232.207 197.983C232.582 198.254 233.05 198.364 233.507 198.291C233.964 198.218 234.374 197.967 234.647 197.593C234.716 197.492 234.777 197.385 234.827 197.273C234.367 197.233 233.517 197.463 233.097 197.373C232.731 197.286 232.401 197.091 232.149 196.812C231.898 196.534 231.736 196.185 231.687 195.813C231.637 195.893 231.597 195.973 231.547 196.063C231.446 196.412 231.456 196.784 231.574 197.127C231.692 197.471 231.913 197.77 232.207 197.983Z" fill="#C97374"/>
<path d="M228.877 191.663C229.157 191.866 229.49 191.981 229.836 191.994C230.181 192.007 230.522 191.918 230.817 191.737C231.111 191.556 231.345 191.291 231.489 190.977C231.634 190.663 231.681 190.314 231.627 189.972C231.572 189.631 231.418 189.314 231.183 189.06C230.948 188.807 230.643 188.629 230.307 188.549C229.971 188.469 229.618 188.49 229.294 188.61C228.97 188.73 228.689 188.943 228.487 189.223C228.421 189.311 228.364 189.404 228.317 189.503C228.142 189.872 228.103 190.29 228.205 190.685C228.307 191.08 228.545 191.426 228.877 191.663Z" fill="#FFA8A9"/>
<path d="M229.24 189.201C229.166 189.508 229.509 189.461 230.011 189.581C230.512 189.701 230.982 189.942 231.056 189.635C231.129 189.328 230.782 188.982 230.281 188.862C229.779 188.742 229.313 188.894 229.24 189.201Z" fill="white"/>
<path d="M228.877 191.663C229.093 191.821 229.343 191.926 229.607 191.972C229.871 192.018 230.141 192.002 230.398 191.927C230.655 191.852 230.891 191.718 231.089 191.537C231.286 191.356 231.439 191.133 231.537 190.883C231.065 190.967 230.585 191.001 230.107 190.983C229.717 190.884 229.355 190.7 229.045 190.444C228.736 190.188 228.487 189.867 228.317 189.503C228.142 189.872 228.103 190.29 228.205 190.685C228.307 191.08 228.545 191.426 228.877 191.663Z" fill="#C97374"/>
<path d="M221.307 187.443C221.307 187.674 221.353 187.902 221.442 188.115C221.531 188.327 221.661 188.521 221.824 188.683C221.987 188.846 222.181 188.974 222.395 189.062C222.608 189.149 222.836 189.194 223.067 189.193C223.51 189.196 223.938 189.028 224.261 188.725C224.585 188.422 224.78 188.006 224.807 187.563C224.815 187.524 224.818 187.484 224.817 187.443C224.816 187.034 224.672 186.637 224.41 186.323C224.147 186.008 223.783 185.796 223.38 185.722C222.977 185.648 222.561 185.718 222.204 185.919C221.847 186.12 221.572 186.44 221.427 186.823C221.346 187.02 221.305 187.231 221.307 187.443Z" fill="#FFA8A9"/>
<path d="M222.35 186.461C222.32 186.775 222.653 186.681 223.166 186.731C223.679 186.781 224.178 186.955 224.209 186.641C224.239 186.327 223.848 186.032 223.335 185.982C222.822 185.932 222.381 186.147 222.35 186.461Z" fill="white"/>
<path d="M221.307 187.443C221.307 187.674 221.353 187.902 221.442 188.115C221.531 188.327 221.661 188.521 221.824 188.683C221.987 188.846 222.181 188.974 222.395 189.062C222.608 189.149 222.836 189.194 223.067 189.193C223.51 189.196 223.938 189.028 224.261 188.725C224.585 188.422 224.78 188.006 224.807 187.563C224.597 187.643 224.377 187.763 224.257 187.793C223.848 187.918 223.415 187.938 222.997 187.853C222.36 187.726 221.797 187.357 221.427 186.823C221.346 187.02 221.305 187.231 221.307 187.443Z" fill="#C97374"/>
<path d="M213.167 199.543C213.168 201.12 213.637 202.66 214.514 203.97C215.391 205.28 216.637 206.301 218.094 206.903C219.551 207.505 221.154 207.661 222.699 207.353C224.245 207.044 225.665 206.284 226.779 205.169C227.893 204.053 228.651 202.633 228.958 201.086C229.265 199.54 229.106 197.938 228.502 196.481C227.898 195.025 226.876 193.781 225.565 192.905C224.254 192.03 222.713 191.563 221.137 191.563C219.024 191.573 217.001 192.417 215.508 193.911C214.015 195.406 213.173 197.431 213.167 199.543Z" fill="#FFA8A9"/>
<path d="M213.167 199.543C213.172 200.622 213.397 201.688 213.827 202.677C214.256 203.666 214.882 204.558 215.667 205.298C216.451 206.038 217.378 206.611 218.39 206.983C219.403 207.355 220.48 207.517 221.557 207.46C222.634 207.403 223.688 207.128 224.656 206.652C225.624 206.176 226.484 205.508 227.187 204.689C227.889 203.871 228.417 202.918 228.74 201.889C229.064 200.86 229.175 199.776 229.067 198.703C228.927 198.813 228.777 198.933 228.627 199.073C227.374 200.143 225.793 200.754 224.147 200.803C221.924 201.025 219.696 200.444 217.867 199.163C217.061 198.57 216.417 197.784 215.994 196.877C215.572 195.97 215.383 194.972 215.447 193.973C213.979 195.454 213.158 197.458 213.167 199.543Z" fill="#EB8687"/>
<path d="M218.879 193.909C218.779 194.94 219.873 194.634 221.556 194.797C223.24 194.961 224.876 195.533 224.976 194.502C225.076 193.471 223.792 192.503 222.109 192.339C220.425 192.176 218.98 192.879 218.879 193.909Z" fill="white"/>
<path d="M196.275 221.312C198.276 222.523 200.015 224.12 201.394 226.009C201.48 226.148 201.618 226.249 201.777 226.291C201.936 226.333 202.105 226.312 202.249 226.233C202.391 226.148 202.494 226.011 202.536 225.851C202.578 225.691 202.555 225.521 202.473 225.378C200.978 223.31 199.085 221.561 196.906 220.233C196.763 220.156 196.596 220.138 196.44 220.181C196.284 220.225 196.151 220.328 196.069 220.468C195.988 220.608 195.963 220.774 196.002 220.932C196.04 221.089 196.138 221.226 196.275 221.312Z" fill="black"/>
<path d="M196.968 226.394C200.804 230.951 203.265 236.505 204.065 242.408C204.184 243.201 205.388 242.864 205.27 242.075C204.418 235.962 201.845 230.217 197.852 225.51C197.331 224.896 196.45 225.784 196.968 226.394Z" fill="black"/>
<path opacity="0.53" d="M179.688 206.167C184.798 206.265 190.316 207.416 197.594 203.2C195.097 205.61 192.359 207.758 189.424 209.61L189.274 209.7C186.274 209.59 182.448 207.357 179.688 206.167Z" fill="#D6D6D6"/>
<path d="M64.3101 146.067C62.1409 146.054 59.9823 145.763 57.8868 145.202C44.3516 141.659 35.0987 124.77 38.8468 110.45C41.9547 98.5778 50.8942 90.9069 61.6217 90.9069C65.289 90.9542 68.9079 91.7516 72.2554 93.2501C84.5245 98.5377 89.92 111.628 86.0006 126.599C82.8097 138.789 74.7013 146.067 64.3101 146.067Z" fill="black"/>
<path d="M61.622 92.3557C65.0921 92.4015 68.5159 93.1587 71.6817 94.5805C84.2189 99.9838 88.0561 113.025 84.599 126.232C81.695 137.325 74.3981 144.618 64.3107 144.618C62.265 144.606 60.2294 144.331 58.2537 143.8C45.0468 140.343 36.7914 124.024 40.2486 110.817C42.9287 100.579 50.8301 92.3563 61.622 92.3557ZM61.6232 89.4577H61.6218C50.2147 89.4582 40.7247 97.5542 37.4451 110.083C35.6513 117.613 36.7202 125.541 40.4444 132.327C44.3018 139.569 50.5256 144.773 57.5199 146.604C59.7354 147.196 62.0175 147.503 64.3108 147.516C75.4017 147.516 84.0341 139.834 87.4026 126.966C91.5131 111.263 85.7926 97.5063 72.8288 91.9191C69.3008 90.3424 65.4873 89.5047 61.6233 89.4576L61.6232 89.4577Z" fill="black"/>
<path d="M49.3719 113.394C51.6351 104.748 57.9727 99.6295 66.6184 101.893C75.2641 104.156 80.6685 114.839 78.4053 123.485C76.1421 132.131 68.1923 138.581 57.828 134.114C49.6207 130.577 47.1087 122.039 49.3719 113.394Z" fill="#FFA8A9"/>
<path d="M57.6016 116.759C60.217 108.936 66.4873 104.651 74.5311 107.34C82.5749 110.029 87.0914 120.265 84.4759 128.089C81.8604 135.913 74.3461 140.992 64.8002 136.149C57.241 132.315 54.9861 124.583 57.6016 116.759Z" fill="#EB8687"/>
<path d="M64.8377 94.864C65.3559 97.1061 61.9754 96.3809 57.8545 97.3333C53.7336 98.2857 50.4327 100.555 49.9145 98.3132C49.3963 96.0711 52.3169 93.4814 56.4378 92.5289C60.5587 91.5764 64.3195 92.6219 64.8377 94.864Z" fill="#F6CFFF"/>
<path d="M210.462 141.334C199.734 141.333 190.795 133.662 187.688 121.791C183.939 107.47 193.192 90.5811 206.727 87.0382C208.823 86.4772 210.982 86.1866 213.151 86.1734C223.541 86.1734 231.649 93.4508 234.841 105.641C238.76 120.612 233.364 133.703 221.095 138.99C217.748 140.488 214.13 141.286 210.464 141.334H210.462Z" fill="black"/>
<path d="M213.151 87.6222C223.238 87.6222 230.535 94.9147 233.439 106.008C236.896 119.215 233.059 132.256 220.522 137.66C217.356 139.081 213.932 139.839 210.462 139.884C199.67 139.884 191.769 131.661 189.089 121.423C185.632 108.216 193.887 91.897 207.094 88.4398C209.07 87.9092 211.105 87.6344 213.151 87.6222H213.151ZM213.151 84.7242C210.858 84.7374 208.576 85.0439 206.36 85.6362C199.366 87.4671 193.142 92.6708 189.285 99.913C185.56 106.699 184.491 114.627 186.285 122.157C189.565 134.687 199.055 142.783 210.462 142.783C214.327 142.735 218.141 141.898 221.669 140.321C234.633 134.734 240.353 120.977 236.243 105.274C232.874 92.4064 224.242 84.7242 213.151 84.7242L213.151 84.7242Z" fill="black"/>
<path d="M225.795 108.727C223.532 100.081 217.195 94.9628 208.549 97.226C199.903 99.4892 194.499 110.172 196.762 118.818C199.025 127.464 206.975 133.914 217.339 129.447C225.547 125.91 228.059 117.373 225.795 108.727Z" fill="#FFA8A9"/>
<path d="M217.663 113.223C215.476 104.868 209.195 99.9628 200.549 102.226C191.903 104.489 186.422 114.881 188.609 123.235C190.796 131.59 198.676 137.772 209.055 133.36C217.273 129.867 219.85 121.577 217.663 113.223Z" fill="#EB8687"/>
<path d="M223.694 92.6792C223.335 94.9521 220.472 93.0131 216.294 92.3521C212.117 91.6911 208.206 92.5584 208.566 90.2855C208.925 88.0126 212.604 86.7059 216.781 87.3669C220.959 88.0279 224.054 90.4063 223.694 92.6792Z" fill="#F6CFFF"/>
<path d="M139.475 223.008C116.367 223.008 98.316 218.446 85.8229 209.451C70.9079 198.712 63.3453 181.374 63.3453 157.918C63.3453 142.005 65.8824 128.094 70.8853 116.571C76.1661 103.89 85.503 93.3184 97.4342 86.5109C98.8439 85.7052 100.326 84.9318 101.841 84.2101C112.559 79.1071 125.221 76.5192 139.475 76.5192C142.334 76.5192 145.119 76.6393 147.753 76.8752C148.28 76.922 148.717 76.9611 149.144 77.008C149.76 77.0676 150.395 77.1296 151.03 77.2116C151.396 77.2546 151.776 77.3078 152.164 77.3625L152.315 77.3835C153.484 77.5373 154.654 77.7233 155.781 77.9343L155.877 77.9509C156.369 78.0378 156.869 78.1262 157.36 78.2321C157.92 78.341 158.431 78.4411 158.923 78.5593C159.294 78.633 159.721 78.7287 160.135 78.8351C160.788 78.9782 161.49 79.1535 162.181 79.339C162.527 79.4279 162.89 79.5212 163.252 79.6247C163.982 79.8249 164.715 80.0485 165.448 80.2726C165.759 80.3659 166.077 80.4621 166.385 80.5676C166.899 80.7326 167.44 80.9157 167.969 81.0993C168.471 81.2731 168.951 81.4474 169.444 81.6315C170.912 82.176 172.358 82.7668 173.738 83.3864C174.202 83.5881 174.682 83.8073 175.152 84.0368C176.032 84.443 176.963 84.9064 177.887 85.4006C178.337 85.6301 178.801 85.883 179.253 86.1462C180.722 86.9557 182.187 87.8449 183.578 88.7726C183.899 88.9694 184.252 89.2145 184.604 89.4606C185.869 90.3298 187.158 91.2853 188.427 92.2946C188.642 92.4665 188.854 92.6462 189.065 92.8259L189.651 93.2605L189.649 93.2961C189.69 93.3313 189.731 93.3664 189.772 93.4021C190.129 93.6995 190.494 94.0129 190.861 94.3479C193.466 96.6477 195.882 99.1532 198.086 101.84C209.057 115.172 214.931 132.795 215.543 154.217C215.584 155.436 215.604 156.672 215.604 157.918C215.63 163.304 215.167 168.68 214.219 173.982C212.035 185.812 207.182 195.666 199.793 203.268C199.436 203.647 199.043 204.03 198.65 204.412L198.229 204.824L198.21 204.825C195.746 207.15 193.064 209.232 190.201 211.042L190.026 211.147C186.24 213.525 182.215 215.501 178.018 217.042L177.787 217.153L177.715 217.154C176.836 217.478 175.948 217.785 175.052 218.083C173.979 218.424 172.913 218.748 171.839 219.053C161.279 221.829 150.392 223.16 139.475 223.008Z" fill="white"/>
<path d="M139.474 77.9683C142.224 77.9683 144.944 78.0783 147.624 78.3183C148.074 78.3583 148.534 78.3983 148.984 78.4483C149.604 78.5083 150.224 78.5683 150.844 78.6483C151.264 78.6983 151.684 78.7583 152.114 78.8183C153.254 78.9683 154.394 79.1483 155.514 79.3583C156.024 79.4483 156.544 79.5382 157.054 79.6483C157.564 79.7483 158.084 79.8483 158.584 79.9683C158.984 80.0483 159.384 80.1383 159.774 80.2383C160.454 80.3883 161.134 80.5583 161.804 80.7383C162.154 80.8283 162.504 80.9182 162.854 81.0183C163.584 81.2183 164.304 81.4383 165.024 81.6583C165.324 81.7483 165.624 81.8383 165.914 81.9383C166.444 82.1083 166.974 82.2882 167.494 82.4683C167.984 82.6383 168.454 82.8083 168.934 82.9883C170.364 83.5183 171.764 84.0883 173.144 84.7083C173.604 84.9083 174.064 85.1183 174.514 85.3383C175.424 85.7583 176.324 86.2083 177.204 86.6783C177.654 86.9083 178.094 87.1483 178.524 87.3983C179.974 88.1983 181.391 89.0583 182.774 89.9782C183.114 90.1883 183.444 90.4182 183.774 90.6483C185.054 91.5283 186.304 92.455 187.524 93.4283C187.724 93.5883 187.924 93.7583 188.124 93.9283C188.134 93.9383 188.154 93.9483 188.154 93.9583C188.384 94.1283 188.604 94.3083 188.824 94.4983C189.184 94.7983 189.534 95.0983 189.884 95.4182C192.439 97.6699 194.806 100.125 196.964 102.758C207.144 115.128 213.464 132.228 214.094 154.258C214.134 155.468 214.154 156.688 214.154 157.918C214.183 163.215 213.728 168.504 212.794 173.718C210.564 185.798 205.654 195.158 198.754 202.258C198.384 202.648 197.994 203.028 197.604 203.408H197.594C195.097 205.818 192.359 207.966 189.424 209.818L189.274 209.908C185.556 212.248 181.6 214.189 177.474 215.698C177.464 215.698 177.454 215.708 177.444 215.708C176.504 216.058 175.554 216.388 174.594 216.708C173.554 217.038 172.504 217.358 171.444 217.658C161.013 220.399 150.258 221.711 139.474 221.558C98.2344 221.558 64.7944 207.348 64.7944 157.918C64.7944 141.568 67.4644 128.088 72.2144 117.148C77.3703 104.753 86.4938 94.42 98.1544 87.7683C99.5544 86.9683 100.991 86.2183 102.464 85.5183C113.364 80.3283 126.004 77.9683 139.474 77.9683V77.9683ZM139.474 75.0703C125.004 75.0703 112.132 77.7052 101.219 82.9018C99.6706 83.639 98.1559 84.4297 96.7166 85.2521C84.5141 92.2135 74.9632 103.023 69.5579 115.99C64.4735 127.7 61.8964 141.806 61.8964 157.918C61.8964 181.866 69.6615 199.599 84.976 210.626C97.9006 219.933 115.727 224.456 139.474 224.456C150.523 224.609 161.542 223.261 172.228 220.449C173.232 220.164 174.291 219.845 175.471 219.471C176.393 219.164 177.205 218.881 177.961 218.606H178.127L178.606 218.369C182.866 216.798 186.952 214.789 190.798 212.374L190.84 212.348L190.916 212.303L190.946 212.285L190.976 212.266C193.741 210.518 196.342 208.523 198.747 206.306H198.773L199.627 205.484C200.03 205.091 200.447 204.685 200.857 204.253C208.424 196.467 213.407 186.362 215.644 174.244C216.607 168.856 217.079 163.392 217.052 157.918C217.052 156.663 217.032 155.399 216.991 154.163C216.369 132.423 210.384 114.504 199.202 100.917C196.951 98.1713 194.482 95.6114 191.821 93.2618C191.583 93.0452 191.333 92.8251 191.052 92.5859V92.5093L189.946 91.6733C189.742 91.4998 189.538 91.3281 189.335 91.1654C188.031 90.1283 186.714 89.1527 185.416 88.2602C185.104 88.0426 184.736 87.7855 184.342 87.5401C182.938 86.6058 181.461 85.7098 179.953 84.8764C179.496 84.6114 179.023 84.3535 178.546 84.1094C177.614 83.6121 176.676 83.1449 175.758 82.7204C175.306 82.5003 174.816 82.275 174.3 82.0506C172.926 81.4331 171.449 80.8295 169.942 80.2709C169.449 80.0863 168.957 79.9084 168.444 79.7304C167.911 79.5459 167.37 79.3621 166.828 79.188C166.512 79.0797 166.185 78.9809 165.858 78.8828C165.143 78.6644 164.391 78.4344 163.62 78.2233C163.279 78.1256 162.908 78.0297 162.536 77.934C161.8 77.7364 161.109 77.5659 160.446 77.4187C160.05 77.3182 159.633 77.2236 159.206 77.1372C158.722 77.0225 158.221 76.9238 157.728 76.8271L157.638 76.8094C157.14 76.7028 156.635 76.613 156.137 76.5253L156.018 76.5044C154.898 76.2942 153.702 76.1041 152.492 75.945L152.358 75.9262C151.963 75.8709 151.575 75.8168 151.187 75.7706C150.565 75.6901 149.914 75.6267 149.264 75.5638C148.867 75.5194 148.421 75.4796 147.983 75.4407L147.881 75.4317C145.204 75.1919 142.375 75.0703 139.474 75.0703L139.474 75.0703Z" fill="black"/>
<path opacity="0.53" d="M212.794 173.51C210.564 185.59 205.655 194.95 198.755 202.05C191.302 204.249 183.396 204.401 175.865 202.49C185.452 201.896 194.429 197.583 200.884 190.47C193.605 194.24 185.187 195.181 177.255 193.11C188.041 192.448 198.222 187.9 205.914 180.31C207.814 178.42 210.914 172.47 212.794 173.51Z" fill="#D6D6D6"/>
<path opacity="0.53" d="M196.965 102.668C196.414 103.491 195.784 104.258 195.085 104.958C192.907 106.995 190.402 108.652 187.675 109.858C182.844 112.076 177.889 114.013 172.835 115.658C178.096 112.426 181.916 107.296 183.505 101.328C176.475 107.298 167.065 109.478 157.985 111.128C155.035 111.658 152.075 112.155 149.105 112.618C153.745 111.169 158.236 109.277 162.515 106.968C164.425 105.938 166.485 104.498 167.155 102.558C167.109 102.571 167.062 102.577 167.015 102.578C166.775 103.048 166.555 103.528 166.335 103.998L166.835 102.608C163.424 103.147 159.977 103.428 156.525 103.448C141.445 103.248 127.425 102.948 112.875 99.0083C106.685 97.3383 99.9345 93.8483 98.1545 87.6783C99.5545 86.8783 100.991 86.1283 102.465 85.4283C113.365 80.2383 126.005 77.8783 139.475 77.8783C142.225 77.8783 144.945 77.9883 147.625 78.2283C148.075 78.2683 148.535 78.3083 148.985 78.3583C149.605 78.4183 150.225 78.4783 150.845 78.5583C151.265 78.6083 151.685 78.6683 152.115 78.7283C153.255 78.8783 154.395 79.0583 155.515 79.2683C156.025 79.3583 156.545 79.4483 157.055 79.5583C157.565 79.6583 158.085 79.7583 158.585 79.8783C158.985 79.9583 159.385 80.0483 159.775 80.1483C160.455 80.2983 161.135 80.4683 161.805 80.6483C162.155 80.7383 162.505 80.8283 162.855 80.9283C163.585 81.1283 164.305 81.3483 165.025 81.5683C165.325 81.6583 165.625 81.7483 165.915 81.8483C166.445 82.0183 166.975 82.1983 167.495 82.3783C167.985 82.5483 168.455 82.7183 168.935 82.8983C170.365 83.4283 171.765 83.9983 173.145 84.6183C173.605 84.8183 174.065 85.0283 174.515 85.2483C175.425 85.6683 176.325 86.1183 177.205 86.5883C177.655 86.8183 178.095 87.0583 178.525 87.3083C179.975 88.1083 181.391 88.9683 182.775 89.8883C183.115 90.0983 183.445 90.3283 183.775 90.5583C185.055 91.4383 186.305 92.365 187.525 93.3383C187.725 93.4983 187.925 93.6683 188.125 93.8383C188.135 93.8483 188.155 93.8583 188.155 93.8683C188.375 94.0483 188.575 94.2283 188.795 94.4083H188.825C189.185 94.7083 189.535 95.0083 189.885 95.3283C192.439 97.5799 194.807 100.035 196.965 102.668Z" fill="#D6D6D6"/>
<g opacity="0.53">
<path opacity="0.53" d="M177.478 215.486C166.349 219.62 153.348 221.345 139.474 221.345C98.2295 221.345 64.7905 207.145 64.7905 157.707C64.7905 141.361 67.4622 127.876 72.2167 116.936C71.9327 119.408 71.4488 121.911 71.1964 123.615C69.4082 135.691 69.3661 147.977 72.4376 159.863C76.8554 176.945 87.9422 192.703 103.784 200.476C121.75 209.28 142.84 207.05 162.836 207.765C168.274 207.955 174.722 209.049 176.983 214.003C177.203 214.478 177.369 214.975 177.478 215.486Z" fill="#D6D6D6"/>
</g>
<path d="M176.334 179.408C183.514 179.408 189.334 177.17 189.334 174.408C189.334 171.647 183.514 169.408 176.334 169.408C169.154 169.408 163.334 171.647 163.334 174.408C163.334 177.17 169.154 179.408 176.334 179.408Z" fill="#FFA8A9"/>
<path d="M102.334 179.408C109.514 179.408 115.334 177.17 115.334 174.408C115.334 171.647 109.514 169.408 102.334 169.408C95.1544 169.408 89.3341 171.647 89.3341 174.408C89.3341 177.17 95.1544 179.408 102.334 179.408Z" fill="#FFA8A9"/>
<path d="M140.209 173.783C140.123 175.55 139.367 177.216 138.094 178.444C136.821 179.671 135.128 180.367 133.359 180.388C131.651 180.388 130.012 179.709 128.804 178.501C127.596 177.293 126.917 175.654 126.917 173.945" stroke="black" stroke-width="2.38985" stroke-miterlimit="10"/>
<path d="M152.786 173.945C152.786 175.654 152.107 177.293 150.899 178.501C149.691 179.709 148.052 180.388 146.344 180.388C145.505 180.363 144.68 180.172 143.916 179.825C143.152 179.479 142.465 178.984 141.894 178.369C141.324 177.755 140.881 177.033 140.591 176.245C140.302 175.458 140.172 174.621 140.209 173.783" stroke="black" stroke-width="2.38985" stroke-miterlimit="10"/>
<path d="M148.152 179.993C147.908 182.18 147.34 184.319 146.468 186.339C146.362 186.591 146.257 186.833 146.142 187.086C144.622 190.515 142.381 193.744 139.315 193.818C136.221 193.902 134.025 190.567 132.548 186.949C132.531 186.896 132.504 186.844 132.487 186.791C131.519 184.453 130.798 182.021 130.335 179.533C139.422 187.254 140.084 171.908 140.084 171.908C141.692 183.826 148.152 179.993 148.152 179.993Z" fill="black" stroke="black" stroke-width="1.92284" stroke-linecap="round" stroke-linejoin="round"/>
<path d="M146.142 187.086C144.622 190.515 142.381 193.744 139.315 193.818C136.221 193.902 134.024 190.567 132.548 186.949C132.531 186.896 132.504 186.844 132.487 186.791C134.332 185.17 136.718 184.299 139.174 184.351C140.459 184.317 141.739 184.541 142.936 185.011C144.133 185.481 145.223 186.186 146.142 187.086Z" fill="#FFA8A9" stroke="black" stroke-width="0.96142" stroke-linecap="round" stroke-linejoin="round"/>
<path d="M140.334 169.408V175.408" stroke="black" stroke-width="2.38985" stroke-miterlimit="10"/>
<path d="M140.819 170.749C145.79 170.749 149.819 168.511 149.819 165.749C149.819 162.988 145.79 160.749 140.819 160.749C135.849 160.749 131.819 162.988 131.819 165.749C131.819 168.511 135.849 170.749 140.819 170.749Z" fill="black"/>
<path d="M140.334 163.408C141.991 163.408 143.334 162.961 143.334 162.408C143.334 161.856 141.991 161.408 140.334 161.408C138.677 161.408 137.334 161.856 137.334 162.408C137.334 162.961 138.677 163.408 140.334 163.408Z" fill="white"/>
<path d="M105.834 165.408C114.395 165.408 121.334 158.469 121.334 149.908C121.334 141.348 114.395 134.408 105.834 134.408C97.2737 134.408 90.3341 141.348 90.3341 149.908C90.3341 158.469 97.2737 165.408 105.834 165.408Z" fill="black"/>
<path d="M94.8341 153.408C96.2148 153.408 97.3341 152.289 97.3341 150.908C97.3341 149.528 96.2148 148.408 94.8341 148.408C93.4534 148.408 92.3341 149.528 92.3341 150.908C92.3341 152.289 93.4534 153.408 94.8341 153.408Z" fill="white"/>
<path d="M105.334 149.408C108.648 149.408 111.334 146.722 111.334 143.408C111.334 140.095 108.648 137.408 105.334 137.408C102.02 137.408 99.3341 140.095 99.3341 143.408C99.3341 146.722 102.02 149.408 105.334 149.408Z" fill="white"/>
<path d="M171.834 165.408C180.395 165.408 187.334 158.469 187.334 149.908C187.334 141.348 180.395 134.408 171.834 134.408C163.274 134.408 156.334 141.348 156.334 149.908C156.334 158.469 163.274 165.408 171.834 165.408Z" fill="black"/>
<path d="M170.334 149.408C173.648 149.408 176.334 146.722 176.334 143.408C176.334 140.095 173.648 137.408 170.334 137.408C167.02 137.408 164.334 140.095 164.334 143.408C164.334 146.722 167.02 149.408 170.334 149.408Z" fill="white"/>
<path d="M180.834 154.408C182.215 154.408 183.334 153.289 183.334 151.908C183.334 150.528 182.215 149.408 180.834 149.408C179.453 149.408 178.334 150.528 178.334 151.908C178.334 153.289 179.453 154.408 180.834 154.408Z" fill="white"/>
<path d="M157.121 234.393C153.052 234.256 149.029 233.486 145.197 232.11C143.966 231.708 142.711 231.257 141.47 230.771L140.806 230.511L140.475 229.88C139.193 227.432 138.262 224.816 137.709 222.109C137.544 221.195 137.565 220.257 137.772 219.351C137.984 218.439 138.526 217.637 139.292 217.1C139.793 216.634 141.674 214.907 144.256 212.815C151.831 206.689 157.773 203.583 161.916 203.583C163.356 203.532 164.768 203.988 165.906 204.873C167.044 205.757 167.835 207.013 168.141 208.421C168.889 210.93 169.45 213.492 169.819 216.084C170.08 217.843 170.183 219.622 170.129 221.4C169.862 229.774 165.242 234.393 157.121 234.393Z" fill="#F12747"/>
<path d="M161.916 205.493C162.943 205.442 163.953 205.764 164.76 206.401C165.568 207.037 166.117 207.944 166.307 208.954C167.028 211.372 167.569 213.84 167.927 216.338C168.17 217.988 168.269 219.657 168.221 221.324C168.028 227.378 165.408 232.482 157.121 232.482C153.255 232.349 149.433 231.612 145.795 230.297C144.638 229.918 143.429 229.487 142.166 228.992C140.987 226.737 140.124 224.33 139.6 221.839C139.474 221.175 139.481 220.492 139.621 219.83C139.673 219.58 139.775 219.343 139.922 219.133C140.068 218.923 140.256 218.745 140.473 218.61C140.473 218.61 142.513 216.685 145.459 214.298C150.183 210.477 157.244 205.494 161.916 205.493H161.916ZM161.917 201.673H161.917C157.323 201.674 150.978 204.922 143.057 211.327C140.576 213.339 138.722 215.025 138.088 215.612C136.999 216.412 136.231 217.573 135.919 218.887C135.645 220.047 135.613 221.251 135.825 222.424C136.404 225.333 137.4 228.143 138.784 230.767L139.446 232.029L140.773 232.549C142.042 233.046 143.331 233.509 144.607 233.927C148.627 235.374 152.851 236.176 157.121 236.302C166.3 236.302 171.738 230.887 172.039 221.446C172.096 219.563 171.986 217.678 171.711 215.815C171.329 213.133 170.748 210.483 169.975 207.887C169.557 206.079 168.526 204.472 167.057 203.339C165.588 202.206 163.771 201.618 161.917 201.673L161.917 201.673Z" fill="black"/>
<path d="M168.221 221.344C167.958 229.58 163.204 236.06 145.795 230.317C145.395 230.816 144.887 231.219 144.31 231.496C143.733 231.773 143.101 231.916 142.461 231.916H133.425C132.729 231.917 132.043 231.749 131.427 231.424C130.81 231.1 130.283 230.629 129.891 230.054C111.977 236.197 107.034 229.791 106.697 221.513C106.649 220.101 106.705 218.687 106.865 217.284C111.273 216.968 119.425 220.913 123.359 221.449C125.273 221.712 127.198 221.891 129.123 221.996C131.174 222.102 133.236 222.133 135.287 222.081C136.728 222.038 138.169 221.965 139.6 221.86C141.998 221.681 144.375 221.407 146.752 221.05C152.951 220.092 159.071 218.686 165.066 216.842C165.982 216.507 166.951 216.343 167.927 216.358C168.17 218.009 168.269 219.677 168.221 221.344Z" fill="#A61B31"/>
<path d="M117.794 234.387C109.744 234.387 105.125 229.835 104.789 221.569C104.737 220.062 104.797 218.553 104.967 217.055C105.321 214.128 105.928 211.238 106.779 208.415C107.086 207.009 107.876 205.755 109.014 204.872C110.151 203.989 111.561 203.534 113 203.585C117.255 203.585 123.388 206.845 131.228 213.274C133.516 215.151 135.162 216.666 135.627 217.101C136.114 217.45 136.516 217.905 136.801 218.431C137.086 218.958 137.247 219.543 137.272 220.142C137.338 220.889 137.303 221.641 137.17 222.379C136.606 224.994 135.687 227.52 134.439 229.887L134.104 230.52L133.436 230.775C132.426 231.163 131.448 231.517 130.514 231.839C126.438 233.365 122.143 234.226 117.794 234.387Z" fill="#F12747"/>
<path d="M113 205.495C117.859 205.494 125.302 210.883 130.017 214.75C132.657 216.917 134.446 218.61 134.446 218.61C134.727 218.8 134.959 219.055 135.12 219.353C135.281 219.652 135.368 219.985 135.371 220.325C135.42 220.905 135.392 221.488 135.287 222.061C134.755 224.474 133.902 226.805 132.752 228.992C131.763 229.371 130.806 229.718 129.891 230.034C126.017 231.496 121.932 232.321 117.795 232.477C109.587 232.477 106.94 227.474 106.697 221.493C106.649 220.081 106.705 218.667 106.865 217.264C107.211 214.45 107.795 211.67 108.612 208.954C108.802 207.945 109.351 207.038 110.158 206.402C110.965 205.766 111.974 205.444 113 205.495L113 205.495ZM113.001 201.675H113.001C111.147 201.619 109.33 202.208 107.861 203.341C106.392 204.473 105.361 206.08 104.944 207.888C104.063 210.811 103.436 213.805 103.07 216.836C102.888 218.43 102.825 220.035 102.88 221.639C103.259 230.957 108.695 236.297 117.795 236.297C122.355 236.147 126.859 235.252 131.13 233.647C132.123 233.305 133.126 232.939 134.118 232.559L135.456 232.047L136.127 230.781C137.48 228.227 138.467 225.495 139.059 222.665C139.217 221.767 139.255 220.852 139.172 219.944C139.117 219.097 138.879 218.272 138.476 217.525C138.072 216.778 137.513 216.126 136.835 215.615C136.249 215.071 134.628 213.593 132.441 211.797C124.25 205.08 117.71 201.675 113.001 201.675L113.001 201.675Z" fill="black"/>
<path d="M135.287 222.061C134.755 224.474 133.902 226.805 132.752 228.992C131.763 229.371 130.806 229.718 129.891 230.034C111.977 236.177 107.034 229.771 106.697 221.492C106.649 220.081 106.705 218.667 106.865 217.264C111.273 216.948 119.425 220.893 123.359 221.429C125.273 221.692 127.198 221.871 129.123 221.976C131.174 222.081 133.236 222.113 135.287 222.061Z" fill="#A61B31"/>
<path d="M133.727 234.318C132.709 234.321 131.706 234.076 130.803 233.605C129.901 233.135 129.127 232.452 128.547 231.615C127.814 230.578 127.422 229.339 127.424 228.069V217.736C127.42 216.354 127.888 215.011 128.75 213.931C129.335 213.168 130.089 212.552 130.953 212.13C131.816 211.708 132.766 211.491 133.727 211.498H142.952C144.595 211.497 146.173 212.141 147.346 213.292C147.945 213.867 148.423 214.557 148.749 215.32C149.075 216.084 149.244 216.906 149.244 217.736V228.069C149.25 229.508 148.75 230.904 147.83 232.011C147.24 232.734 146.496 233.317 145.652 233.716C144.808 234.115 143.886 234.321 142.952 234.318H133.727Z" fill="#F12747"/>
<path d="M142.952 213.408C144.097 213.408 145.196 213.858 146.013 214.66C146.431 215.056 146.764 215.533 146.991 216.062C147.218 216.591 147.335 217.161 147.334 217.737V228.069C147.337 229.065 146.991 230.029 146.357 230.796C145.945 231.301 145.426 231.708 144.837 231.987C144.248 232.266 143.604 232.41 142.952 232.408H133.727C133.018 232.412 132.319 232.242 131.69 231.915C131.062 231.588 130.522 231.113 130.118 230.531C129.608 229.811 129.334 228.951 129.334 228.069V217.737C129.331 216.785 129.653 215.86 130.247 215.116C130.656 214.582 131.183 214.15 131.786 213.854C132.39 213.558 133.054 213.405 133.727 213.408H142.952ZM142.952 209.588H133.727C132.472 209.582 131.233 209.866 130.106 210.418C128.98 210.97 127.996 211.775 127.232 212.77C126.114 214.184 125.508 215.935 125.514 217.737V228.069C125.512 229.74 126.031 231.37 126.997 232.733C127.753 233.815 128.76 234.699 129.932 235.307C131.104 235.916 132.406 236.232 133.727 236.228H142.952C145.121 236.233 147.204 235.376 148.741 233.846C150.279 232.316 151.147 230.239 151.154 228.069V217.737C151.137 215.572 150.266 213.501 148.73 211.975C147.194 210.449 145.117 209.591 142.952 209.589L142.952 209.588Z" fill="black"/>
<path d="M147.329 221.089L147.283 228.171C147.286 229.159 146.94 230.116 146.306 230.875C145.892 231.377 145.372 231.78 144.784 232.057C144.195 232.333 143.552 232.476 142.902 232.473H133.676C132.969 232.478 132.271 232.31 131.643 231.986C131.015 231.662 130.474 231.19 130.068 230.612C129.558 229.9 129.284 229.047 129.283 228.171L129.374 222.002C131.469 222.107 133.417 222.409 135.511 222.357C136.983 222.315 138.514 222.31 139.975 222.205C142.423 222.026 144.902 221.446 147.329 221.089Z" fill="#A61B31"/>
<path d="M164.188 208.993C164.289 210.023 163.195 209.717 161.512 209.881C159.828 210.044 158.192 210.616 158.092 209.585C157.992 208.554 159.275 207.586 160.959 207.423C162.642 207.259 164.088 207.962 164.188 208.993Z" fill="white"/>
<path d="M117.522 209.159C117.622 210.19 116.529 209.884 114.845 210.047C113.162 210.211 111.526 210.783 111.425 209.752C111.325 208.721 112.609 207.753 114.292 207.589C115.976 207.426 117.422 208.129 117.522 209.159Z" fill="white"/>
<path d="M142.334 216.408H132.334C132.069 216.408 131.815 216.303 131.627 216.115C131.439 215.928 131.334 215.674 131.334 215.408C131.334 215.143 131.439 214.889 131.627 214.701C131.815 214.514 132.069 214.408 132.334 214.408H142.334C142.599 214.408 142.854 214.514 143.041 214.701C143.229 214.889 143.334 215.143 143.334 215.408C143.334 215.674 143.229 215.928 143.041 216.115C142.854 216.303 142.599 216.408 142.334 216.408Z" fill="white"/>
<path d="M125.684 223.701L126.054 218.384C121.493 218.97 116.892 219.173 112.298 218.991C116.621 220.93 121.099 222.506 125.684 223.701Z" fill="#000A0E"/>
<path d="M149.113 218.384L149.483 223.701C154.068 222.506 158.546 220.93 162.869 218.991C158.275 219.173 153.673 218.97 149.113 218.384Z" fill="#000A0E"/>
<path d="M136.676 76.57L127.137 71.475L131.466 79.436L136.676 76.57Z" fill="black"/>
<path d="M134.042 77.096L140.892 68.729L139.953 77.742L134.042 77.096Z" fill="black"/>
<path d="M173.365 56.654L180.222 91.451L115.505 84.294L134.907 50.292L134.919 50.304L173.365 56.654Z" fill="#FFBD45"/>
<path d="M166.537 21.9646L173.365 56.6544L134.919 50.3037L134.907 50.2923L152.147 20.0957C150.657 18.4125 149.716 16.3146 149.45 14.0824C149.185 11.8503 149.607 9.59016 150.66 7.60428C151.713 5.6184 153.348 4.00136 155.345 2.96933C157.342 1.9373 159.606 1.53944 161.836 1.82896C164.065 2.11847 166.153 3.08155 167.82 4.58946C169.487 6.09737 170.654 8.07826 171.165 10.2673C171.676 12.4564 171.507 14.7493 170.68 16.8396C169.853 18.9298 168.408 20.7179 166.537 21.9646Z" fill="#F12747"/>
<path d="M134.907 50.2923L115.505 84.2935L180.222 91.4505L173.365 56.6544L166.537 21.9646C168.404 20.7179 169.846 18.9313 170.67 16.8434C171.495 14.7555 171.663 12.4657 171.151 10.2799C170.64 8.09409 169.474 6.11637 167.808 4.61092C166.143 3.10548 164.058 2.14398 161.832 1.85487C159.606 1.56575 157.345 1.9628 155.35 2.99296C153.356 4.02311 151.723 5.63734 150.67 7.62C149.618 9.60265 149.195 11.8593 149.459 14.0886C149.723 16.3179 150.66 18.4136 152.147 20.0957L134.907 50.2923Z" stroke="black" stroke-width="3.54271" stroke-miterlimit="10"/>
<path d="M134.919 50.304L173.365 56.654L174.015 56.759" stroke="black" stroke-opacity="0.88" stroke-width="2.18921" stroke-miterlimit="10"/>
<path d="M141.804 74.2223C141.849 75.3119 141.57 76.3904 141.002 77.3213C140.434 78.2522 139.603 78.9937 138.613 79.4521C137.624 79.9106 136.52 80.0653 135.443 79.8967C134.366 79.7282 133.362 79.2439 132.56 78.5052C131.758 77.7664 131.193 76.8064 130.936 75.7465C130.68 74.6866 130.743 73.5744 131.119 72.5506C131.494 71.5268 132.165 70.6373 133.046 69.9947C133.927 69.352 134.979 68.9851 136.068 68.9402C137.53 68.8801 138.955 69.4028 140.03 70.3934C141.106 71.3839 141.744 72.7613 141.804 74.2223V74.2223Z" stroke="black" stroke-opacity="0.7" stroke-width="2.91895" stroke-miterlimit="10"/>
<path d="M154.558 59.9348C155.524 60.4408 156.319 61.2218 156.841 62.1792C157.363 63.1366 157.589 64.2273 157.492 65.3134C157.394 66.3995 156.976 67.4322 156.292 68.281C155.607 69.1297 154.686 69.7564 153.645 70.0817C152.604 70.407 151.49 70.4164 150.444 70.1086C149.398 69.8009 148.466 69.1898 147.768 68.3527C147.069 67.5156 146.634 66.49 146.518 65.4057C146.402 64.3214 146.61 63.227 147.116 62.261C147.794 60.9656 148.96 59.9928 150.355 59.5566C151.751 59.1203 153.263 59.2564 154.558 59.9348V59.9348Z" stroke="black" stroke-opacity="0.7" stroke-width="2.91895" stroke-miterlimit="10"/>
<path d="M169.694 78.6357C169.451 79.6958 168.9 80.6601 168.109 81.4067C167.318 82.1533 166.324 82.6485 165.251 82.8299C164.179 83.0113 163.077 82.8707 162.085 82.4258C161.092 81.9808 160.254 81.2516 159.676 80.3304C159.098 79.4091 158.806 78.3372 158.838 77.2501C158.869 76.163 159.222 75.1096 159.852 74.2231C160.482 73.3366 161.36 72.6568 162.377 72.2696C163.393 71.8825 164.501 71.8055 165.561 72.0482C166.983 72.3738 168.217 73.2507 168.992 74.4861C169.767 75.7215 170.02 77.2141 169.694 78.6357V78.6357Z" stroke="black" stroke-opacity="0.7" stroke-width="2.91107" stroke-miterlimit="10"/>
<g style="mix-blend-mode:multiply" opacity="0.34">
<g style="mix-blend-mode:multiply" opacity="0.34">
<path d="M155.714 4.0412C155.714 4.0412 152.827 13.7182 158.926 16.7527C165.024 19.7872 140.602 86.8035 140.602 86.8035L115.5 84.292L152.143 20.099C152.143 20.099 146.058 8.91899 155.714 4.0412Z" fill="#FF4551"/>
</g>
</g>
<path d="M167.647 25.6571L166.905 24.4511L161.069 31.2958L158.086 24.6997L149.743 29.7359L148.309 25.6966C147.742 27.437 147.083 29.1674 146.346 30.8695L147.837 35.0706L156.485 29.8492L160.133 37.9149L166.436 30.52L167.969 33.0091C167.811 30.5854 167.726 28.1257 167.647 25.6571Z" fill="black" fill-opacity="0.24"/>
<path d="M169.395 43.4664L168.215 44.9381L163.233 36.8486L157.398 43.6933L154.414 37.0972L146.072 42.1334L143.864 35.9153C143.115 37.2694 142.317 38.59 141.465 39.8609L144.165 47.4682L152.813 42.2468L156.461 50.3124L162.764 42.9176L167.83 51.1412L170.638 47.641C170.141 46.2756 169.726 44.8816 169.395 43.4664Z" fill="black" fill-opacity="0.24"/>
<g opacity="0.71">
<path opacity="0.71" d="M167.277 8.48194C167.886 9.50094 168.067 10.7202 167.779 11.8722C167.491 13.0243 166.757 14.015 165.74 14.6269C163.65 15.7874 163.227 13.483 161.986 11.2497C160.746 9.01644 159.158 7.69984 161.247 6.53934C162.305 5.99879 163.533 5.89974 164.664 6.26393C165.794 6.62811 166.734 7.42579 167.277 8.48194Z" fill="white"/>
</g>
<path d="M231.622 259.736C231.622 259.736 226.973 232.677 217.649 240.28C208.325 247.882 212.155 258.978 212.155 258.978L227.453 264.342L231.622 259.736Z" fill="#FFBD45"/>
<path d="M231.622 259.736C231.622 259.736 226.973 232.677 217.649 240.28C208.325 247.882 212.155 258.978 212.155 258.978L227.453 264.342L231.622 259.736Z" fill="#F12747" stroke="black" stroke-width="2.63678" stroke-miterlimit="10" stroke-linecap="round"/>
<path d="M230.113 260.445C230.113 260.445 221.485 243.544 219.638 250.398C217.791 257.252 220.432 256.011 230.113 260.445Z" fill="black"/>
<path d="M255.498 275.716C257.791 269.362 252.823 261.747 244.402 258.708C235.981 255.669 227.295 258.356 225.002 264.711C222.708 271.065 227.676 278.68 236.098 281.719C244.519 284.758 253.205 282.071 255.498 275.716Z" fill="#FFBD45"/>
<path d="M255.498 275.716C257.791 269.362 252.823 261.747 244.402 258.708C235.981 255.669 227.295 258.356 225.002 264.711C222.708 271.065 227.676 278.68 236.098 281.719C244.519 284.758 253.205 282.071 255.498 275.716Z" fill="#F12747" stroke="black" stroke-width="2.63678" stroke-miterlimit="10" stroke-linecap="round"/>
<path d="M255.354 268.301C255.354 268.301 276.211 250.446 278.532 262.251C280.852 274.055 270.819 280.149 270.819 280.149L255.621 274.507L255.354 268.301Z" fill="#F12747" stroke="black" stroke-width="2.63678" stroke-miterlimit="10" stroke-linecap="round"/>
<g style="mix-blend-mode:multiply" opacity="0.34">
<path d="M216.438 243.088C216.438 243.088 213.024 255.362 227.344 257.889L227.255 261.513C227.255 261.513 240.811 258.281 255.015 270.414C255.015 270.414 272.267 280.295 277.43 269.364C277.43 269.364 274.111 280.25 270.218 280.064L212.658 259.19C212.658 259.19 209.66 254.554 211.331 250.486C212.279 248.105 213.386 245.79 214.644 243.558C214.896 243.141 216.438 243.088 216.438 243.088Z" fill="#FF4551"/>
</g>
<path d="M255.354 268.301C255.354 268.301 276.211 250.446 278.532 262.251C280.852 274.055 270.819 280.149 270.819 280.149L255.621 274.507L255.354 268.301Z" stroke="black" stroke-width="3.05659" stroke-miterlimit="10"/>
<path d="M256.063 269.81C256.063 269.81 273.496 262.314 270.54 268.767C267.584 275.221 266.344 272.58 256.063 269.81Z" fill="black"/>
<path d="M272.667 301.079L197.996 274.131L181.721 319.229L256.392 346.176L272.667 301.079Z" fill="white" stroke="black" stroke-width="3" stroke-miterlimit="10" stroke-linecap="round"/>
<path d="M242.015 295.736L223.702 289.127L209.51 328.453L227.823 335.062L242.015 295.736Z" fill="#F12747" stroke="black" stroke-width="2.63678" stroke-miterlimit="10" stroke-linecap="round"/>
<g style="mix-blend-mode:multiply" opacity="0.42">
<path d="M195.337 281.5L262.129 330.279L270.532 306.993L195.337 281.5Z" fill="#3336B1"/>
</g>
<path d="M241.52 297.108L223.207 290.499L209.51 328.453L227.823 335.062L241.52 297.108Z" stroke="black" stroke-width="3.05659" stroke-miterlimit="10"/>
<path d="M286.582 286.044L196.888 253.676L188.35 277.333L278.044 309.702L286.582 286.044Z" fill="white" stroke="#1D1D1B" stroke-miterlimit="10"/>
<path d="M286.582 286.044L196.888 253.676L188.35 277.333L278.044 309.702L286.582 286.044Z" stroke="black" stroke-width="3.05659" stroke-miterlimit="10"/>
<g style="mix-blend-mode:multiply" opacity="0.42">
<path d="M190.7 265.023L282.041 297.986L278.044 309.704L188.35 277.335L190.7 265.023Z" fill="#3336B1"/>
</g>
<path d="M252.875 273.36L229.488 264.92L220.883 288.762L244.271 297.202L252.875 273.36Z" fill="#FF4551"/>
<path d="M252.575 274.191L229.188 265.751L220.884 288.762L244.271 297.202L252.575 274.191Z" fill="#F12747" stroke="black" stroke-width="2.63678" stroke-miterlimit="10" stroke-linecap="round"/>
<path d="M76.6104 291.102L73.4207 324.733C73.2024 327.035 72.2938 329.218 70.814 330.995C69.3341 332.772 67.352 334.06 65.1274 334.691L55.966 337.291L55.144 337.524L45.9826 340.123C43.758 340.754 41.3947 340.699 39.2021 339.964C37.0096 339.229 35.0902 337.849 33.6954 336.005L13.3182 309.06L76.6104 291.102Z" fill="#F12747" stroke="black" stroke-width="2.63678" stroke-miterlimit="10" stroke-linecap="round"/>
<g style="mix-blend-mode:multiply" opacity="0.47">
<path d="M31.5381 321.252L39.0263 333.446L44.5907 331.837L40.4453 313.091L49.3539 330.865L58.3689 328.49L55.4895 310.112L66.5895 325.707L66.8707 307.633L70.4517 324.947C70.8253 326.753 70.4949 328.634 69.5281 330.205C68.5612 331.776 67.0309 332.918 65.2499 333.399L44.9313 338.879C43.1765 339.352 41.308 339.148 39.697 338.307C38.0861 337.465 36.8507 336.048 36.2366 334.338L31.5381 321.252Z" fill="#664141"/>
</g>
<path d="M71.7013 298.263C87.1415 282.75 71.6879 271.449 71.6879 271.449C75.2547 256.897 60.0267 255.112 60.0267 255.112C61.4022 241 45.2093 238.992 45.2093 238.992C35.3679 223.506 15.1134 236.311 15.1134 236.311C39.1983 246.227 1.326 251.142 8.9089 266.479C-6.5147 275.433 5.7505 290.429 5.7505 290.429C4.7171 311.378 18.7074 312.838 25.6147 308.832C25.6147 308.832 33.9298 317.64 46.2518 308.093C46.2518 308.093 57.849 312.18 71.7013 298.263Z" fill="white" stroke="black" stroke-width="2.25408" stroke-miterlimit="10" stroke-linecap="round"/>
<path d="M8.37659 264.964L7.68335 267.886C11.3361 268.495 15.0773 268.306 18.6506 267.334C22.2238 266.362 25.5449 264.63 28.3862 262.255C25.4427 264.121 22.1309 265.329 18.6775 265.796C15.224 266.264 11.7103 265.98 8.37659 264.964Z" fill="#000A0E"/>
<path d="M45.4736 238.045L43.2432 238.357C43.8203 241.039 42.8951 244.032 41.356 246.597C39.7488 249.216 37.6778 251.519 35.2445 253.395C37.9471 251.787 40.3333 249.698 42.2857 247.233C43.2891 245.959 44.103 244.547 44.7024 243.04C45.3353 241.455 45.599 239.747 45.4736 238.045Z" fill="#000A0E"/>
<path d="M61.7621 255.324L59.4018 253.468C57.0158 257.317 54.0246 260.756 50.5433 263.653C54.7061 261.498 58.4943 258.685 61.7621 255.324Z" fill="#000A0E"/>
<path d="M5.8921 288.917L4.8158 290.896C7.52725 291.955 10.4074 292.517 13.3182 292.555C10.6442 291.799 8.12846 290.567 5.8921 288.917Z" fill="#000A0E"/>
<path d="M72.7023 271.227L70.8526 269.942C69.4763 272.576 67.2813 274.692 64.5981 275.971C67.7418 275.308 70.5855 273.644 72.7023 271.227Z" fill="#000A0E"/>
<g style="mix-blend-mode:multiply" opacity="0.42">
<g style="mix-blend-mode:multiply" opacity="0.42">
<path d="M52.1598 242.635C54.8448 245.58 55.4461 250.006 54.4947 253.876C53.5433 257.745 51.2364 261.144 48.6735 264.196C51.0154 263.025 53.2167 261.592 55.235 259.923C57.2636 258.236 58.6709 255.919 59.2336 253.341C59.5536 250.93 58.9057 248.491 57.4316 246.557C55.9576 244.622 53.7773 243.35 51.368 243.02" fill="#3336B1"/>
</g>
</g>
<g style="mix-blend-mode:multiply" opacity="0.42">
<g style="mix-blend-mode:multiply" opacity="0.42">
<path d="M68.8408 260.499C69.3807 263.361 69.1615 266.314 68.205 269.065C67.2485 271.816 65.5881 274.268 63.3892 276.177C65.2044 275.884 66.9181 275.143 68.375 274.022C69.8319 272.9 70.9861 271.432 71.7332 269.752C73.0745 266.341 71.9456 261.96 68.8035 260.072" fill="#3336B1"/>
</g>
</g>
<g style="mix-blend-mode:multiply" opacity="0.42">
<g style="mix-blend-mode:multiply" opacity="0.42">
<path d="M40.1011 233.913C41.7151 237.186 41.4173 241.141 40.1286 244.556C38.6827 247.912 36.7859 251.055 34.4905 253.899C35.7134 252.71 36.9362 251.521 38.1591 250.331C40.4915 248.063 42.9193 245.638 43.7726 242.498C44.6259 239.359 43.1934 235.352 40.029 234.597" fill="#3336B1"/>
</g>
</g>
<g style="mix-blend-mode:multiply" opacity="0.42">
<g style="mix-blend-mode:multiply" opacity="0.42">
<path d="M14.9519 235.858C16.374 234.94 18.1901 234.974 19.8785 235.091C22.4742 235.145 25.0348 235.702 27.4186 236.731C28.6054 237.257 29.6481 238.061 30.4585 239.076C31.2689 240.09 31.8232 241.284 32.0745 242.558C32.5676 246.188 29.8018 249.42 26.9422 251.708C24.0826 253.997 20.7677 256.107 19.3895 259.5C19.2601 259.743 19.1832 260.011 19.1638 260.286C19.1444 260.561 19.1829 260.837 19.2769 261.096C19.4558 261.349 19.6889 261.56 19.9593 261.713C20.2298 261.866 20.5308 261.956 20.8405 261.978C23.0635 262.419 25.35 262.431 27.5774 262.014C24.2601 264.382 20.4339 265.941 16.4056 266.564C13.8213 266.961 10.7811 266.79 9.15595 264.742C7.39905 262.527 8.22695 259.13 10.0482 256.968C11.8694 254.806 14.452 253.461 16.6903 251.735C18.8157 250.094 20.6417 248.099 22.0877 245.837C22.717 245.04 23.0203 244.035 22.9363 243.024C22.7307 242.299 22.3216 241.648 21.7575 241.149C20.2431 239.589 18.4952 238.275 16.5765 237.252C15.4494 236.652 13.7525 236.311 13.1478 237.435" fill="#3336B1"/>
</g>
</g>
<g style="mix-blend-mode:multiply" opacity="0.42">
<g style="mix-blend-mode:multiply" opacity="0.42">
<path d="M24.7472 264.862C21.88 266.249 19.3183 268.194 17.212 270.583C15.933 271.873 14.798 273.299 13.827 274.834C12.7616 276.519 12.0886 278.421 11.8577 280.401C11.6268 282.381 11.8439 284.388 12.4931 286.272C13.9219 289.982 17.6806 292.83 21.6521 292.664C17.0564 293.712 12.2338 292.936 8.19828 290.501C6.83094 289.718 5.64922 288.648 4.73428 287.365C3.92056 286.351 3.24277 285.234 2.71808 284.044C0.834379 277.815 2.73678 270.348 8.01088 266.536C8.19896 266.382 8.41866 266.27 8.65448 266.21C9.02127 266.184 9.3879 266.262 9.71238 266.435C14.4864 268.345 19.8577 266.58 24.6875 264.817" fill="#3336B1"/>
</g>
</g>
<g style="mix-blend-mode:multiply" opacity="0.42">
<g style="mix-blend-mode:multiply" opacity="0.42">
<path d="M13.9595 292.899C11.2966 294.563 10.7603 298.637 12.582 301.195C13.5609 302.429 14.8963 303.332 16.4066 303.781C17.9169 304.23 19.5288 304.202 21.023 303.703C22.5022 303.163 23.8439 302.304 24.9523 301.185C26.0607 300.067 26.9083 298.718 27.4347 297.234C27.151 301.652 33.0536 304.478 37.0616 302.598C41.0696 300.717 42.9773 295.981 43.2258 291.56C44.2401 296.874 50.098 299.827 55.4636 300.518C62.1918 301.385 69.6769 299.625 73.9287 294.339C70.4908 298.571 66.7134 302.661 61.9863 305.378C57.2592 308.095 51.4188 309.297 46.2714 307.5C44.0529 309.742 41.1668 311.203 38.0468 311.664C34.9268 312.125 31.7413 311.562 28.9691 310.058C28.3331 309.617 27.6246 309.292 26.8761 309.097C25.9179 309.041 24.959 309.194 24.0662 309.547C21.5129 310.218 18.8252 310.183 16.2904 309.445C13.7555 308.707 11.4687 307.295 9.67426 305.358C7.93297 303.374 6.76354 300.954 6.29092 298.357C5.81831 295.759 6.06027 293.082 6.99096 290.612C9.14186 291.187 11.2928 291.762 13.4438 292.337" fill="#3336B1"/>
</g>
</g>
<path d="M46.0089 278.332C46.3242 279.231 46.4592 280.183 46.406 281.134C46.3529 282.085 46.1126 283.016 45.6991 283.874C45.2856 284.732 44.7069 285.5 43.9962 286.134C43.2855 286.768 42.4567 287.255 41.5573 287.569C40.6578 287.882 39.7054 288.015 38.7546 287.959C37.8038 287.904 36.8732 287.662 36.0162 287.246C35.1592 286.831 34.3925 286.25 33.7601 285.538C33.1277 284.826 32.642 283.996 32.3308 283.096" stroke="black" stroke-width="2.27199" stroke-miterlimit="10"/>
<path d="M28.3021 283.084C28.3681 283.867 28.2004 284.653 27.82 285.341C27.4395 286.029 26.8636 286.589 26.1649 286.95C25.4662 287.311 24.6762 287.457 23.8948 287.369C23.1134 287.281 22.3756 286.963 21.7748 286.455C21.174 285.948 20.7371 285.274 20.5195 284.518C20.3018 283.763 20.3131 282.959 20.552 282.21C20.7908 281.461 21.2465 280.799 21.8613 280.309C22.4762 279.819 23.2226 279.522 24.0062 279.456C24.5265 279.412 25.0503 279.471 25.5478 279.63C26.0452 279.788 26.5066 280.043 26.9055 280.38C27.3044 280.717 27.6331 281.129 27.8727 281.593C28.1123 282.057 28.2582 282.563 28.3021 283.084Z" fill="black"/>
<path d="M24.2208 282.003C24.2444 282.283 24.1845 282.563 24.0487 282.809C23.9128 283.055 23.7071 283.255 23.4576 283.384C23.2081 283.513 22.9259 283.565 22.6468 283.533C22.3678 283.502 22.1043 283.388 21.8897 283.207C21.6751 283.026 21.5191 282.785 21.4413 282.515C21.3636 282.245 21.3676 281.958 21.4529 281.691C21.5383 281.423 21.701 281.187 21.9206 281.012C22.1402 280.837 22.4068 280.731 22.6866 280.707C23.0619 280.676 23.4343 280.794 23.722 281.037C24.0098 281.28 24.1892 281.628 24.2208 282.003Z" fill="white"/>
<path d="M55.7221 273.647C55.7882 274.431 55.6204 275.216 55.24 275.904C54.8595 276.593 54.2836 277.153 53.5849 277.513C52.8862 277.874 52.0962 278.02 51.3148 277.932C50.5333 277.844 49.7956 277.526 49.1948 277.019C48.594 276.511 48.1572 275.837 47.9395 275.081C47.7219 274.326 47.7332 273.522 47.972 272.773C48.2109 272.024 48.6665 271.362 49.2814 270.872C49.8962 270.382 50.6426 270.085 51.4262 270.019C51.9465 269.975 52.4704 270.034 52.9678 270.193C53.4653 270.351 53.9267 270.606 54.3256 270.943C54.7245 271.28 55.0531 271.692 55.2928 272.156C55.5324 272.62 55.6783 273.127 55.7221 273.647Z" fill="black"/>
<path d="M53.7514 272.246C53.775 272.525 53.715 272.806 53.5792 273.052C53.4433 273.298 53.2376 273.498 52.9881 273.626C52.7386 273.755 52.4564 273.807 52.1773 273.776C51.8983 273.744 51.6348 273.631 51.4202 273.45C51.2056 273.268 51.0496 273.028 50.9719 272.758C50.8941 272.488 50.8982 272.201 50.9835 271.934C51.0687 271.666 51.2315 271.43 51.4511 271.255C51.6706 271.079 51.9372 270.973 52.2171 270.95C52.4029 270.934 52.59 270.955 52.7677 271.012C52.9453 271.068 53.1101 271.16 53.2526 271.28C53.3951 271.4 53.5124 271.547 53.598 271.713C53.6836 271.879 53.7357 272.06 53.7514 272.246Z" fill="white"/>
<path d="M62.6704 279.249C63.631 278.11 63.4863 276.408 62.3472 275.448C61.2081 274.487 59.5059 274.632 58.5453 275.771C57.5847 276.91 57.7295 278.612 58.8686 279.573C60.0077 280.533 61.7098 280.388 62.6704 279.249Z" fill="#FFA8A9"/>
<path d="M22.8857 291.521C22.9306 292.052 22.8167 292.585 22.5586 293.052C22.3004 293.519 21.9096 293.899 21.4355 294.144C20.9614 294.389 20.4253 294.488 19.8951 294.428C19.3648 294.368 18.8642 294.153 18.4565 293.808C18.0488 293.464 17.7524 293.007 17.6047 292.494C17.457 291.981 17.4646 291.436 17.6267 290.928C17.7888 290.419 18.098 289.97 18.5152 289.638C18.9324 289.305 19.4389 289.104 19.9706 289.059C20.6837 288.999 21.3913 289.224 21.938 289.686C22.4847 290.148 22.8256 290.808 22.8857 291.521Z" fill="#FFA8A9"/>
</g>
<defs>
<clipPath id="clip0">
<rect width="288.538" height="378.908" fill="white"/>
</clipPath>
</defs>
</svg>
