<svg width="290" height="423" viewBox="0 0 290 423" fill="none" xmlns="http://www.w3.org/2000/svg">
<path d="M100.938 362.638C96.3057 362.637 92.0962 360.735 88.4258 356.986C68.3467 336.475 69.587 265.944 69.6495 262.952L69.6851 261.238L108.72 268.673L131.766 298.2L131.798 298.636C131.915 300.18 134.484 336.651 119.491 353.891C117.335 356.461 114.674 358.561 111.673 360.06C108.672 361.559 105.395 362.424 102.045 362.603C101.672 362.626 101.309 362.638 100.944 362.638L100.938 362.638Z" fill="black"/>
<path d="M71.098 262.982L107.914 269.994L130.354 298.746C130.354 298.746 134.912 359.053 101.953 361.157C101.609 361.179 101.274 361.19 100.938 361.19C69.0434 361.19 71.098 262.982 71.098 262.982ZM68.2722 259.494L68.2005 262.921C68.1374 265.939 66.8901 337.07 87.3918 358.005C91.3445 362.041 95.902 364.088 100.938 364.088C101.339 364.088 101.731 364.075 102.138 364.049C105.679 363.861 109.144 362.946 112.318 361.363C115.491 359.779 118.305 357.559 120.584 354.842C135.97 337.15 133.362 300.096 133.243 298.527L133.177 297.653L132.638 296.963L110.198 268.211L109.527 267.352L108.456 267.148L71.6403 260.135L68.2723 259.494L68.2722 259.494Z" fill="black"/>
<path d="M155.708 362.812C154.277 362.869 152.849 362.638 151.509 362.132C142.13 358.006 145.145 329.859 147.373 323.263L153.435 307.314L181.083 277.151L207.618 268.433L207.872 270.13C213.7 309.038 202.692 331.403 192.432 343.313C179.145 358.736 162.604 362.812 155.711 362.812L155.708 362.812Z" fill="black"/>
<path d="M206.439 270.345C217.252 342.538 170.951 361.363 155.708 361.363C154.478 361.415 153.25 361.226 152.092 360.806C143.327 356.949 151.248 320.887 151.248 320.887L154.897 307.862L181.895 278.409L206.439 270.345ZM208.797 266.52L205.535 267.592L180.991 275.656L180.271 275.893L179.759 276.451L152.761 305.904L151.971 306.765L152 307.934L148.338 320.451C146.416 326.316 144.816 332.282 143.543 338.322C140.653 352.502 145.728 361.172 150.925 363.459C152.449 364.047 154.076 364.32 155.708 364.261C162.83 364.261 179.901 360.079 193.532 344.254C203.989 332.114 215.214 309.363 209.305 269.916L208.797 266.52Z" fill="black"/>
<path d="M140.527 331.052C95.4829 331.052 69.6485 307.138 69.6485 265.443C69.6355 259.154 70.492 252.893 72.1934 246.838L72.3726 246.206L72.9668 245.923C85.0376 240.204 104.95 233.385 131.265 233.385C155.237 233.385 180.399 238.993 206.051 250.052L206.759 250.358L206.901 251.115C207.217 252.786 207.484 254.491 207.695 256.183C208.061 259.256 208.245 262.348 208.247 265.443C208.247 287.697 201.587 304.694 188.451 315.962C176.823 325.975 160.699 331.052 140.527 331.052Z" fill="white"/>
<path d="M131.266 234.834C152.125 234.834 177.01 239.109 205.477 251.383C205.787 253.023 206.047 254.683 206.257 256.363C206.616 259.376 206.796 262.408 206.797 265.443C206.797 288.303 199.607 304.483 187.507 314.863C175.777 324.963 159.417 329.603 140.527 329.603C102.187 329.603 71.0974 311.543 71.0974 265.443C71.0831 259.287 71.921 253.159 73.5874 247.233C86.2249 241.245 105.728 234.835 131.266 234.834ZM131.269 231.936V234.834L131.268 231.936C104.68 231.937 84.5508 238.831 72.3464 244.614L71.1576 245.178L70.7991 246.443C69.0613 252.627 68.1865 259.02 68.1994 265.443C68.1994 288.074 75.3996 305.439 89.6001 317.054C101.955 327.159 115.911 337.263 136.873 337.263C157.401 337.263 177.498 327.306 189.398 317.059C202.865 305.507 209.696 288.139 209.696 265.443C209.694 262.294 209.507 259.148 209.135 256.022C208.917 254.272 208.645 252.536 208.325 250.845L208.039 249.331L206.625 248.722C180.791 237.584 155.438 231.936 131.269 231.936Z" fill="black"/>
<path opacity="0.53" d="M206.797 265.443C206.797 288.303 199.607 304.483 187.507 314.863C186.947 305.813 182.147 297.163 175.237 291.193C167.477 284.473 157.327 280.923 147.127 279.813C157.317 278.863 173.787 277.176 183.727 279.596C172.597 267.516 150.527 262.443 134.127 261.523C150.057 259.293 166.237 261.173 182.207 263.053C172.012 256.019 160.159 251.766 147.817 250.713C155.687 250.003 163.595 249.833 171.487 250.203C178.577 250.534 185.639 251.292 192.637 252.473C197.167 253.243 202.387 253.673 206.257 256.363C206.616 259.376 206.796 262.408 206.797 265.443Z" fill="#D6D6D6"/>
<path d="M204.904 252.718C179.617 241.813 154.841 236.284 131.264 236.284C105.493 236.284 86.0103 242.95 74.2041 248.541L71.3252 249.905L72.1895 246.838C80.4692 217.46 107.932 197.722 140.525 197.722C174.09 197.722 200.765 219.178 206.901 251.114L207.418 253.801L204.904 252.718Z" fill="black"/>
<path d="M140.525 199.172C174.006 199.172 199.535 220.462 205.479 251.387C177.013 239.112 152.122 234.835 131.264 234.834C105.722 234.834 86.2242 241.245 73.584 247.232C81.6623 218.568 108.569 199.172 140.525 199.172H140.525ZM140.525 196.274C107.275 196.274 79.2523 216.436 70.7946 246.446L69.0662 252.578L74.8245 249.851C86.4961 244.323 105.761 237.732 131.258 237.732C154.644 237.733 179.228 243.223 204.331 254.048L209.358 256.216L208.325 250.84C205.542 235.364 197.326 221.389 185.156 211.433C172.948 201.516 157.515 196.274 140.525 196.274V196.274Z" fill="black"/>
<path d="M75.3696 245.109C73.9277 243.765 40.0654 212.011 41.1513 195.583C41.2019 194.187 41.5773 192.822 42.2477 191.596C42.918 190.37 43.8649 189.317 45.0131 188.52C47.6998 186.735 50.88 185.84 54.1034 185.962C73.4394 185.962 104.676 209.973 105.996 210.996L106.332 211.255L106.475 211.657C110.595 223.272 80.579 243.049 77.143 245.266L76.1948 245.877L75.3696 245.109Z" fill="black"/>
<path d="M54.1036 187.412C73.1663 187.412 105.109 212.141 105.109 212.141C108.966 223.011 76.3574 244.048 76.3574 244.048C76.3574 244.048 30.0749 200.921 45.8531 189.701C48.2954 188.092 51.1814 187.291 54.1036 187.412ZM54.1036 184.513C50.5788 184.389 47.1044 185.377 44.1736 187.34C42.8543 188.265 41.7652 189.48 40.9905 190.893C40.2157 192.306 39.7761 193.878 39.7054 195.488C39.2174 202.871 44.9934 213.713 56.8728 227.712C62.3821 234.167 68.2264 240.327 74.3818 246.168L76.0325 247.707L77.9285 246.483C83.5547 242.781 88.9464 238.734 94.0726 234.365C105.405 224.587 109.908 217.001 107.84 211.172L107.555 210.37L106.883 209.85C105.547 208.815 73.9291 184.513 54.1036 184.513Z" fill="black"/>
<path d="M42.4277 188.888C42.4277 188.888 34.5111 195.971 46.6777 213.805C61.1777 224.971 79.8524 201.638 74.1024 194.388C68.3524 187.138 68.0527 185.888 57.3027 184.763C46.5527 183.638 42.4277 188.888 42.4277 188.888Z" fill="#0E0E0E"/>
<path d="M81.7175 225.773C77.3443 230.909 73.421 237.069 72.3747 243.847C72.2532 244.634 73.4575 244.973 73.58 244.179C74.594 237.611 78.3599 231.638 82.6014 226.657C83.1201 226.048 82.24 225.16 81.7175 225.773Z" fill="black"/>
<path d="M78.6701 226.206C79.5061 225.291 80.3421 224.377 81.1782 223.463C81.2954 223.346 81.3613 223.187 81.3613 223.021C81.3613 222.855 81.2954 222.696 81.1782 222.579C81.061 222.462 80.902 222.396 80.7363 222.396C80.5705 222.396 80.4115 222.462 80.2943 222.579C79.4582 223.493 78.6222 224.407 77.7862 225.322C77.669 225.439 77.6032 225.598 77.6031 225.764C77.6031 225.929 77.669 226.088 77.7862 226.206C77.9034 226.323 78.0624 226.389 78.2281 226.389C78.3939 226.389 78.5529 226.323 78.6701 226.206Z" fill="black"/>
<path d="M45.5674 198.663C45.1916 198.933 44.7242 199.044 44.2671 198.971C43.81 198.898 43.4003 198.647 43.1274 198.273C43.0578 198.172 42.9976 198.065 42.9474 197.953C42.7689 197.558 42.7434 197.111 42.876 196.699C43.0086 196.286 43.2898 195.938 43.6649 195.721C44.0401 195.504 44.4824 195.434 44.906 195.525C45.3297 195.616 45.7044 195.861 45.9574 196.213C46.0965 196.398 46.1969 196.609 46.2526 196.834C46.3084 197.059 46.3184 197.292 46.282 197.521C46.2456 197.749 46.1636 197.968 46.0408 198.164C45.9181 198.361 45.7571 198.53 45.5674 198.663Z" fill="#FFA8A9"/>
<path d="M45.0026 196.107C45.1217 196.399 44.7756 196.405 44.2982 196.6C43.8208 196.794 43.3927 197.104 43.2736 196.811C43.1545 196.519 43.445 196.124 43.9225 195.93C44.4 195.735 44.8835 195.815 45.0026 196.107Z" fill="white"/>
<path d="M45.5674 198.663C45.1916 198.933 44.7241 199.044 44.267 198.971C43.8099 198.898 43.4003 198.647 43.1274 198.273C43.0578 198.172 42.9975 198.065 42.9474 197.953C43.4074 197.913 44.2574 198.143 44.6774 198.053C45.0427 197.966 45.373 197.771 45.6247 197.492C45.8765 197.214 46.0378 196.865 46.0874 196.493C46.1374 196.573 46.1774 196.653 46.2274 196.743C46.3277 197.092 46.3182 197.464 46.2001 197.807C46.082 198.151 45.8611 198.449 45.5674 198.663Z" fill="#C97374"/>
<path d="M48.8974 192.343C48.6176 192.546 48.2839 192.661 47.9386 192.674C47.5933 192.687 47.2518 192.597 46.9574 192.416C46.663 192.235 46.4289 191.971 46.2847 191.657C46.1405 191.343 46.0926 190.993 46.1471 190.652C46.2017 190.311 46.3562 189.994 46.5911 189.74C46.8261 189.487 47.1309 189.309 47.467 189.228C47.8031 189.148 48.1555 189.17 48.4795 189.29C48.8036 189.41 49.0847 189.623 49.2874 189.903C49.3535 189.99 49.4104 190.084 49.4574 190.183C49.632 190.552 49.6715 190.97 49.5692 191.365C49.4668 191.759 49.2291 192.106 48.8974 192.343Z" fill="#FFA8A9"/>
<path d="M48.5343 189.881C48.6078 190.187 48.2648 190.141 47.7635 190.261C47.2622 190.381 46.7921 190.622 46.7186 190.315C46.6451 190.008 46.9921 189.662 47.4935 189.542C47.9949 189.422 48.4609 189.574 48.5343 189.881Z" fill="white"/>
<path d="M48.8974 192.343C48.6808 192.5 48.431 192.606 48.1673 192.652C47.9035 192.697 47.6327 192.682 47.3758 192.606C47.1189 192.531 46.8827 192.398 46.6853 192.217C46.488 192.036 46.3348 191.812 46.2374 191.563C46.7092 191.647 47.1886 191.68 47.6674 191.663C48.0566 191.564 48.419 191.38 48.7286 191.124C49.0381 190.868 49.287 190.547 49.4574 190.183C49.632 190.552 49.6715 190.97 49.5692 191.365C49.4668 191.759 49.2291 192.106 48.8974 192.343Z" fill="#C97374"/>
<path d="M56.4674 188.123C56.4669 188.353 56.4209 188.582 56.3322 188.794C56.2434 189.007 56.1136 189.2 55.9501 189.363C55.7867 189.525 55.5928 189.654 55.3796 189.742C55.1663 189.829 54.9379 189.874 54.7074 189.873C54.264 189.875 53.8365 189.708 53.5128 189.405C53.1892 189.101 52.994 188.686 52.9674 188.243C52.9591 188.204 52.9558 188.163 52.9574 188.123C52.9579 187.713 53.1019 187.317 53.3644 187.002C53.6269 186.688 53.9913 186.475 54.3943 186.402C54.7973 186.328 55.2133 186.398 55.5701 186.599C55.927 186.8 56.202 187.12 56.3474 187.503C56.4284 187.7 56.4692 187.91 56.4674 188.123Z" fill="#FFA8A9"/>
<path d="M55.4237 187.14C55.4542 187.454 55.121 187.361 54.6079 187.411C54.0948 187.461 53.5961 187.635 53.5655 187.321C53.5349 187.007 53.9262 186.712 54.4393 186.662C54.9524 186.612 55.3932 186.826 55.4237 187.14Z" fill="white"/>
<path d="M56.4674 188.123C56.4669 188.353 56.4209 188.582 56.3321 188.794C56.2434 189.007 56.1136 189.2 55.9501 189.363C55.7866 189.525 55.5928 189.654 55.3795 189.742C55.1663 189.829 54.9379 189.874 54.7074 189.873C54.2639 189.875 53.8364 189.708 53.5128 189.405C53.1891 189.101 52.994 188.686 52.9674 188.243C53.1774 188.323 53.3974 188.443 53.5174 188.473C53.9259 188.597 54.3589 188.618 54.7774 188.533C55.4142 188.406 55.9769 188.036 56.3474 187.503C56.4284 187.7 56.4692 187.91 56.4674 188.123Z" fill="#C97374"/>
<path d="M64.6074 200.223C64.6074 202.337 63.7677 204.364 62.273 205.859C60.7783 207.353 58.7511 208.193 56.6374 208.193C54.5236 208.193 52.4964 207.353 51.0017 205.859C49.5071 204.364 48.6674 202.337 48.6674 200.223C48.6657 199.942 48.6791 199.662 48.7074 199.383C48.9129 197.423 49.8371 195.609 51.3015 194.29C52.7659 192.972 54.6668 192.243 56.6374 192.243C58.75 192.252 60.7733 193.096 62.2663 194.591C63.7592 196.086 64.6007 198.11 64.6074 200.223Z" fill="#FFA8A9"/>
<path d="M64.6074 200.223C64.6074 202.337 63.7677 204.364 62.273 205.859C60.7783 207.353 58.7511 208.193 56.6374 208.193C54.5236 208.193 52.4964 207.353 51.0017 205.859C49.5071 204.364 48.6674 202.337 48.6674 200.223C48.6657 199.943 48.6791 199.662 48.7074 199.383C48.8474 199.493 48.9974 199.613 49.1474 199.753C50.4002 200.823 51.9806 201.433 53.6274 201.483C55.8495 201.705 58.0777 201.123 59.9074 199.843C60.713 199.25 61.3568 198.464 61.7796 197.557C62.2025 196.65 62.3908 195.652 62.3274 194.653C63.7954 196.134 64.6155 198.138 64.6074 200.223Z" fill="#EB8687"/>
<path d="M58.8946 194.589C58.9947 195.62 57.9014 195.313 56.2179 195.477C54.5344 195.641 52.8985 196.212 52.7983 195.181C52.6981 194.151 53.9817 193.183 55.6651 193.019C57.3485 192.855 58.7944 193.558 58.8946 194.589Z" fill="white"/>
<path d="M200.237 245.266C196.801 243.049 166.784 223.272 170.906 211.657L171.048 211.255L171.385 210.996C172.705 209.973 203.941 185.962 223.277 185.962C226.501 185.84 229.681 186.735 232.367 188.52C233.515 189.317 234.462 190.37 235.132 191.595C235.802 192.821 236.178 194.187 236.228 195.583C237.314 212.011 203.452 243.765 202.011 245.109L201.184 245.877L200.237 245.266Z" fill="black"/>
<path d="M223.277 187.412C226.199 187.291 229.085 188.092 231.527 189.701C247.305 200.921 201.023 244.048 201.023 244.048C201.023 244.048 168.414 223.011 172.271 212.141C172.271 212.141 204.214 187.413 223.277 187.412ZM223.278 184.513H223.276C203.451 184.515 171.834 208.815 170.497 209.85L169.825 210.37L169.54 211.172C167.472 217.001 171.975 224.587 183.307 234.365C188.434 238.734 193.825 242.781 199.451 246.483L201.347 247.707L202.998 246.168C209.154 240.327 214.998 234.167 220.507 227.712C232.387 213.713 238.163 202.871 237.675 195.488C237.604 193.878 237.164 192.306 236.39 190.893C235.615 189.48 234.526 188.265 233.206 187.34C230.276 185.378 226.802 184.389 223.278 184.513Z" fill="black"/>
<path d="M235.227 189.013C235.227 189.013 243.144 196.096 230.977 213.93C216.477 225.096 199.811 202.346 205.561 195.096C211.311 187.846 209.602 186.013 220.352 184.888C231.102 183.763 235.227 189.013 235.227 189.013Z" fill="#0E0E0E"/>
<path d="M233.08 198.246C233.455 198.517 233.923 198.627 234.38 198.554C234.837 198.481 235.247 198.23 235.52 197.856C235.589 197.755 235.649 197.648 235.7 197.536C235.878 197.141 235.904 196.694 235.771 196.282C235.638 195.869 235.357 195.521 234.982 195.304C234.607 195.087 234.165 195.017 233.741 195.108C233.317 195.199 232.943 195.445 232.69 195.796C232.551 195.981 232.45 196.192 232.394 196.417C232.339 196.642 232.329 196.875 232.365 197.104C232.401 197.333 232.483 197.552 232.606 197.748C232.729 197.944 232.89 198.114 233.08 198.246Z" fill="#FFA8A9"/>
<path d="M233.644 195.69C233.525 195.982 233.871 195.988 234.349 196.183C234.826 196.377 235.254 196.687 235.373 196.395C235.493 196.102 235.202 195.708 234.725 195.513C234.247 195.319 233.764 195.398 233.644 195.69Z" fill="white"/>
<path d="M233.08 198.246C233.456 198.517 233.923 198.627 234.38 198.554C234.837 198.481 235.247 198.23 235.52 197.856C235.589 197.755 235.65 197.648 235.7 197.536C235.24 197.496 234.39 197.726 233.97 197.636C233.604 197.549 233.274 197.354 233.022 197.075C232.771 196.797 232.609 196.448 232.56 196.076C232.51 196.156 232.47 196.236 232.42 196.326C232.319 196.675 232.329 197.047 232.447 197.39C232.565 197.734 232.786 198.033 233.08 198.246Z" fill="#C97374"/>
<path d="M229.75 191.926C230.03 192.129 230.363 192.244 230.709 192.257C231.054 192.27 231.395 192.181 231.69 192C231.984 191.819 232.218 191.554 232.362 191.24C232.507 190.926 232.554 190.577 232.5 190.235C232.445 189.894 232.291 189.577 232.056 189.323C231.821 189.07 231.516 188.892 231.18 188.812C230.844 188.732 230.492 188.753 230.168 188.873C229.843 188.993 229.562 189.206 229.36 189.486C229.294 189.574 229.237 189.667 229.19 189.766C229.015 190.135 228.976 190.553 229.078 190.948C229.18 191.343 229.418 191.689 229.75 191.926Z" fill="#FFA8A9"/>
<path d="M230.113 189.464C230.039 189.771 230.382 189.724 230.884 189.844C231.385 189.964 231.855 190.205 231.928 189.898C232.002 189.591 231.655 189.245 231.153 189.125C230.652 189.005 230.186 189.157 230.113 189.464Z" fill="white"/>
<path d="M229.75 191.926C229.966 192.084 230.216 192.189 230.48 192.235C230.744 192.281 231.014 192.265 231.271 192.19C231.528 192.115 231.764 191.981 231.962 191.8C232.159 191.619 232.312 191.396 232.41 191.146C231.938 191.23 231.458 191.264 230.98 191.246C230.59 191.147 230.228 190.963 229.919 190.707C229.609 190.451 229.36 190.13 229.19 189.766C229.015 190.135 228.976 190.553 229.078 190.948C229.18 191.343 229.418 191.689 229.75 191.926Z" fill="#C97374"/>
<path d="M222.179 187.706C222.18 187.937 222.226 188.165 222.315 188.378C222.404 188.59 222.533 188.784 222.697 188.946C222.86 189.109 223.054 189.237 223.267 189.325C223.481 189.412 223.709 189.457 223.94 189.456C224.383 189.459 224.811 189.291 225.134 188.988C225.458 188.685 225.653 188.269 225.679 187.826C225.688 187.787 225.691 187.747 225.69 187.706C225.689 187.297 225.545 186.9 225.283 186.586C225.02 186.271 224.656 186.059 224.253 185.985C223.85 185.911 223.434 185.981 223.077 186.182C222.72 186.383 222.445 186.703 222.299 187.086C222.219 187.283 222.178 187.494 222.179 187.706Z" fill="#FFA8A9"/>
<path d="M223.223 186.724C223.193 187.038 223.526 186.944 224.039 186.994C224.552 187.044 225.051 187.218 225.082 186.904C225.112 186.59 224.721 186.295 224.208 186.245C223.695 186.195 223.254 186.41 223.223 186.724Z" fill="white"/>
<path d="M222.179 187.706C222.18 187.937 222.226 188.165 222.315 188.378C222.404 188.59 222.533 188.784 222.697 188.946C222.86 189.109 223.054 189.237 223.267 189.325C223.481 189.412 223.709 189.457 223.94 189.456C224.383 189.459 224.811 189.291 225.134 188.988C225.458 188.685 225.653 188.269 225.679 187.826C225.469 187.906 225.25 188.026 225.13 188.056C224.721 188.181 224.288 188.201 223.869 188.116C223.233 187.989 222.67 187.62 222.299 187.086C222.219 187.283 222.178 187.494 222.179 187.706Z" fill="#C97374"/>
<path d="M214.04 199.806C214.041 201.383 214.51 202.923 215.387 204.233C216.264 205.543 217.51 206.564 218.967 207.166C220.424 207.768 222.026 207.924 223.572 207.616C225.118 207.307 226.538 206.547 227.652 205.432C228.766 204.316 229.524 202.896 229.831 201.349C230.138 199.803 229.979 198.201 229.375 196.744C228.771 195.288 227.749 194.044 226.438 193.168C225.127 192.293 223.586 191.826 222.01 191.826C219.897 191.836 217.874 192.68 216.381 194.174C214.888 195.669 214.046 197.694 214.04 199.806Z" fill="#FFA8A9"/>
<path d="M214.04 199.806C214.045 200.885 214.27 201.951 214.7 202.94C215.129 203.929 215.756 204.821 216.54 205.561C217.324 206.301 218.251 206.874 219.263 207.246C220.276 207.618 221.353 207.78 222.43 207.723C223.507 207.666 224.561 207.391 225.529 206.915C226.497 206.439 227.358 205.771 228.06 204.952C228.762 204.134 229.29 203.181 229.613 202.152C229.937 201.123 230.048 200.039 229.94 198.966C229.8 199.076 229.65 199.196 229.5 199.336C228.247 200.406 226.666 201.017 225.02 201.066C222.797 201.288 220.569 200.707 218.74 199.426C217.934 198.833 217.29 198.047 216.867 197.14C216.445 196.233 216.256 195.235 216.32 194.236C214.852 195.717 214.032 197.721 214.04 199.806Z" fill="#EB8687"/>
<path d="M219.752 194.172C219.652 195.203 220.746 194.897 222.429 195.06C224.113 195.224 225.749 195.796 225.849 194.765C225.949 193.734 224.665 192.766 222.982 192.602C221.298 192.439 219.853 193.142 219.752 194.172Z" fill="white"/>
<path d="M197.148 221.575C199.148 222.786 200.888 224.383 202.266 226.272C202.353 226.411 202.49 226.512 202.649 226.554C202.808 226.596 202.977 226.575 203.122 226.496C203.264 226.411 203.367 226.274 203.409 226.114C203.451 225.954 203.428 225.784 203.346 225.641C201.851 223.573 199.958 221.824 197.779 220.496C197.636 220.419 197.469 220.401 197.313 220.444C197.157 220.488 197.024 220.591 196.942 220.731C196.86 220.871 196.836 221.037 196.875 221.195C196.913 221.352 197.011 221.489 197.148 221.575Z" fill="black"/>
<path d="M197.841 226.657C201.677 231.214 204.138 236.768 204.938 242.671C205.057 243.464 206.261 243.127 206.143 242.338C205.291 236.225 202.718 230.48 198.725 225.773C198.204 225.159 197.323 226.047 197.841 226.657Z" fill="black"/>
<path opacity="0.53" d="M180.561 206.43C185.671 206.528 191.189 207.679 198.467 203.463C195.97 205.873 193.232 208.021 190.297 209.873L190.147 209.963C187.147 209.853 183.321 207.62 180.561 206.43Z" fill="#D6D6D6"/>
<path d="M65.1831 146.33C63.0138 146.317 60.8552 146.026 58.7597 145.465C45.2246 141.922 35.9716 125.033 39.7197 110.713C42.8276 98.8408 51.7671 91.1699 62.4946 91.1699C66.162 91.2172 69.7808 92.0146 73.1284 93.5131C85.3974 98.8007 90.7929 111.891 86.8735 126.862C83.6826 139.052 75.5742 146.33 65.1831 146.33Z" fill="black"/>
<path d="M62.4949 92.6187C65.965 92.6645 69.3889 93.4217 72.5547 94.8435C85.0918 100.247 88.9291 113.288 85.4719 126.495C82.5679 137.588 75.2711 144.881 65.1836 144.881C63.138 144.869 61.1023 144.594 59.1266 144.063C45.9198 140.606 37.6644 124.287 41.1215 111.08C43.8016 100.842 51.703 92.6193 62.4949 92.6187ZM62.4962 89.7207H62.4948C51.0876 89.7213 41.5976 97.8172 38.318 110.346C36.5242 117.876 37.5932 125.804 41.3173 132.59C45.1747 139.832 51.3985 145.036 58.3928 146.867C60.6083 147.459 62.8904 147.766 65.1837 147.779C76.2746 147.779 84.9071 140.097 88.2755 127.229C92.3861 111.526 86.6655 97.7693 73.7017 92.1821C70.1737 90.6054 66.3602 89.7677 62.4962 89.7206L62.4962 89.7207Z" fill="black"/>
<path d="M50.2448 113.657C52.508 105.011 58.8456 99.8925 67.4913 102.156C76.137 104.419 81.5414 115.102 79.2782 123.748C77.015 132.394 69.0652 138.844 58.7009 134.377C50.4936 130.84 47.9816 122.302 50.2448 113.657Z" fill="#FFA8A9"/>
<path d="M58.4745 117.022C61.0899 109.199 67.3602 104.914 75.404 107.603C83.4478 110.292 87.9643 120.528 85.3488 128.352C82.7333 136.176 75.219 141.255 65.6731 136.412C58.1139 132.578 55.859 124.846 58.4745 117.022Z" fill="#EB8687"/>
<path d="M65.7107 95.127C66.2289 97.3691 62.8484 96.6439 58.7275 97.5963C54.6066 98.5487 51.3057 100.818 50.7875 98.5762C50.2693 96.3341 53.1899 93.7444 57.3108 92.7919C61.4317 91.8394 65.1925 92.8849 65.7107 95.127Z" fill="#F6CFFF"/>
<path d="M211.335 141.597C200.608 141.596 191.668 133.925 188.561 122.054C184.812 107.733 194.065 90.8441 207.6 87.3012C209.696 86.7402 211.855 86.4496 214.025 86.4364C224.414 86.4364 232.523 93.7138 235.714 105.904C239.633 120.875 234.237 133.966 221.968 139.253C218.621 140.751 215.003 141.549 211.337 141.597H211.335Z" fill="black"/>
<path d="M214.024 87.8852C224.111 87.8852 231.408 95.1777 234.312 106.271C237.769 119.478 233.932 132.519 221.395 137.923C218.229 139.344 214.805 140.102 211.335 140.147C200.543 140.147 192.642 131.924 189.962 121.686C186.504 108.479 194.76 92.16 207.967 88.7028C209.943 88.1722 211.978 87.8974 214.024 87.8852H214.024ZM214.024 84.9872C211.731 85.0004 209.448 85.3069 207.233 85.8992C200.239 87.7301 194.015 92.9338 190.157 100.176C186.433 106.962 185.364 114.89 187.158 122.42C190.438 134.95 199.928 143.046 211.335 143.046C215.2 142.998 219.013 142.161 222.542 140.584C235.506 134.997 241.226 121.24 237.116 105.537C233.747 92.6694 225.115 84.9872 214.024 84.9872L214.024 84.9872Z" fill="black"/>
<path d="M226.668 108.99C224.405 100.344 218.068 95.2258 209.422 97.489C200.776 99.7522 195.372 110.435 197.635 119.081C199.898 127.727 207.848 134.177 218.212 129.71C226.42 126.173 228.932 117.636 226.668 108.99Z" fill="#FFA8A9"/>
<path d="M218.536 113.486C216.349 105.131 210.068 100.226 201.422 102.489C192.776 104.752 187.296 115.144 189.483 123.498C191.67 131.853 199.549 138.035 209.928 133.623C218.147 130.13 220.724 121.84 218.536 113.486Z" fill="#EB8687"/>
<path d="M224.567 92.9422C224.208 95.2151 221.345 93.2761 217.167 92.6151C212.99 91.9541 209.079 92.8214 209.439 90.5485C209.798 88.2756 213.477 86.9689 217.654 87.6299C221.832 88.2909 224.927 90.6693 224.567 92.9422Z" fill="#F6CFFF"/>
<path d="M140.348 223.271C117.24 223.271 99.189 218.709 86.6958 209.714C71.7808 198.975 64.2183 181.637 64.2183 158.181C64.2183 142.268 66.7554 128.357 71.7583 116.834C77.039 104.153 86.3759 93.5814 98.3071 86.7739C99.7168 85.9682 101.199 85.1948 102.714 84.4731C113.432 79.3701 126.094 76.7822 140.348 76.7822C143.207 76.7822 145.992 76.9023 148.626 77.1382C149.153 77.185 149.59 77.2241 150.017 77.271C150.633 77.3306 151.268 77.3926 151.903 77.4746C152.269 77.5176 152.649 77.5708 153.037 77.6255L153.188 77.6465C154.357 77.8003 155.527 77.9863 156.654 78.1973L156.75 78.2139C157.242 78.3008 157.742 78.3892 158.233 78.4951C158.793 78.604 159.304 78.7041 159.796 78.8223C160.167 78.896 160.594 78.9917 161.008 79.0981C161.661 79.2412 162.363 79.4165 163.054 79.602C163.4 79.6909 163.763 79.7842 164.125 79.8877C164.854 80.0879 165.588 80.3115 166.321 80.5356C166.632 80.6289 166.95 80.7251 167.258 80.8306C167.771 80.9956 168.313 81.1787 168.842 81.3623C169.344 81.5361 169.824 81.7104 170.316 81.8945C171.785 82.439 173.231 83.0298 174.611 83.6494C175.075 83.8511 175.555 84.0703 176.024 84.2998C176.905 84.706 177.836 85.1694 178.76 85.6636C179.21 85.8931 179.674 86.146 180.126 86.4092C181.595 87.2187 183.06 88.1079 184.451 89.0356C184.772 89.2324 185.125 89.4775 185.477 89.7236C186.742 90.5928 188.031 91.5483 189.3 92.5576C189.515 92.7295 189.727 92.9092 189.938 93.0889L190.523 93.5235L190.521 93.5591C190.562 93.5943 190.603 93.6294 190.644 93.6651C191.002 93.9625 191.367 94.2759 191.734 94.6109C194.339 96.9107 196.755 99.4162 198.959 102.103C209.93 115.435 215.804 133.058 216.416 154.48C216.457 155.699 216.477 156.935 216.477 158.181C216.503 163.567 216.04 168.943 215.092 174.245C212.908 186.075 208.055 195.929 200.666 203.531C200.309 203.91 199.916 204.293 199.523 204.675L199.102 205.087L199.083 205.088C196.619 207.413 193.937 209.495 191.074 211.305L190.899 211.41C187.113 213.788 183.088 215.764 178.891 217.305L178.66 217.416L178.588 217.417C177.709 217.741 176.821 218.048 175.925 218.346C174.852 218.687 173.786 219.011 172.712 219.316C162.152 222.092 151.265 223.423 140.348 223.271Z" fill="white"/>
<path d="M140.347 78.2313C143.097 78.2313 145.817 78.3413 148.497 78.5813C148.947 78.6213 149.407 78.6613 149.857 78.7113C150.477 78.7713 151.097 78.8313 151.717 78.9113C152.137 78.9613 152.557 79.0213 152.987 79.0813C154.127 79.2313 155.267 79.4113 156.387 79.6213C156.897 79.7113 157.417 79.8012 157.927 79.9113C158.437 80.0113 158.957 80.1113 159.457 80.2313C159.857 80.3113 160.257 80.4013 160.647 80.5013C161.327 80.6513 162.007 80.8213 162.677 81.0013C163.027 81.0913 163.377 81.1812 163.727 81.2813C164.457 81.4813 165.177 81.7013 165.897 81.9213C166.197 82.0113 166.497 82.1013 166.787 82.2013C167.317 82.3713 167.847 82.5512 168.367 82.7313C168.857 82.9013 169.327 83.0713 169.807 83.2513C171.237 83.7813 172.637 84.3513 174.017 84.9713C174.477 85.1713 174.937 85.3813 175.387 85.6013C176.297 86.0213 177.197 86.4713 178.077 86.9413C178.527 87.1713 178.967 87.4113 179.397 87.6613C180.847 88.4613 182.264 89.3213 183.647 90.2412C183.987 90.4513 184.317 90.6812 184.647 90.9113C185.927 91.7913 187.177 92.718 188.397 93.6913C188.597 93.8513 188.797 94.0213 188.997 94.1913C189.007 94.2013 189.027 94.2113 189.027 94.2213C189.257 94.3913 189.477 94.5713 189.697 94.7613C190.057 95.0613 190.407 95.3613 190.757 95.6812C193.312 97.9329 195.679 100.388 197.837 103.021C208.017 115.391 214.337 132.491 214.967 154.521C215.007 155.731 215.027 156.951 215.027 158.181C215.056 163.478 214.601 168.767 213.667 173.981C211.437 186.061 206.527 195.421 199.627 202.521C199.257 202.911 198.867 203.291 198.477 203.671H198.467C195.97 206.081 193.232 208.229 190.297 210.081L190.147 210.171C186.429 212.511 182.473 214.452 178.347 215.961C178.337 215.961 178.327 215.971 178.317 215.971C177.377 216.321 176.427 216.651 175.467 216.971C174.427 217.301 173.377 217.621 172.317 217.921C161.886 220.662 151.131 221.974 140.347 221.821C99.1073 221.821 65.6673 207.611 65.6673 158.181C65.6673 141.831 68.3373 128.351 73.0873 117.411C78.2432 105.016 87.3667 94.683 99.0273 88.0313C100.427 87.2313 101.864 86.4813 103.337 85.7813C114.237 80.5913 126.877 78.2313 140.347 78.2313V78.2313ZM140.347 75.3333C125.876 75.3333 113.005 77.9682 102.091 83.1648C100.543 83.902 99.0288 84.6927 97.5895 85.5151C85.3871 92.4765 75.8362 103.286 70.4308 116.253C65.3464 127.963 62.7693 142.069 62.7693 158.181C62.7693 182.129 70.5344 199.862 85.8489 210.889C98.7736 220.196 116.6 224.719 140.347 224.719C151.396 224.872 162.415 223.524 173.101 220.712C174.105 220.427 175.164 220.108 176.344 219.734C177.266 219.427 178.078 219.144 178.834 218.869H179L179.479 218.632C183.739 217.061 187.825 215.052 191.671 212.637L191.713 212.611L191.789 212.566L191.819 212.548L191.849 212.529C194.614 210.781 197.215 208.786 199.62 206.569H199.646L200.5 205.747C200.903 205.354 201.32 204.948 201.73 204.516C209.297 196.73 214.28 186.625 216.517 174.507C217.48 169.119 217.952 163.655 217.925 158.181C217.925 156.926 217.905 155.662 217.864 154.426C217.242 132.686 211.257 114.767 200.075 101.18C197.824 98.4343 195.355 95.8744 192.694 93.5248C192.456 93.3082 192.206 93.0881 191.925 92.8489V92.7723L190.819 91.9363C190.615 91.7628 190.411 91.5911 190.208 91.4284C188.904 90.3913 187.587 89.4157 186.289 88.5232C185.977 88.3056 185.609 88.0485 185.215 87.8031C183.811 86.8688 182.334 85.9728 180.825 85.1394C180.368 84.8744 179.896 84.6165 179.419 84.3724C178.487 83.8751 177.549 83.4079 176.631 82.9834C176.179 82.7633 175.689 82.538 175.173 82.3136C173.799 81.6961 172.322 81.0925 170.814 80.5339C170.322 80.3493 169.83 80.1714 169.317 79.9934C168.784 79.8089 168.243 79.6251 167.701 79.451C167.385 79.3427 167.058 79.2439 166.731 79.1458C166.016 78.9274 165.264 78.6974 164.493 78.4863C164.152 78.3886 163.781 78.2927 163.409 78.197C162.673 77.9994 161.982 77.8289 161.318 77.6817C160.923 77.5812 160.506 77.4866 160.079 77.4002C159.595 77.2855 159.094 77.1868 158.601 77.0901L158.51 77.0724C158.013 76.9658 157.508 76.876 157.009 76.7883L156.891 76.7674C155.771 76.5572 154.574 76.3671 153.365 76.208L153.231 76.1892C152.836 76.1339 152.448 76.0798 152.06 76.0336C151.438 75.9531 150.787 75.8897 150.136 75.8268C149.74 75.7824 149.294 75.7426 148.856 75.7037L148.754 75.6947C146.077 75.4549 143.248 75.3333 140.347 75.3333L140.347 75.3333Z" fill="black"/>
<path opacity="0.53" d="M213.667 173.773C211.437 185.853 206.527 195.213 199.627 202.313C192.175 204.512 184.268 204.664 176.737 202.753C186.325 202.159 195.302 197.846 201.757 190.733C194.478 194.503 186.06 195.444 178.127 193.373C188.914 192.711 199.095 188.163 206.787 180.573C208.687 178.683 211.787 172.733 213.667 173.773Z" fill="#D6D6D6"/>
<path opacity="0.53" d="M197.837 102.931C197.287 103.754 196.657 104.521 195.957 105.221C193.779 107.258 191.275 108.915 188.547 110.121C183.717 112.339 178.762 114.276 173.707 115.921C178.969 112.689 182.789 107.559 184.377 101.591C177.347 107.561 167.937 109.741 158.857 111.391C155.907 111.921 152.947 112.418 149.977 112.881C154.618 111.432 159.109 109.54 163.387 107.231C165.297 106.201 167.357 104.761 168.027 102.821C167.982 102.834 167.935 102.84 167.887 102.841C167.647 103.311 167.427 103.791 167.207 104.261L167.707 102.871C164.297 103.41 160.85 103.691 157.397 103.711C142.317 103.511 128.297 103.211 113.747 99.2713C107.557 97.6013 100.807 94.1113 99.0275 87.9413C100.427 87.1413 101.864 86.3913 103.337 85.6913C114.237 80.5013 126.877 78.1413 140.347 78.1413C143.097 78.1413 145.817 78.2513 148.497 78.4913C148.947 78.5313 149.407 78.5713 149.857 78.6213C150.477 78.6813 151.097 78.7413 151.717 78.8213C152.137 78.8713 152.557 78.9313 152.987 78.9913C154.127 79.1413 155.267 79.3213 156.387 79.5313C156.897 79.6213 157.417 79.7113 157.927 79.8213C158.437 79.9213 158.957 80.0213 159.457 80.1413C159.857 80.2213 160.257 80.3113 160.647 80.4113C161.327 80.5613 162.007 80.7313 162.677 80.9113C163.027 81.0013 163.377 81.0913 163.727 81.1913C164.457 81.3913 165.177 81.6113 165.897 81.8313C166.197 81.9213 166.497 82.0113 166.787 82.1113C167.317 82.2813 167.847 82.4613 168.367 82.6413C168.857 82.8113 169.327 82.9813 169.807 83.1613C171.237 83.6913 172.637 84.2613 174.017 84.8813C174.477 85.0813 174.937 85.2913 175.387 85.5113C176.297 85.9313 177.197 86.3813 178.077 86.8513C178.527 87.0813 178.967 87.3213 179.397 87.5713C180.847 88.3713 182.264 89.2313 183.647 90.1513C183.987 90.3613 184.317 90.5913 184.647 90.8213C185.927 91.7013 187.177 92.628 188.397 93.6013C188.597 93.7613 188.797 93.9313 188.997 94.1013C189.007 94.1113 189.027 94.1213 189.027 94.1313C189.247 94.3113 189.447 94.4913 189.667 94.6713H189.697C190.057 94.9713 190.407 95.2713 190.757 95.5913C193.312 97.8429 195.679 100.298 197.837 102.931Z" fill="#D6D6D6"/>
<g opacity="0.53">
<path opacity="0.53" d="M178.351 215.749C167.222 219.883 154.221 221.608 140.346 221.608C99.1025 221.608 65.6635 207.408 65.6635 157.97C65.6635 141.624 68.3352 128.139 73.0897 117.199C72.8057 119.671 72.3218 122.174 72.0694 123.878C70.2812 135.954 70.2391 148.24 73.3106 160.126C77.7284 177.208 88.8152 192.966 104.656 200.739C122.622 209.543 143.713 207.313 163.709 208.028C169.147 208.218 175.595 209.312 177.856 214.266C178.076 214.741 178.242 215.238 178.351 215.749Z" fill="#D6D6D6"/>
</g>
<path d="M177.207 179.671C184.387 179.671 190.207 177.433 190.207 174.671C190.207 171.91 184.387 169.671 177.207 169.671C170.027 169.671 164.207 171.91 164.207 174.671C164.207 177.433 170.027 179.671 177.207 179.671Z" fill="#FFA8A9"/>
<path d="M103.207 179.671C110.387 179.671 116.207 177.433 116.207 174.671C116.207 171.91 110.387 169.671 103.207 169.671C96.0273 169.671 90.207 171.91 90.207 174.671C90.207 177.433 96.0273 179.671 103.207 179.671Z" fill="#FFA8A9"/>
<path d="M141.082 174.046C140.996 175.813 140.24 177.479 138.967 178.707C137.694 179.934 136.001 180.63 134.232 180.651C132.524 180.651 130.885 179.972 129.677 178.764C128.468 177.556 127.79 175.917 127.79 174.208" stroke="black" stroke-width="2.38985" stroke-miterlimit="10"/>
<path d="M153.659 174.208C153.659 175.917 152.98 177.556 151.772 178.764C150.564 179.972 148.925 180.651 147.216 180.651C146.378 180.626 145.553 180.435 144.789 180.088C144.025 179.742 143.338 179.247 142.767 178.632C142.196 178.018 141.754 177.296 141.464 176.508C141.175 175.721 141.045 174.884 141.082 174.046" stroke="black" stroke-width="2.38985" stroke-miterlimit="10"/>
<path d="M149.024 180.256C148.781 182.443 148.213 184.582 147.34 186.602C147.235 186.854 147.13 187.096 147.015 187.349C145.495 190.778 143.254 194.007 140.187 194.081C137.094 194.165 134.897 190.83 133.421 187.212C133.403 187.159 133.377 187.107 133.36 187.054C132.392 184.716 131.671 182.284 131.208 179.796C140.294 187.517 140.957 172.171 140.957 172.171C142.565 184.089 149.024 180.256 149.024 180.256Z" fill="black" stroke="black" stroke-width="1.92284" stroke-linecap="round" stroke-linejoin="round"/>
<path d="M147.015 187.349C145.495 190.778 143.254 194.007 140.188 194.081C137.094 194.165 134.897 190.83 133.421 187.212C133.404 187.159 133.377 187.107 133.36 187.054C135.205 185.433 137.591 184.562 140.047 184.614C141.332 184.58 142.612 184.804 143.809 185.274C145.006 185.744 146.096 186.449 147.015 187.349Z" fill="#FFA8A9" stroke="black" stroke-width="0.96142" stroke-linecap="round" stroke-linejoin="round"/>
<path d="M141.207 169.671V175.671" stroke="black" stroke-width="2.38985" stroke-miterlimit="10"/>
<path d="M141.692 171.012C146.663 171.012 150.692 168.774 150.692 166.012C150.692 163.251 146.663 161.012 141.692 161.012C136.722 161.012 132.692 163.251 132.692 166.012C132.692 168.774 136.722 171.012 141.692 171.012Z" fill="black"/>
<path d="M141.207 163.671C142.864 163.671 144.207 163.224 144.207 162.671C144.207 162.119 142.864 161.671 141.207 161.671C139.55 161.671 138.207 162.119 138.207 162.671C138.207 163.224 139.55 163.671 141.207 163.671Z" fill="white"/>
<path d="M106.707 165.671C115.267 165.671 122.207 158.732 122.207 150.171C122.207 141.611 115.267 134.671 106.707 134.671C98.1466 134.671 91.207 141.611 91.207 150.171C91.207 158.732 98.1466 165.671 106.707 165.671Z" fill="black"/>
<path d="M95.707 153.671C97.0877 153.671 98.207 152.552 98.207 151.171C98.207 149.791 97.0877 148.671 95.707 148.671C94.3263 148.671 93.207 149.791 93.207 151.171C93.207 152.552 94.3263 153.671 95.707 153.671Z" fill="white"/>
<path d="M106.207 149.671C109.521 149.671 112.207 146.985 112.207 143.671C112.207 140.358 109.521 137.671 106.207 137.671C102.893 137.671 100.207 140.358 100.207 143.671C100.207 146.985 102.893 149.671 106.207 149.671Z" fill="white"/>
<path d="M172.707 165.671C181.267 165.671 188.207 158.732 188.207 150.171C188.207 141.611 181.267 134.671 172.707 134.671C164.147 134.671 157.207 141.611 157.207 150.171C157.207 158.732 164.147 165.671 172.707 165.671Z" fill="black"/>
<path d="M171.207 149.671C174.521 149.671 177.207 146.985 177.207 143.671C177.207 140.358 174.521 137.671 171.207 137.671C167.893 137.671 165.207 140.358 165.207 143.671C165.207 146.985 167.893 149.671 171.207 149.671Z" fill="white"/>
<path d="M181.707 154.671C183.088 154.671 184.207 153.552 184.207 152.171C184.207 150.791 183.088 149.671 181.707 149.671C180.326 149.671 179.207 150.791 179.207 152.171C179.207 153.552 180.326 154.671 181.707 154.671Z" fill="white"/>
<path d="M157.994 234.656C153.925 234.519 149.902 233.749 146.07 232.373C144.839 231.971 143.584 231.52 142.343 231.034L141.679 230.774L141.348 230.143C140.066 227.695 139.135 225.079 138.582 222.372C138.417 221.458 138.438 220.52 138.645 219.614C138.857 218.702 139.398 217.9 140.165 217.363C140.665 216.897 142.547 215.17 145.129 213.078C152.704 206.952 158.645 203.846 162.789 203.846C164.229 203.795 165.641 204.251 166.779 205.136C167.917 206.02 168.708 207.276 169.014 208.684C169.762 211.193 170.323 213.755 170.692 216.347C170.953 218.106 171.056 219.885 171.002 221.663C170.735 230.037 166.115 234.656 157.994 234.656Z" fill="#F12747"/>
<path d="M162.789 205.756C163.816 205.705 164.826 206.027 165.633 206.664C166.441 207.3 166.99 208.207 167.18 209.217C167.901 211.635 168.442 214.103 168.8 216.601C169.043 218.252 169.141 219.92 169.094 221.587C168.901 227.641 166.281 232.745 157.994 232.745C154.128 232.613 150.306 231.875 146.668 230.56C145.511 230.181 144.302 229.75 143.039 229.255C141.86 227 140.997 224.593 140.473 222.103C140.347 221.438 140.354 220.755 140.494 220.094C140.546 219.843 140.648 219.606 140.795 219.396C140.941 219.186 141.129 219.009 141.346 218.873C141.346 218.873 143.386 216.948 146.332 214.561C151.056 210.74 158.117 205.757 162.789 205.756H162.789ZM162.79 201.936H162.79C158.196 201.937 151.851 205.185 143.93 211.59C141.449 213.602 139.595 215.288 138.96 215.875C137.872 216.675 137.104 217.836 136.792 219.15C136.518 220.31 136.486 221.514 136.698 222.687C137.277 225.596 138.273 228.406 139.657 231.03L140.319 232.292L141.646 232.812C142.915 233.309 144.204 233.773 145.48 234.19C149.5 235.637 153.724 236.439 157.994 236.565C167.173 236.565 172.611 231.15 172.912 221.709C172.969 219.826 172.859 217.941 172.583 216.078C172.201 213.396 171.621 210.746 170.848 208.15C170.43 206.342 169.399 204.735 167.93 203.602C166.461 202.47 164.644 201.881 162.79 201.936L162.79 201.936Z" fill="black"/>
<path d="M169.094 221.607C168.831 229.843 164.077 236.323 146.668 230.58C146.268 231.079 145.76 231.482 145.183 231.759C144.606 232.036 143.974 232.179 143.334 232.179H134.298C133.602 232.18 132.916 232.012 132.3 231.687C131.683 231.363 131.156 230.892 130.764 230.317C112.85 236.46 107.907 230.054 107.57 221.776C107.522 220.364 107.578 218.95 107.738 217.547C112.146 217.231 120.298 221.176 124.232 221.712C126.146 221.975 128.071 222.154 129.996 222.259C132.047 222.365 134.109 222.396 136.16 222.344C137.601 222.301 139.042 222.228 140.473 222.123C142.871 221.944 145.248 221.67 147.625 221.313C153.824 220.355 159.944 218.949 165.939 217.105C166.854 216.77 167.824 216.606 168.8 216.621C169.043 218.272 169.141 219.94 169.094 221.607Z" fill="#A61B31"/>
<path d="M118.668 234.65C110.617 234.65 105.998 230.098 105.662 221.832C105.61 220.325 105.67 218.816 105.84 217.318C106.194 214.391 106.801 211.501 107.652 208.678C107.959 207.272 108.75 206.018 109.887 205.135C111.024 204.252 112.435 203.797 113.873 203.848C118.128 203.848 124.261 207.108 132.101 213.537C134.389 215.414 136.035 216.929 136.501 217.364C136.987 217.713 137.389 218.168 137.674 218.694C137.959 219.221 138.12 219.806 138.145 220.405C138.211 221.152 138.176 221.904 138.044 222.642C137.479 225.257 136.56 227.783 135.313 230.15L134.977 230.783L134.309 231.038C133.299 231.426 132.321 231.78 131.387 232.102C127.311 233.628 123.017 234.489 118.668 234.65Z" fill="#F12747"/>
<path d="M113.873 205.758C118.732 205.758 126.175 211.146 130.89 215.013C133.53 217.18 135.319 218.873 135.319 218.873C135.6 219.063 135.832 219.318 135.993 219.616C136.154 219.915 136.241 220.248 136.244 220.588C136.293 221.168 136.265 221.751 136.16 222.324C135.628 224.737 134.775 227.068 133.625 229.255C132.636 229.634 131.679 229.981 130.764 230.297C126.89 231.759 122.805 232.584 118.668 232.74C110.46 232.74 107.813 227.737 107.57 221.756C107.522 220.344 107.578 218.93 107.738 217.527C108.084 214.713 108.668 211.933 109.484 209.217C109.675 208.208 110.224 207.301 111.031 206.665C111.837 206.029 112.847 205.707 113.873 205.758L113.873 205.758ZM113.874 201.938H113.874C112.02 201.882 110.203 202.471 108.734 203.604C107.265 204.736 106.234 206.343 105.817 208.151C104.936 211.074 104.309 214.068 103.943 217.099C103.761 218.693 103.698 220.298 103.753 221.902C104.132 231.22 109.568 236.56 118.668 236.56C123.228 236.411 127.732 235.515 132.003 233.91C132.996 233.568 133.999 233.202 134.991 232.823L136.329 232.31L137 231.044C138.353 228.49 139.34 225.758 139.932 222.929C140.09 222.03 140.128 221.115 140.045 220.207C139.989 219.36 139.752 218.535 139.349 217.788C138.945 217.041 138.386 216.389 137.708 215.878C137.122 215.334 135.501 213.856 133.314 212.06C125.122 205.343 118.583 201.938 113.874 201.938L113.874 201.938Z" fill="black"/>
<path d="M136.16 222.324C135.628 224.737 134.775 227.068 133.625 229.255C132.636 229.634 131.679 229.981 130.764 230.297C112.85 236.44 107.907 230.034 107.57 221.755C107.522 220.344 107.578 218.93 107.738 217.527C112.146 217.211 120.298 221.156 124.232 221.692C126.146 221.955 128.071 222.134 129.996 222.239C132.047 222.344 134.109 222.376 136.16 222.324Z" fill="#A61B31"/>
<path d="M134.6 234.581C133.582 234.584 132.579 234.339 131.676 233.868C130.774 233.398 130 232.715 129.419 231.878C128.687 230.841 128.295 229.602 128.297 228.332V217.999C128.293 216.617 128.76 215.274 129.623 214.194C130.208 213.431 130.962 212.815 131.826 212.393C132.689 211.971 133.639 211.754 134.6 211.761H143.825C145.468 211.76 147.046 212.404 148.219 213.555C148.818 214.13 149.296 214.82 149.622 215.583C149.948 216.347 150.117 217.169 150.117 217.999V228.332C150.123 229.771 149.622 231.167 148.703 232.274C148.113 232.997 147.369 233.58 146.525 233.979C145.681 234.378 144.759 234.584 143.825 234.581H134.6Z" fill="#F12747"/>
<path d="M143.825 213.671C144.97 213.671 146.069 214.121 146.886 214.923C147.304 215.319 147.637 215.796 147.864 216.325C148.091 216.854 148.208 217.424 148.207 218V228.332C148.21 229.327 147.864 230.292 147.23 231.059C146.818 231.564 146.299 231.971 145.71 232.25C145.121 232.529 144.477 232.673 143.825 232.671H134.6C133.891 232.674 133.192 232.505 132.563 232.178C131.935 231.851 131.395 231.376 130.991 230.794C130.481 230.074 130.207 229.214 130.207 228.332V218C130.204 217.048 130.526 216.123 131.12 215.379C131.529 214.845 132.056 214.413 132.659 214.117C133.263 213.821 133.927 213.668 134.6 213.671H143.825ZM143.825 209.851H134.6C133.345 209.845 132.106 210.129 130.979 210.681C129.853 211.233 128.869 212.038 128.105 213.033C126.987 214.447 126.381 216.197 126.387 218V228.332C126.385 230.003 126.904 231.633 127.87 232.996C128.626 234.078 129.633 234.962 130.805 235.57C131.977 236.179 133.279 236.495 134.6 236.491H143.825C145.994 236.496 148.077 235.639 149.614 234.109C151.152 232.579 152.02 230.502 152.027 228.332V218C152.01 215.835 151.139 213.764 149.603 212.238C148.067 210.712 145.99 209.854 143.825 209.851L143.825 209.851Z" fill="black"/>
<path d="M148.202 221.352L148.156 228.434C148.159 229.422 147.813 230.379 147.179 231.138C146.765 231.64 146.245 232.043 145.657 232.32C145.068 232.596 144.425 232.739 143.775 232.736H134.549C133.842 232.74 133.144 232.573 132.516 232.249C131.887 231.925 131.347 231.453 130.94 230.875C130.431 230.163 130.157 229.31 130.156 228.434L130.247 222.265C132.342 222.37 134.29 222.672 136.384 222.62C137.856 222.577 139.387 222.573 140.848 222.467C143.296 222.289 145.775 221.709 148.202 221.352Z" fill="#A61B31"/>
<path d="M165.061 209.256C165.161 210.286 164.068 209.98 162.385 210.144C160.701 210.307 159.065 210.879 158.965 209.848C158.865 208.817 160.148 207.849 161.832 207.686C163.515 207.522 164.961 208.225 165.061 209.256Z" fill="white"/>
<path d="M118.395 209.422C118.495 210.453 117.401 210.147 115.718 210.31C114.034 210.474 112.399 211.046 112.298 210.015C112.198 208.984 113.482 208.016 115.165 207.852C116.849 207.689 118.294 208.392 118.395 209.422Z" fill="white"/>
<path d="M143.207 216.671H133.207C132.942 216.671 132.687 216.566 132.5 216.378C132.312 216.191 132.207 215.937 132.207 215.671C132.207 215.406 132.312 215.152 132.5 214.964C132.687 214.777 132.942 214.671 133.207 214.671H143.207C143.472 214.671 143.727 214.777 143.914 214.964C144.102 215.152 144.207 215.406 144.207 215.671C144.207 215.937 144.102 216.191 143.914 216.378C143.727 216.566 143.472 216.671 143.207 216.671Z" fill="white"/>
<path d="M126.557 223.964L126.927 218.647C122.366 219.233 117.765 219.436 113.171 219.254C117.494 221.193 121.972 222.769 126.557 223.964Z" fill="#000A0E"/>
<path d="M149.986 218.647L150.356 223.964C154.941 222.769 159.419 221.193 163.742 219.254C159.148 219.436 154.546 219.233 149.986 218.647Z" fill="#000A0E"/>
<path d="M137.549 76.833L128.01 71.738L132.339 79.699L137.549 76.833Z" fill="black"/>
<path d="M134.915 77.359L141.765 68.992L140.826 78.005L134.915 77.359Z" fill="black"/>
<path d="M174.238 56.917L181.095 91.714L116.378 84.557L135.78 50.555L135.792 50.567L174.238 56.917Z" fill="#FFBD45"/>
<path d="M167.41 22.2276L174.238 56.9174L135.792 50.5667L135.78 50.5553L153.02 20.3587C151.53 18.6755 150.589 16.5776 150.323 14.3454C150.058 12.1133 150.48 9.85316 151.533 7.86728C152.586 5.8814 154.221 4.26436 156.218 3.23233C158.215 2.2003 160.479 1.80245 162.709 2.09196C164.938 2.38147 167.025 3.34455 168.693 4.85246C170.36 6.36037 171.527 8.34126 172.038 10.5303C172.549 12.7194 172.38 15.0123 171.553 17.1026C170.726 19.1928 169.28 20.9809 167.41 22.2276Z" fill="#F12747"/>
<path d="M135.78 50.5553L116.378 84.5565L181.095 91.7135L174.238 56.9174L167.41 22.2276C169.277 20.981 170.719 19.1943 171.543 17.1064C172.368 15.0185 172.536 12.7287 172.024 10.5429C171.513 8.35709 170.347 6.37937 168.681 4.87392C167.016 3.36848 164.931 2.40698 162.705 2.11787C160.479 1.82875 158.218 2.2258 156.223 3.25596C154.229 4.28611 152.596 5.90034 151.543 7.883C150.491 9.86565 150.068 12.1223 150.332 14.3516C150.596 16.5809 151.533 18.6766 153.02 20.3587L135.78 50.5553Z" stroke="black" stroke-width="3.54271" stroke-miterlimit="10"/>
<path d="M135.792 50.567L174.238 56.917L174.888 57.022" stroke="black" stroke-opacity="0.88" stroke-width="2.18921" stroke-miterlimit="10"/>
<path d="M142.677 74.4853C142.722 75.5749 142.443 76.6534 141.875 77.5843C141.307 78.5152 140.475 79.2567 139.486 79.7151C138.497 80.1736 137.393 80.3283 136.316 80.1597C135.238 79.9912 134.235 79.5069 133.433 78.7682C132.631 78.0294 132.066 77.0694 131.809 76.0095C131.553 74.9496 131.616 73.8374 131.992 72.8136C132.367 71.7898 133.038 70.9003 133.919 70.2577C134.8 69.615 135.852 69.2481 136.941 69.2032C138.402 69.1431 139.828 69.6658 140.903 70.6564C141.979 71.6469 142.617 73.0243 142.677 74.4853V74.4853Z" stroke="black" stroke-opacity="0.7" stroke-width="2.91895" stroke-miterlimit="10"/>
<path d="M155.431 60.1978C156.397 60.7038 157.192 61.4848 157.714 62.4422C158.236 63.3996 158.462 64.4903 158.365 65.5764C158.267 66.6625 157.849 67.6952 157.164 68.544C156.48 69.3927 155.559 70.0194 154.518 70.3447C153.477 70.67 152.363 70.6794 151.317 70.3716C150.271 70.0639 149.339 69.4528 148.641 68.6157C147.942 67.7786 147.507 66.753 147.391 65.6687C147.275 64.5844 147.483 63.49 147.989 62.524C148.667 61.2286 149.832 60.2558 151.228 59.8196C152.624 59.3833 154.136 59.5194 155.431 60.1978V60.1978Z" stroke="black" stroke-opacity="0.7" stroke-width="2.91895" stroke-miterlimit="10"/>
<path d="M170.567 78.8987C170.324 79.9588 169.773 80.9231 168.982 81.6697C168.191 82.4163 167.196 82.9115 166.124 83.0929C165.052 83.2743 163.95 83.1337 162.957 82.6888C161.965 82.2438 161.127 81.5147 160.549 80.5934C159.971 79.6721 159.679 78.6002 159.711 77.5131C159.742 76.426 160.095 75.3726 160.725 74.4861C161.355 73.5996 162.233 72.9198 163.25 72.5326C164.266 72.1455 165.374 72.0685 166.434 72.3112C167.856 72.6368 169.09 73.5137 169.865 74.7491C170.64 75.9845 170.892 77.4771 170.567 78.8987V78.8987Z" stroke="black" stroke-opacity="0.7" stroke-width="2.91107" stroke-miterlimit="10"/>
<g style="mix-blend-mode:multiply" opacity="0.34">
<g style="mix-blend-mode:multiply" opacity="0.34">
<path d="M156.587 4.3042C156.587 4.3042 153.7 13.9812 159.798 17.0157C165.897 20.0502 141.475 87.0665 141.475 87.0665L116.372 84.555L153.016 20.362C153.016 20.362 146.931 9.18199 156.587 4.3042Z" fill="#FF4551"/>
</g>
</g>
<path d="M168.52 25.9201L167.778 24.7141L161.942 31.5588L158.959 24.9627L150.616 29.9989L149.182 25.9596C148.615 27.7 147.956 29.4304 147.219 31.1325L148.71 35.3336L157.358 30.1122L161.006 38.1779L167.309 30.783L168.842 33.2721C168.684 30.8484 168.599 28.3887 168.52 25.9201Z" fill="black" fill-opacity="0.24"/>
<path d="M170.268 43.7294L169.087 45.2011L164.106 37.1116L158.27 43.9563L155.287 37.3602L146.945 42.3964L144.737 36.1783C143.988 37.5324 143.19 38.853 142.338 40.1239L145.038 47.7312L153.686 42.5098L157.334 50.5754L163.637 43.1806L168.703 51.4042L171.511 47.904C171.014 46.5386 170.599 45.1446 170.268 43.7294Z" fill="black" fill-opacity="0.24"/>
<g opacity="0.71">
<path opacity="0.71" d="M168.149 8.74494C168.759 9.76394 168.94 10.9832 168.652 12.1352C168.364 13.2873 167.63 14.278 166.613 14.8899C164.523 16.0504 164.1 13.746 162.859 11.5127C161.618 9.27944 160.031 7.96284 162.12 6.80234C163.178 6.26179 164.406 6.16274 165.537 6.52693C166.667 6.89111 167.607 7.68879 168.149 8.74494Z" fill="white"/>
</g>
<path d="M232.495 259.999C232.495 259.999 227.846 232.94 218.522 240.543C209.198 248.145 213.028 259.241 213.028 259.241L228.326 264.605L232.495 259.999Z" fill="#FFBD45"/>
<path d="M232.495 259.999C232.495 259.999 227.846 232.94 218.522 240.543C209.198 248.145 213.028 259.241 213.028 259.241L228.326 264.605L232.495 259.999Z" fill="#F12747" stroke="black" stroke-width="2.63678" stroke-miterlimit="10" stroke-linecap="round"/>
<path d="M230.986 260.708C230.986 260.708 222.358 243.807 220.511 250.661C218.664 257.515 221.305 256.274 230.986 260.708Z" fill="black"/>
<path d="M256.371 275.979C258.664 269.625 253.696 262.01 245.275 258.971C236.854 255.932 228.168 258.619 225.875 264.973C223.581 271.328 228.549 278.943 236.971 281.982C245.392 285.021 254.078 282.334 256.371 275.979Z" fill="#FFBD45"/>
<path d="M256.371 275.979C258.664 269.625 253.696 262.01 245.275 258.971C236.854 255.932 228.168 258.619 225.875 264.973C223.581 271.328 228.549 278.943 236.971 281.982C245.392 285.021 254.078 282.334 256.371 275.979Z" fill="#F12747" stroke="black" stroke-width="2.63678" stroke-miterlimit="10" stroke-linecap="round"/>
<path d="M256.227 268.564C256.227 268.564 277.084 250.709 279.405 262.514C281.725 274.318 271.692 280.412 271.692 280.412L256.494 274.77L256.227 268.564Z" fill="#F12747" stroke="black" stroke-width="2.63678" stroke-miterlimit="10" stroke-linecap="round"/>
<g style="mix-blend-mode:multiply" opacity="0.34">
<path d="M217.311 243.351C217.311 243.351 213.897 255.625 228.217 258.152L228.128 261.776C228.128 261.776 241.683 258.544 255.888 270.677C255.888 270.677 273.139 280.558 278.303 269.627C278.303 269.627 274.984 280.513 271.091 280.327L213.531 259.453C213.531 259.453 210.533 254.817 212.204 250.749C213.152 248.368 214.258 246.053 215.517 243.821C215.769 243.404 217.311 243.351 217.311 243.351Z" fill="#FF4551"/>
</g>
<path d="M256.227 268.564C256.227 268.564 277.084 250.709 279.405 262.514C281.725 274.318 271.692 280.412 271.692 280.412L256.494 274.77L256.227 268.564Z" stroke="black" stroke-width="3.05659" stroke-miterlimit="10"/>
<path d="M256.936 270.073C256.936 270.073 274.368 262.577 271.413 269.03C268.457 275.484 267.217 272.843 256.936 270.073Z" fill="black"/>
<path d="M273.539 301.342L198.869 274.394L182.594 319.492L257.264 346.439L273.539 301.342Z" fill="white" stroke="black" stroke-width="3" stroke-miterlimit="10" stroke-linecap="round"/>
<path d="M242.888 295.999L224.575 289.39L210.383 328.716L228.696 335.325L242.888 295.999Z" fill="#F12747" stroke="black" stroke-width="2.63678" stroke-miterlimit="10" stroke-linecap="round"/>
<g style="mix-blend-mode:multiply" opacity="0.42">
<path d="M196.21 281.763L263.002 330.542L271.405 307.256L196.21 281.763Z" fill="#3336B1"/>
</g>
<path d="M242.393 297.371L224.08 290.762L210.383 328.716L228.696 335.325L242.393 297.371Z" stroke="black" stroke-width="3.05659" stroke-miterlimit="10"/>
<path d="M287.455 286.307L197.761 253.939L189.223 277.596L278.917 309.965L287.455 286.307Z" fill="white" stroke="#1D1D1B" stroke-miterlimit="10"/>
<path d="M287.455 286.307L197.761 253.939L189.223 277.596L278.917 309.965L287.455 286.307Z" stroke="black" stroke-width="3.05659" stroke-miterlimit="10"/>
<g style="mix-blend-mode:multiply" opacity="0.42">
<path d="M191.573 265.286L282.914 298.249L278.917 309.967L189.223 277.598L191.573 265.286Z" fill="#3336B1"/>
</g>
<path d="M253.748 273.623L230.361 265.183L221.756 289.025L245.144 297.465L253.748 273.623Z" fill="#FF4551"/>
<path d="M253.448 274.454L230.061 266.014L221.756 289.025L245.144 297.465L253.448 274.454Z" fill="#F12747" stroke="black" stroke-width="2.63678" stroke-miterlimit="10" stroke-linecap="round"/>
<path d="M77.4834 291.365L74.2937 324.996C74.0753 327.298 73.1667 329.481 71.6869 331.258C70.207 333.035 68.225 334.323 66.0004 334.954L56.839 337.554L56.017 337.787L46.8556 340.386C44.631 341.017 42.2676 340.962 40.0751 340.227C37.8825 339.492 35.9632 338.112 34.5684 336.268L14.1912 309.323L77.4834 291.365Z" fill="#F12747" stroke="black" stroke-width="2.63678" stroke-miterlimit="10" stroke-linecap="round"/>
<g style="mix-blend-mode:multiply" opacity="0.47">
<path d="M32.411 321.515L39.8992 333.709L45.4636 332.1L41.3182 313.354L50.2268 331.128L59.2418 328.753L56.3624 310.375L67.4624 325.97L67.7436 307.896L71.3246 325.21C71.6982 327.016 71.3679 328.897 70.401 330.468C69.4342 332.039 67.9038 333.181 66.1228 333.662L45.8042 339.142C44.0495 339.615 42.1809 339.411 40.5699 338.569C38.959 337.728 37.7236 336.311 37.1095 334.601L32.411 321.515Z" fill="#664141"/>
</g>
<path d="M72.5742 298.526C88.0144 283.014 72.5608 271.712 72.5608 271.712C76.1276 257.161 60.8996 255.375 60.8996 255.375C62.2751 241.264 46.0822 239.255 46.0822 239.255C36.2408 223.769 15.9863 236.574 15.9863 236.574C40.0712 246.49 2.19892 251.405 9.78182 266.742C-5.64178 275.696 6.62342 290.692 6.62342 290.692C5.59002 311.641 19.5803 313.101 26.4876 309.095C26.4876 309.095 34.8027 317.903 47.1247 308.356C47.1247 308.356 58.722 312.443 72.5742 298.526Z" fill="white" stroke="black" stroke-width="2.25408" stroke-miterlimit="10" stroke-linecap="round"/>
<path d="M9.24951 265.227L8.55627 268.149C12.2091 268.758 15.9502 268.569 19.5235 267.597C23.0968 266.625 26.4178 264.893 29.2591 262.518C26.3156 264.384 23.0039 265.592 19.5504 266.059C16.0969 266.527 12.5832 266.243 9.24951 265.227Z" fill="#000A0E"/>
<path d="M46.3466 238.308L44.1161 238.62C44.6932 241.302 43.768 244.295 42.2289 246.86C40.6217 249.479 38.5507 251.782 36.1174 253.658C38.82 252.05 41.2062 249.961 43.1587 247.496C44.162 246.222 44.976 244.81 45.5754 243.303C46.2082 241.718 46.472 240.01 46.3466 238.308Z" fill="#000A0E"/>
<path d="M62.635 255.587L60.2747 253.731C57.8888 257.58 54.8975 261.019 51.4163 263.916C55.579 261.761 59.3672 258.948 62.635 255.587Z" fill="#000A0E"/>
<path d="M6.76502 289.18L5.68872 291.159C8.40018 292.218 11.2804 292.78 14.1912 292.817C11.5171 292.062 9.00139 290.83 6.76502 289.18Z" fill="#000A0E"/>
<path d="M73.5752 271.49L71.7255 270.205C70.3492 272.839 68.1542 274.955 65.4711 276.234C68.6147 275.571 71.4585 273.906 73.5752 271.49Z" fill="#000A0E"/>
<g style="mix-blend-mode:multiply" opacity="0.42">
<g style="mix-blend-mode:multiply" opacity="0.42">
<path d="M53.0327 242.898C55.7177 245.843 56.319 250.269 55.3676 254.139C54.4162 258.008 52.1093 261.407 49.5464 264.459C51.8883 263.288 54.0896 261.855 56.1079 260.186C58.1365 258.499 59.5438 256.182 60.1065 253.604C60.4265 251.193 59.7786 248.754 58.3045 246.82C56.8305 244.885 54.6503 243.613 52.2409 243.283" fill="#3336B1"/>
</g>
</g>
<g style="mix-blend-mode:multiply" opacity="0.42">
<g style="mix-blend-mode:multiply" opacity="0.42">
<path d="M69.7137 260.762C70.2536 263.624 70.0344 266.577 69.0779 269.328C68.1215 272.079 66.4611 274.531 64.2621 276.44C66.0774 276.147 67.791 275.406 69.2479 274.285C70.7048 273.163 71.859 271.695 72.6061 270.015C73.9474 266.604 72.8185 262.223 69.6764 260.335" fill="#3336B1"/>
</g>
</g>
<g style="mix-blend-mode:multiply" opacity="0.42">
<g style="mix-blend-mode:multiply" opacity="0.42">
<path d="M40.974 234.176C42.588 237.449 42.2902 241.404 41.0015 244.819C39.5556 248.175 37.6588 251.318 35.3634 254.162C36.5863 252.973 37.8092 251.784 39.032 250.594C41.3644 248.326 43.7922 245.9 44.6455 242.761C45.4988 239.621 44.0663 235.615 40.9019 234.86" fill="#3336B1"/>
</g>
</g>
<g style="mix-blend-mode:multiply" opacity="0.42">
<g style="mix-blend-mode:multiply" opacity="0.42">
<path d="M15.8248 236.121C17.2469 235.203 19.0631 235.237 20.7515 235.354C23.3472 235.408 25.9078 235.965 28.2915 236.994C29.4783 237.52 30.521 238.324 31.3314 239.339C32.1418 240.353 32.6961 241.547 32.9475 242.821C33.4406 246.451 30.6748 249.683 27.8152 251.971C24.9556 254.26 21.6407 256.37 20.2625 259.763C20.133 260.006 20.0561 260.274 20.0367 260.549C20.0173 260.824 20.0559 261.1 20.1499 261.359C20.3287 261.612 20.5618 261.823 20.8323 261.976C21.1027 262.129 21.4037 262.219 21.7135 262.241C23.9364 262.682 26.223 262.694 28.4504 262.277C25.133 264.645 21.3068 266.204 17.2786 266.827C14.6943 267.224 11.654 267.053 10.0289 265.005C8.27197 262.79 9.09988 259.393 10.9211 257.231C12.7423 255.069 15.3249 253.724 17.5632 251.998C19.6887 250.357 21.5147 248.362 22.9606 246.1C23.5899 245.303 23.8933 244.298 23.8093 243.287C23.6036 242.562 23.1945 241.911 22.6305 241.412C21.116 239.852 19.3681 238.538 17.4495 237.515C16.3224 236.915 14.6254 236.574 14.0207 237.698" fill="#3336B1"/>
</g>
</g>
<g style="mix-blend-mode:multiply" opacity="0.42">
<g style="mix-blend-mode:multiply" opacity="0.42">
<path d="M25.6201 265.125C22.7529 266.512 20.1912 268.457 18.0849 270.846C16.806 272.136 15.671 273.562 14.6999 275.097C13.6345 276.781 12.9615 278.684 12.7306 280.664C12.4997 282.644 12.7169 284.65 13.366 286.535C14.7948 290.244 18.5535 293.093 22.525 292.927C17.9294 293.975 13.1067 293.199 9.0712 290.763C7.70386 289.981 6.52215 288.911 5.6072 287.628C4.79349 286.614 4.11569 285.497 3.591 284.307C1.7073 278.078 3.6097 270.611 8.8838 266.799C9.07188 266.645 9.29158 266.533 9.5274 266.473C9.8942 266.447 10.2608 266.525 10.5853 266.698C15.3593 268.608 20.7306 266.843 25.5604 265.079" fill="#3336B1"/>
</g>
</g>
<g style="mix-blend-mode:multiply" opacity="0.42">
<g style="mix-blend-mode:multiply" opacity="0.42">
<path d="M14.8324 293.162C12.1695 294.826 11.6332 298.9 13.4549 301.458C14.4338 302.693 15.7693 303.596 17.2796 304.044C18.7899 304.493 20.4017 304.465 21.8959 303.966C23.3751 303.426 24.7168 302.567 25.8252 301.448C26.9336 300.33 27.7813 298.981 28.3076 297.497C28.0239 301.915 33.9265 304.741 37.9345 302.861C41.9425 300.98 43.8502 296.244 44.0987 291.823C45.113 297.137 50.9709 300.09 56.3365 300.781C63.0647 301.648 70.5498 299.888 74.8016 294.602C71.3637 298.834 67.5863 302.924 62.8592 305.641C58.1321 308.358 52.2917 309.561 47.1443 307.763C44.9258 310.005 42.0398 311.466 38.9197 311.927C35.7997 312.389 32.6142 311.825 29.842 310.321C29.206 309.881 28.4975 309.555 27.749 309.36C26.7908 309.304 25.8319 309.457 24.9391 309.81C22.3858 310.481 19.6982 310.446 17.1633 309.708C14.6284 308.971 12.3416 307.558 10.5472 305.622C8.80589 303.637 7.63646 301.217 7.16385 298.62C6.69123 296.022 6.9332 293.345 7.86389 290.875C10.0148 291.45 12.1657 292.025 14.3167 292.6" fill="#3336B1"/>
</g>
</g>
<path d="M46.8818 278.595C47.1971 279.494 47.3321 280.446 47.2789 281.397C47.2258 282.348 46.9856 283.279 46.5721 284.137C46.1586 284.995 45.5799 285.763 44.8691 286.397C44.1584 287.031 43.3296 287.518 42.4302 287.832C41.5307 288.145 40.5784 288.278 39.6275 288.222C38.6767 288.167 37.7462 287.925 36.8891 287.509C36.0321 287.094 35.2654 286.513 34.633 285.801C34.0006 285.089 33.5149 284.259 33.2037 283.359" stroke="black" stroke-width="2.27199" stroke-miterlimit="10"/>
<path d="M29.175 283.347C29.2411 284.13 29.0733 284.916 28.6929 285.604C28.3125 286.292 27.7365 286.852 27.0378 287.213C26.3392 287.574 25.5492 287.72 24.7677 287.632C23.9863 287.544 23.2485 287.226 22.6477 286.718C22.0469 286.211 21.6101 285.537 21.3924 284.781C21.1747 284.026 21.186 283.222 21.4249 282.473C21.6637 281.724 22.1194 281.062 22.7342 280.572C23.3491 280.082 24.0955 279.785 24.8791 279.719C25.3994 279.675 25.9232 279.734 26.4207 279.893C26.9182 280.051 27.3795 280.306 27.7784 280.643C28.1773 280.98 28.506 281.392 28.7456 281.856C28.9852 282.32 29.1311 282.826 29.175 283.347Z" fill="black"/>
<path d="M25.0938 282.266C25.1174 282.546 25.0575 282.826 24.9216 283.072C24.7858 283.318 24.5801 283.518 24.3305 283.647C24.081 283.776 23.7989 283.828 23.5198 283.796C23.2407 283.765 22.9772 283.651 22.7626 283.47C22.548 283.289 22.392 283.048 22.3143 282.778C22.2365 282.508 22.2406 282.221 22.3259 281.954C22.4112 281.686 22.5739 281.45 22.7935 281.275C23.0131 281.1 23.2797 280.994 23.5596 280.97C23.9348 280.938 24.3073 281.057 24.595 281.3C24.8827 281.543 25.0621 281.89 25.0938 282.266Z" fill="white"/>
<path d="M56.5951 273.91C56.6611 274.693 56.4933 275.479 56.1129 276.167C55.7325 276.856 55.1565 277.415 54.4578 277.776C53.7591 278.137 52.9691 278.283 52.1877 278.195C51.4063 278.107 50.6685 277.789 50.0677 277.281C49.4669 276.774 49.0301 276.1 48.8124 275.344C48.5948 274.589 48.6061 273.785 48.8449 273.036C49.0838 272.287 49.5394 271.625 50.1543 271.135C50.7691 270.645 51.5156 270.348 52.2992 270.282C52.8194 270.238 53.3433 270.297 53.8408 270.456C54.3382 270.614 54.7996 270.869 55.1985 271.206C55.5974 271.543 55.9261 271.955 56.1657 272.419C56.4053 272.883 56.5512 273.39 56.5951 273.91Z" fill="black"/>
<path d="M54.6243 272.509C54.6479 272.788 54.588 273.069 54.4521 273.315C54.3162 273.561 54.1105 273.761 53.861 273.889C53.6115 274.018 53.3293 274.07 53.0503 274.039C52.7712 274.007 52.5077 273.894 52.2931 273.713C52.0785 273.531 51.9225 273.291 51.8448 273.021C51.7671 272.751 51.7711 272.464 51.8564 272.197C51.9417 271.929 52.1044 271.693 52.324 271.518C52.5436 271.342 52.8101 271.236 53.09 271.213C53.2758 271.197 53.4629 271.218 53.6406 271.275C53.8183 271.331 53.983 271.423 54.1255 271.543C54.268 271.663 54.3854 271.81 54.471 271.976C54.5565 272.142 54.6086 272.323 54.6243 272.509Z" fill="white"/>
<path d="M63.5433 279.512C64.5039 278.373 64.3592 276.671 63.2201 275.711C62.081 274.75 60.3789 274.895 59.4183 276.034C58.4577 277.173 58.6024 278.875 59.7415 279.836C60.8806 280.796 62.5828 280.651 63.5433 279.512Z" fill="#FFA8A9"/>
<path d="M23.7587 291.783C23.8035 292.315 23.6896 292.848 23.4315 293.315C23.1734 293.782 22.7825 294.162 22.3084 294.407C21.8343 294.652 21.2983 294.751 20.768 294.691C20.2377 294.631 19.7371 294.416 19.3294 294.071C18.9217 293.727 18.6253 293.27 18.4776 292.757C18.3299 292.244 18.3376 291.699 18.4996 291.191C18.6617 290.682 18.9709 290.233 19.3881 289.901C19.8053 289.568 20.3118 289.367 20.8436 289.322C21.5566 289.262 22.2643 289.487 22.811 289.949C23.3576 290.411 23.6985 291.07 23.7587 291.783Z" fill="#FFA8A9"/>
<path d="M21.5426 391.448L20.1617 409.164H13.9308L13.2909 391.448H21.5426ZM20.4311 414.35C20.4311 414.844 20.3357 415.305 20.1449 415.731C19.954 416.158 19.6958 416.528 19.3702 416.843C19.0559 417.168 18.6854 417.421 18.2588 417.601C17.8321 417.791 17.3775 417.887 16.8947 417.887C16.4007 417.887 15.9404 417.791 15.5138 417.601C15.0872 417.421 14.7111 417.168 14.3855 416.843C14.0712 416.528 13.8186 416.158 13.6277 415.731C13.4481 415.305 13.3583 414.844 13.3583 414.35C13.3583 413.868 13.4481 413.407 13.6277 412.969C13.8186 412.532 14.0712 412.155 14.3855 411.841C14.7111 411.516 15.0872 411.257 15.5138 411.066C15.9404 410.876 16.4007 410.78 16.8947 410.78C17.3775 410.78 17.8321 410.876 18.2588 411.066C18.6854 411.257 19.0559 411.516 19.3702 411.841C19.6958 412.155 19.954 412.532 20.1449 412.969C20.3357 413.407 20.4311 413.868 20.4311 414.35Z" fill="black"/>
<path d="M42.9129 413.003C42.9129 413.497 42.8174 413.957 42.6266 414.384C42.4357 414.811 42.1775 415.187 41.8519 415.512C41.5376 415.827 41.1671 416.079 40.7405 416.27C40.3138 416.45 39.8592 416.54 39.3764 416.54C38.8824 416.54 38.4221 416.45 37.9955 416.27C37.5689 416.079 37.1928 415.827 36.8672 415.512C36.5529 415.187 36.3003 414.811 36.1094 414.384C35.9298 413.957 35.84 413.497 35.84 413.003C35.84 412.52 35.9298 412.06 36.1094 411.622C36.3003 411.184 36.5529 410.808 36.8672 410.494C37.1928 410.168 37.5689 409.91 37.9955 409.719C38.4221 409.528 38.8824 409.433 39.3764 409.433C39.8592 409.433 40.3138 409.528 40.7405 409.719C41.1671 409.91 41.5376 410.168 41.8519 410.494C42.1775 410.808 42.4357 411.184 42.6266 411.622C42.8174 412.06 42.9129 412.52 42.9129 413.003Z" fill="black"/>
<path d="M64.0305 413.003C64.0305 413.497 63.9351 413.957 63.7442 414.384C63.5534 414.811 63.2951 415.187 62.9696 415.512C62.6552 415.827 62.2847 416.079 61.8581 416.27C61.4315 416.45 60.9768 416.54 60.4941 416.54C60.0001 416.54 59.5398 416.45 59.1132 416.27C58.6865 416.079 58.3104 415.827 57.9849 415.512C57.6705 415.187 57.4179 414.811 57.227 414.384C57.0474 413.957 56.9576 413.497 56.9576 413.003C56.9576 412.52 57.0474 412.06 57.227 411.622C57.4179 411.184 57.6705 410.808 57.9849 410.494C58.3104 410.168 58.6865 409.91 59.1132 409.719C59.5398 409.528 60.0001 409.433 60.4941 409.433C60.9768 409.433 61.4315 409.528 61.8581 409.719C62.2847 409.91 62.6552 410.168 62.9696 410.494C63.2951 410.808 63.5534 411.184 63.7442 411.622C63.9351 412.06 64.0305 412.52 64.0305 413.003Z" fill="black"/>
<path d="M93.4335 406.873L92.7262 414.35L78.5468 415.462C78.6141 411.544 78.6871 407.648 78.7657 403.775C78.8555 399.901 78.9622 396.006 79.0857 392.088H87.8426C87.5844 394.546 87.3374 397.005 87.1016 399.464C86.8658 401.911 86.6974 404.381 86.5964 406.873C87.1241 406.896 87.6461 406.907 88.1625 406.907C88.679 406.907 89.201 406.907 89.7287 406.907C90.3574 406.907 90.9749 406.901 91.5811 406.89C92.1874 406.879 92.8048 406.873 93.4335 406.873Z" fill="black"/>
<path d="M115.04 404.583C115.04 405.605 114.922 406.593 114.686 407.547C114.45 408.49 114.108 409.377 113.659 410.208C113.221 411.038 112.682 411.802 112.042 412.498C111.413 413.183 110.7 413.772 109.903 414.266C109.117 414.76 108.259 415.147 107.327 415.428C106.395 415.698 105.407 415.832 104.363 415.832C103.352 415.832 102.387 415.703 101.466 415.445C100.557 415.187 99.7037 414.827 98.9066 414.367C98.1095 413.896 97.3854 413.334 96.7342 412.683C96.0943 412.021 95.5442 411.291 95.0839 410.494C94.6348 409.686 94.2812 408.821 94.0229 407.901C93.776 406.98 93.6525 406.02 93.6525 405.021C93.6525 404.044 93.7703 403.09 94.0061 402.158C94.2419 401.215 94.5787 400.328 95.0165 399.497C95.4656 398.666 96.0045 397.903 96.6332 397.207C97.2619 396.511 97.9636 395.91 98.7382 395.405C99.5241 394.9 100.372 394.507 101.281 394.226C102.19 393.946 103.15 393.805 104.161 393.805C105.789 393.805 107.271 394.058 108.607 394.563C109.954 395.068 111.099 395.792 112.042 396.735C112.996 397.667 113.732 398.801 114.248 400.137C114.776 401.462 115.04 402.944 115.04 404.583ZM107.562 405.021C107.562 404.538 107.49 404.072 107.344 403.623C107.209 403.163 107.007 402.759 106.737 402.411C106.468 402.051 106.131 401.765 105.727 401.552C105.334 401.327 104.879 401.215 104.363 401.215C103.835 401.215 103.364 401.31 102.948 401.501C102.533 401.692 102.174 401.956 101.87 402.293C101.579 402.618 101.354 403.006 101.197 403.455C101.04 403.893 100.961 404.358 100.961 404.852C100.961 405.324 101.028 405.796 101.163 406.267C101.298 406.739 101.5 407.165 101.769 407.547C102.039 407.929 102.37 408.237 102.763 408.473C103.167 408.709 103.633 408.827 104.161 408.827C104.688 408.827 105.16 408.726 105.575 408.524C106.002 408.31 106.361 408.03 106.653 407.682C106.945 407.322 107.17 406.913 107.327 406.452C107.484 405.992 107.562 405.515 107.562 405.021Z" fill="black"/>
<path d="M136.713 415.024L128.36 416.102L127.35 412.296H123.51L122.668 416.102L114.08 415.26L120.782 392.829L130.145 392.357L136.713 415.024ZM126.744 407.143L125.464 401.282L124.217 407.143H126.744Z" fill="black"/>
<path d="M156.147 403.101C156.147 404.673 155.944 406.093 155.54 407.362C155.136 408.619 154.569 409.742 153.839 410.73C153.121 411.706 152.262 412.548 151.263 413.256C150.264 413.963 149.169 414.547 147.979 415.007C146.789 415.456 145.52 415.793 144.173 416.018C142.837 416.231 141.462 416.337 140.047 416.337C139.52 416.337 139.003 416.326 138.498 416.304C137.993 416.27 137.476 416.225 136.949 416.169L137.42 393.57C138.655 393.177 139.924 392.902 141.226 392.744C142.54 392.576 143.842 392.492 145.133 392.492C146.738 392.492 148.215 392.733 149.562 393.216C150.909 393.699 152.071 394.395 153.048 395.304C154.025 396.213 154.782 397.325 155.321 398.638C155.871 399.952 156.147 401.439 156.147 403.101ZM149.242 404.179C149.253 403.573 149.186 402.989 149.04 402.427C148.905 401.866 148.675 401.372 148.35 400.946C148.035 400.508 147.631 400.16 147.137 399.901C146.643 399.632 146.054 399.486 145.369 399.464L144.695 409.905C145.369 409.803 145.981 409.585 146.531 409.248C147.081 408.9 147.552 408.479 147.945 407.985C148.35 407.48 148.658 406.924 148.872 406.318C149.096 405.7 149.22 405.066 149.242 404.415V404.179Z" fill="black"/>
<path d="M166.268 392.761L164.415 415.698L157.309 416.068V393.233L166.268 392.761Z" fill="black"/>
<path d="M190.349 392.323L189.137 415.159L180.312 415.967L175.597 403.741L174.856 416.203H167.278L167.884 392.323L176.304 391.919L182.131 404.044L182.4 392.593L190.349 392.323Z" fill="black"/>
<path d="M212.056 413.037C211.528 413.699 210.877 414.277 210.103 414.771C209.328 415.265 208.497 415.675 207.61 416.001C206.723 416.326 205.814 416.568 204.882 416.725C203.95 416.893 203.063 416.977 202.221 416.977C200.594 416.977 199.095 416.686 197.725 416.102C196.355 415.518 195.171 414.715 194.172 413.694C193.184 412.661 192.409 411.448 191.848 410.056C191.286 408.664 191.006 407.165 191.006 405.56C191.006 404.336 191.146 403.14 191.427 401.973C191.707 400.794 192.106 399.688 192.622 398.655C193.15 397.611 193.79 396.657 194.542 395.792C195.294 394.917 196.148 394.165 197.102 393.536C198.056 392.907 199.1 392.419 200.234 392.071C201.368 391.723 202.581 391.549 203.872 391.549C204.354 391.549 204.871 391.571 205.421 391.616C205.971 391.65 206.516 391.717 207.055 391.818C207.605 391.908 208.138 392.037 208.654 392.205C209.171 392.374 209.642 392.582 210.069 392.829L209.597 399.261C208.969 399.026 208.318 398.869 207.644 398.79C206.982 398.7 206.33 398.655 205.69 398.655C204.792 398.655 203.95 398.796 203.164 399.076C202.39 399.346 201.711 399.739 201.127 400.255C200.554 400.772 200.1 401.4 199.763 402.141C199.426 402.882 199.258 403.719 199.258 404.65C199.258 405.234 199.336 405.801 199.493 406.351C199.65 406.89 199.886 407.373 200.201 407.799C200.526 408.215 200.925 408.552 201.396 408.81C201.879 409.068 202.435 409.197 203.063 409.197C203.49 409.197 203.928 409.141 204.377 409.029C204.837 408.917 205.23 408.726 205.556 408.456L205.623 407.143L201.581 407.075L201.784 402.023C203.456 401.967 205.129 401.922 206.802 401.889C208.475 401.844 210.159 401.788 211.854 401.72L212.056 413.037Z" fill="black"/>
<path d="M233.342 413.003C233.342 413.497 233.247 413.957 233.056 414.384C232.865 414.811 232.607 415.187 232.281 415.512C231.967 415.827 231.596 416.079 231.17 416.27C230.743 416.45 230.288 416.54 229.806 416.54C229.312 416.54 228.851 416.45 228.425 416.27C227.998 416.079 227.622 415.827 227.297 415.512C226.982 415.187 226.73 414.811 226.539 414.384C226.359 413.957 226.269 413.497 226.269 413.003C226.269 412.52 226.359 412.06 226.539 411.622C226.73 411.184 226.982 410.808 227.297 410.494C227.622 410.168 227.998 409.91 228.425 409.719C228.851 409.528 229.312 409.433 229.806 409.433C230.288 409.433 230.743 409.528 231.17 409.719C231.596 409.91 231.967 410.168 232.281 410.494C232.607 410.808 232.865 411.184 233.056 411.622C233.247 412.06 233.342 412.52 233.342 413.003Z" fill="black"/>
<path d="M254.46 413.003C254.46 413.497 254.364 413.957 254.174 414.384C253.983 414.811 253.724 415.187 253.399 415.512C253.085 415.827 252.714 416.079 252.287 416.27C251.861 416.45 251.406 416.54 250.923 416.54C250.429 416.54 249.969 416.45 249.542 416.27C249.116 416.079 248.74 415.827 248.414 415.512C248.1 415.187 247.847 414.811 247.656 414.384C247.477 413.957 247.387 413.497 247.387 413.003C247.387 412.52 247.477 412.06 247.656 411.622C247.847 411.184 248.1 410.808 248.414 410.494C248.74 410.168 249.116 409.91 249.542 409.719C249.969 409.528 250.429 409.433 250.923 409.433C251.406 409.433 251.861 409.528 252.287 409.719C252.714 409.91 253.085 410.168 253.399 410.494C253.724 410.808 253.983 411.184 254.174 411.622C254.364 412.06 254.46 412.52 254.46 413.003Z" fill="black"/>
<path d="M277.312 391.448L275.931 409.164H269.7L269.06 391.448H277.312ZM276.201 414.35C276.201 414.844 276.105 415.305 275.914 415.731C275.723 416.158 275.465 416.528 275.14 416.843C274.825 417.168 274.455 417.421 274.028 417.601C273.602 417.791 273.147 417.887 272.664 417.887C272.17 417.887 271.71 417.791 271.283 417.601C270.857 417.421 270.48 417.168 270.155 416.843C269.841 416.528 269.588 416.158 269.397 415.731C269.217 415.305 269.128 414.844 269.128 414.35C269.128 413.868 269.217 413.407 269.397 412.969C269.588 412.532 269.841 412.155 270.155 411.841C270.48 411.516 270.857 411.257 271.283 411.066C271.71 410.876 272.17 410.78 272.664 410.78C273.147 410.78 273.602 410.876 274.028 411.066C274.455 411.257 274.825 411.516 275.14 411.841C275.465 412.155 275.723 412.532 275.914 412.969C276.105 413.407 276.201 413.868 276.201 414.35Z" fill="black"/>
<path fill-rule="evenodd" clip-rule="evenodd" d="M26.0164 387.309L24.1115 411.747C24.417 412.584 24.5698 413.459 24.5698 414.35C24.5698 415.393 24.3648 416.433 23.9227 417.421C23.5326 418.293 22.9903 419.087 22.2965 419.77C21.6061 420.471 20.7983 421.015 19.9065 421.397C18.943 421.821 17.9251 422.025 16.8947 422.025C15.867 422.025 14.8419 421.826 13.8663 421.397C12.9655 421.012 12.1546 420.465 11.459 419.769C10.7698 419.08 10.236 418.285 9.84981 417.421L9.8311 417.379L9.81332 417.337C9.40554 416.369 9.21955 415.358 9.21955 414.35C9.21955 413.34 9.41041 412.345 9.7987 411.399L9.81578 411.357L9.83376 411.316C9.84395 411.292 9.85424 411.269 9.86464 411.246L9 387.309H26.0164ZM13.9308 409.164H20.1617L21.5426 391.448H13.2908L13.9308 409.164ZM19.3702 411.841C19.0558 411.516 18.6853 411.257 18.2587 411.066C17.8321 410.876 17.3774 410.78 16.8947 410.78C16.4007 410.78 15.9404 410.876 15.5138 411.066C15.0871 411.257 14.711 411.516 14.3855 411.841C14.2159 412.011 14.0644 412.198 13.9308 412.404C13.8166 412.579 13.7156 412.768 13.6277 412.969C13.5827 413.079 13.5434 413.19 13.5097 413.302C13.4087 413.639 13.3582 413.988 13.3582 414.35C13.3582 414.844 13.448 415.305 13.6277 415.731C13.8185 416.158 14.0711 416.528 14.3855 416.843C14.711 417.168 15.0871 417.421 15.5138 417.6C15.9404 417.791 16.4007 417.887 16.8947 417.887C17.3774 417.887 17.8321 417.791 18.2587 417.6C18.6853 417.421 19.0558 417.168 19.3702 416.843C19.6957 416.528 19.954 416.158 20.1448 415.731C20.3357 415.305 20.4311 414.844 20.4311 414.35C20.4311 413.988 20.3774 413.639 20.2701 413.302C20.2386 413.203 20.2024 413.105 20.1617 413.009C20.1561 412.996 20.1505 412.982 20.1448 412.969C19.954 412.532 19.6957 412.155 19.3702 411.841ZM42.3887 420.067L42.3464 420.084C41.3897 420.487 40.3866 420.678 39.3764 420.678C38.3683 420.678 37.3579 420.492 36.3894 420.084L36.3472 420.067L36.3054 420.048C35.455 419.668 34.6748 419.148 33.9925 418.49L33.9402 418.439L33.8898 418.387C33.231 417.705 32.712 416.924 32.3315 416.074L32.3128 416.032L32.295 415.99C31.8872 415.022 31.7013 414.011 31.7013 413.003C31.7013 411.993 31.8921 410.998 32.2804 410.051L32.2975 410.01L32.3155 409.968C32.6978 409.091 33.2336 408.275 33.9407 407.567C34.6285 406.88 35.4253 406.335 36.3054 405.941C37.2937 405.499 38.3337 405.294 39.3764 405.294C40.4219 405.294 41.4545 405.505 42.4305 405.941C43.3024 406.331 44.0962 406.874 44.7788 407.568C45.4903 408.268 46.0344 409.083 46.4204 409.968C46.8412 410.934 47.0515 411.958 47.0515 413.003C47.0515 414.046 46.8465 415.086 46.4044 416.074C46.0106 416.954 45.4661 417.751 44.7783 418.439C44.0891 419.128 43.2938 419.662 42.4305 420.048L42.3887 420.067ZM36.8672 415.512C36.5528 415.187 36.3002 414.811 36.1094 414.384C35.9297 413.957 35.8399 413.497 35.8399 413.003C35.8399 412.52 35.9297 412.06 36.1094 411.622C36.3002 411.184 36.5528 410.808 36.8672 410.494C37.1927 410.168 37.5688 409.91 37.9955 409.719C38.4221 409.528 38.8824 409.433 39.3764 409.433C39.8591 409.433 40.3138 409.528 40.7404 409.719C41.167 409.91 41.5375 410.168 41.8519 410.494C42.1774 410.808 42.4357 411.184 42.6265 411.622C42.8174 412.06 42.9128 412.52 42.9128 413.003C42.9128 413.497 42.8174 413.957 42.6265 414.384C42.4357 414.811 42.1774 415.187 41.8519 415.512C41.5375 415.827 41.167 416.079 40.7404 416.27C40.3138 416.45 39.8591 416.54 39.3764 416.54C38.8824 416.54 38.4221 416.45 37.9955 416.27C37.5688 416.079 37.1927 415.827 36.8672 415.512ZM63.5063 420.067L63.4641 420.084C62.5073 420.487 61.5042 420.678 60.494 420.678C59.4859 420.678 58.4756 420.492 57.5071 420.084L57.4648 420.067L57.423 420.048C56.5726 419.668 55.7924 419.148 55.1101 418.49L55.0579 418.439L55.0075 418.387C54.3487 417.705 53.8296 416.924 53.4492 416.074L53.4304 416.032L53.4127 415.99C53.0049 415.022 52.8189 414.011 52.8189 413.003C52.8189 411.993 53.0098 410.998 53.398 410.051L53.4151 410.01L53.4331 409.968C53.8154 409.091 54.3513 408.275 55.0583 407.567C55.7461 406.88 56.5429 406.335 57.423 405.941C58.4113 405.499 59.4514 405.294 60.494 405.294C61.5396 405.294 62.5722 405.505 63.5481 405.941C64.42 406.331 65.2139 406.874 65.8965 407.568C66.6079 408.268 67.1521 409.083 67.5381 409.968C67.9588 410.934 68.1691 411.958 68.1691 413.003C68.1691 414.046 67.9642 415.086 67.522 416.074C67.1283 416.954 66.5838 417.751 65.896 418.439C65.2068 419.128 64.4114 419.662 63.5481 420.048L63.5063 420.067ZM57.9848 415.512C57.6705 415.187 57.4179 414.811 57.227 414.384C57.0474 413.957 56.9576 413.497 56.9576 413.003C56.9576 412.52 57.0474 412.06 57.227 411.622C57.4179 411.184 57.6705 410.808 57.9848 410.494C58.3104 410.168 58.6865 409.91 59.1131 409.719C59.5397 409.528 60 409.433 60.494 409.433C60.9768 409.433 61.4314 409.528 61.8581 409.719C62.2847 409.91 62.6552 410.168 62.9695 410.494C63.2951 410.808 63.5533 411.184 63.7442 411.622C63.935 412.06 64.0304 412.52 64.0304 413.003C64.0304 413.497 63.935 413.957 63.7442 414.384C63.5533 414.811 63.2951 415.187 62.9695 415.512C62.6552 415.827 62.2847 416.079 61.8581 416.27C61.4314 416.45 60.9768 416.54 60.494 416.54C60 416.54 59.5397 416.45 59.1131 416.27C58.6865 416.079 58.3104 415.827 57.9848 415.512ZM95.0838 410.494C94.6347 409.686 94.2811 408.821 94.0229 407.901C93.9355 407.575 93.8636 407.244 93.8071 406.909C93.704 406.296 93.6524 405.667 93.6524 405.021C93.6524 404.245 93.7269 403.483 93.8758 402.735C93.9142 402.541 93.9577 402.349 94.006 402.158C94.2418 401.215 94.5786 400.328 95.0165 399.497C95.4655 398.666 96.0044 397.903 96.6331 397.207C97.2618 396.511 97.9635 395.91 98.7382 395.405C99.524 394.9 100.372 394.507 101.281 394.226C102.19 393.946 103.15 393.805 104.161 393.805C105.789 393.805 107.271 394.058 108.607 394.563C109.954 395.068 111.099 395.792 112.042 396.735C112.996 397.667 113.732 398.801 114.248 400.137C114.254 400.152 114.26 400.167 114.266 400.181C114.781 401.495 115.039 402.962 115.039 404.583C115.039 405.605 114.922 406.593 114.686 407.547C114.45 408.49 114.108 409.377 113.659 410.208C113.221 411.038 112.682 411.802 112.042 412.498C111.485 413.104 110.863 413.636 110.174 414.093C110.147 414.11 110.12 414.128 110.093 414.146C110.03 414.186 109.967 414.227 109.903 414.266C109.117 414.76 108.258 415.147 107.327 415.428C106.395 415.698 105.407 415.832 104.363 415.832C103.352 415.832 102.387 415.703 101.466 415.445C100.557 415.187 99.7037 414.827 98.9066 414.367C98.2224 413.962 97.592 413.492 97.0154 412.955C96.9202 412.866 96.8264 412.775 96.7342 412.683C96.0942 412.021 95.5441 411.291 95.0838 410.494ZM101.197 403.455C101.04 403.893 100.961 404.358 100.961 404.852C100.961 405.324 101.028 405.795 101.163 406.267C101.298 406.739 101.5 407.165 101.769 407.547C102.039 407.929 102.37 408.237 102.763 408.473C103.167 408.709 103.633 408.827 104.161 408.827C104.688 408.827 105.16 408.726 105.575 408.524C106.002 408.31 106.361 408.03 106.653 407.682C106.945 407.322 107.169 406.913 107.327 406.452C107.484 405.992 107.562 405.515 107.562 405.021C107.562 404.538 107.489 404.072 107.344 403.623C107.209 403.163 107.007 402.759 106.737 402.411C106.468 402.051 106.131 401.765 105.727 401.552C105.334 401.327 104.879 401.215 104.363 401.215C103.835 401.215 103.364 401.31 102.948 401.501C102.533 401.692 102.174 401.956 101.87 402.293C101.579 402.618 101.354 403.006 101.197 403.455ZM104.661 404.804C104.582 404.771 104.505 404.745 104.431 404.726C104.43 404.726 104.431 404.726 104.431 404.726C104.407 404.72 104.384 404.715 104.363 404.711C104.268 404.692 104.198 404.688 104.161 404.688C104.156 404.688 104.122 404.689 104.065 404.7C104.023 404.708 103.967 404.721 103.903 404.744C103.86 404.759 103.814 404.778 103.765 404.802L104.002 405.29C104.06 405.308 104.113 405.321 104.161 405.331C104.249 405.349 104.318 405.353 104.36 405.354C104.36 405.354 104.36 405.354 104.36 405.354C104.36 405.354 104.361 405.354 104.363 405.353C104.38 405.352 104.478 405.344 104.623 405.285L104.82 404.947L104.661 404.804ZM104.824 404.94L104.682 404.813C104.709 404.825 104.737 404.838 104.764 404.852C104.792 404.867 104.82 404.882 104.848 404.898L104.824 404.94ZM104.858 404.981L104.695 405.253C104.731 405.235 104.773 405.21 104.817 405.178C104.869 405.14 104.912 405.099 104.947 405.061L104.858 404.981ZM103.95 405.272L103.724 404.822C103.712 404.828 103.694 404.838 103.672 404.852C103.655 404.863 103.637 404.876 103.617 404.892C103.579 404.921 103.543 404.955 103.509 404.991C103.518 405.001 103.528 405.011 103.538 405.021C103.558 405.041 103.58 405.061 103.602 405.08C103.628 405.102 103.653 405.121 103.677 405.139C103.702 405.156 103.726 405.172 103.749 405.186C103.765 405.194 103.781 405.202 103.797 405.209C103.85 405.234 103.901 405.255 103.95 405.272ZM104.862 404.975L104.892 404.924C104.927 404.945 104.963 404.97 104.999 404.999C104.993 405.007 104.987 405.014 104.982 405.021C104.972 405.032 104.962 405.044 104.952 405.055L104.862 404.975ZM96.5585 417.784L96.5187 418.204L74.3304 419.944L74.4087 415.391C74.4761 411.468 74.5492 407.568 74.6278 403.691L74.6281 403.679C74.7182 399.794 74.8252 395.887 74.949 391.957L75.0753 387.949H92.4386L91.9585 392.52C91.7888 394.136 91.624 395.752 91.464 397.368C92.0513 396.311 92.7513 395.33 93.5618 394.433C94.4263 393.476 95.3995 392.641 96.4773 391.938L96.4887 391.931L96.5001 391.924C97.608 391.212 98.7988 390.661 100.06 390.272C101.389 389.862 102.762 389.667 104.161 389.667C106.218 389.667 108.203 389.986 110.066 390.69C111.912 391.383 113.563 392.409 114.951 393.792C115.278 394.112 115.586 394.448 115.875 394.796L117.654 388.842L133.209 388.059L133.874 390.355L136.165 389.626C137.646 389.155 139.163 388.826 140.715 388.637C142.193 388.448 143.666 388.353 145.133 388.353C147.157 388.353 149.112 388.658 150.958 389.32C151.729 389.596 152.467 389.928 153.17 390.318V389.306L163.835 388.745L163.844 388.374L178.846 387.654L179.28 388.557L194.721 388.034L194.605 390.227C194.678 390.178 194.751 390.128 194.825 390.08C196.12 389.226 197.524 388.573 199.02 388.114C200.58 387.635 202.205 387.41 203.872 387.41C204.469 387.41 205.085 387.437 205.717 387.488C206.407 387.532 207.091 387.616 207.77 387.742C208.507 387.864 209.23 388.04 209.937 388.271C210.701 388.52 211.442 388.841 212.143 389.247L214.386 390.546L213.876 397.498L215.916 397.417L216.221 414.451L215.293 415.615C214.458 416.664 213.455 417.542 212.328 418.261C211.295 418.92 210.195 419.46 209.036 419.886C207.918 420.297 206.769 420.602 205.594 420.802C204.457 421.006 203.331 421.116 202.221 421.116C200.088 421.116 198.031 420.731 196.102 419.909C195.037 419.455 194.039 418.895 193.118 418.229L193.079 418.953L178.76 420.265L178.756 420.341H177.928L177.576 420.374L177.564 420.341H163.033L163.044 419.913L153.17 420.428V416.965C152.017 417.728 150.781 418.361 149.472 418.867L149.456 418.873L149.44 418.879C147.98 419.43 146.448 419.834 144.853 420.1L144.84 420.102L144.826 420.104C143.264 420.354 141.67 420.476 140.047 420.476C139.461 420.476 138.883 420.464 138.314 420.438L138.268 420.436L138.223 420.433C137.661 420.396 137.09 420.346 136.511 420.285L132.732 419.882L132.735 419.71L125.291 420.671L125.249 420.513L109.688 418.988C109.306 419.137 108.916 419.272 108.52 419.391L108.498 419.398L108.476 419.404C107.143 419.789 105.766 419.971 104.363 419.971C102.996 419.971 101.653 419.796 100.349 419.43L100.336 419.426C99.1071 419.077 97.9374 418.587 96.8369 417.951L96.8181 417.94L96.7994 417.929C96.7186 417.881 96.6383 417.833 96.5585 417.784ZM92.7262 414.35L93.4335 406.873C92.8048 406.873 92.1873 406.879 91.5811 406.89C91.3022 406.895 91.0209 406.899 90.7373 406.902C90.4044 406.905 90.0681 406.907 89.7286 406.907H88.1625C87.6959 406.907 87.2248 406.898 86.7491 406.879C86.6982 406.877 86.6473 406.875 86.5963 406.873C86.6038 406.69 86.6115 406.508 86.6197 406.325C86.6732 405.125 86.7423 403.93 86.8271 402.741C86.9053 401.644 86.9968 400.551 87.1016 399.464C87.205 398.384 87.3107 397.305 87.4185 396.226C87.5563 394.847 87.6976 393.467 87.8425 392.088H79.0856C78.9621 396.006 78.8555 399.901 78.7656 403.775C78.7149 406.275 78.6665 408.785 78.6205 411.305C78.5952 412.688 78.5706 414.073 78.5467 415.462L92.7262 414.35ZM122.668 416.102L123.51 412.296H127.35L128.36 416.102L136.713 415.024L130.145 392.357L120.782 392.829L114.08 415.26L122.668 416.102ZM124.217 407.143H126.743L125.464 401.282L124.217 407.143ZM141.393 416.305C142.338 416.258 143.265 416.163 144.173 416.018C145.52 415.793 146.789 415.456 147.979 415.007C149.169 414.547 150.264 413.963 151.263 413.256C151.968 412.756 152.604 412.189 153.17 411.556C153.405 411.292 153.628 411.017 153.839 410.73C154.569 409.742 155.136 408.619 155.54 407.362C155.944 406.093 156.146 404.673 156.146 403.101C156.146 401.439 155.871 399.952 155.321 398.638C154.805 397.38 154.088 396.307 153.17 395.42C153.13 395.381 153.089 395.342 153.048 395.304C152.071 394.395 150.909 393.699 149.562 393.216C148.215 392.733 146.738 392.492 145.133 392.492C143.842 392.492 142.54 392.576 141.226 392.744C139.924 392.901 138.655 393.177 137.42 393.569L136.949 416.169C137.476 416.225 137.993 416.27 138.498 416.304C139.003 416.326 139.52 416.337 140.047 416.337C140.5 416.337 140.948 416.327 141.393 416.305ZM145.705 399.485C145.596 399.475 145.484 399.467 145.369 399.464L144.695 409.905C145.369 409.803 145.981 409.585 146.531 409.248C147.081 408.9 147.552 408.479 147.945 407.985C148.349 407.48 148.658 406.924 148.872 406.318C148.985 406.004 149.073 405.686 149.135 405.364C149.195 405.052 149.231 404.735 149.242 404.415V404.179C149.244 404.043 149.243 403.909 149.238 403.776C149.219 403.313 149.153 402.863 149.04 402.427C148.905 401.866 148.675 401.372 148.349 400.946C148.035 400.508 147.631 400.16 147.137 399.901C146.726 399.677 146.248 399.538 145.705 399.485ZM157.308 416.068L164.415 415.698L166.267 392.761L157.308 393.233V416.068ZM174.856 416.203L175.597 403.741L180.312 415.967L189.136 415.159L190.349 392.323L182.4 392.593L182.131 404.044L176.304 391.919L167.884 392.323L167.278 416.203H174.856ZM194.294 396.086C193.648 396.872 193.091 397.728 192.622 398.655C192.106 399.688 191.707 400.794 191.427 401.973C191.146 403.14 191.006 404.336 191.006 405.56C191.006 407.165 191.286 408.664 191.848 410.056C192.255 411.066 192.774 411.981 193.406 412.802C193.645 413.113 193.9 413.41 194.172 413.694C195.171 414.715 196.355 415.518 197.725 416.102C199.095 416.686 200.593 416.977 202.221 416.977C203.063 416.977 203.95 416.893 204.882 416.725C205.814 416.568 206.723 416.326 207.61 416.001C208.497 415.675 209.328 415.265 210.103 414.771C210.877 414.277 211.528 413.699 212.056 413.037L211.854 401.72C210.776 401.763 209.702 401.801 208.632 401.835C208.327 401.845 208.022 401.854 207.717 401.863C207.573 401.867 207.428 401.871 207.284 401.875C207.264 401.876 207.245 401.876 207.225 401.877C207.084 401.881 206.943 401.885 206.802 401.889C206.431 401.896 206.061 401.904 205.69 401.913C205.191 401.924 204.691 401.937 204.191 401.95C204.182 401.95 204.173 401.951 204.164 401.951C203.675 401.964 203.185 401.979 202.695 401.994C202.685 401.994 202.675 401.994 202.666 401.995C202.372 402.004 202.078 402.013 201.783 402.023L201.581 407.075L205.623 407.143L205.556 408.456C205.23 408.726 204.837 408.917 204.377 409.029C203.928 409.141 203.49 409.197 203.063 409.197C202.501 409.197 201.997 409.094 201.551 408.887C201.499 408.863 201.447 408.837 201.396 408.81C200.925 408.552 200.526 408.215 200.201 407.799C200.018 407.552 199.863 407.286 199.733 407.001C199.639 406.795 199.559 406.578 199.493 406.351C199.336 405.801 199.257 405.234 199.257 404.65C199.257 403.719 199.426 402.882 199.763 402.141C199.793 402.075 199.824 402.01 199.855 401.946C200.181 401.289 200.605 400.726 201.127 400.255C201.311 400.092 201.505 399.941 201.709 399.802C202.149 399.503 202.635 399.261 203.164 399.076C203.892 398.816 204.668 398.677 205.492 398.658C205.558 398.656 205.624 398.655 205.69 398.655C206.029 398.655 206.371 398.668 206.716 398.693C206.723 398.694 206.73 398.694 206.738 398.695C207.037 398.717 207.339 398.749 207.644 398.79C208.318 398.869 208.969 399.026 209.597 399.261L210.069 392.829C209.642 392.582 209.171 392.374 208.654 392.205C208.138 392.037 207.605 391.908 207.054 391.818C206.516 391.717 205.971 391.65 205.421 391.616C204.871 391.571 204.354 391.549 203.872 391.549C202.581 391.549 201.368 391.723 200.234 392.071C199.1 392.419 198.056 392.907 197.102 393.536C196.148 394.165 195.294 394.917 194.542 395.792C194.458 395.889 194.375 395.987 194.294 396.086ZM232.818 420.067L232.776 420.084C231.819 420.487 230.816 420.678 229.806 420.678C228.798 420.678 227.787 420.492 226.819 420.084L226.776 420.067L226.735 420.048C225.884 419.668 225.104 419.148 224.422 418.49L224.37 418.439L224.319 418.387C223.66 417.705 223.141 416.924 222.761 416.074L222.742 416.032L222.724 415.99C222.317 415.022 222.131 414.011 222.131 413.003C222.131 411.993 222.321 410.998 222.71 410.051L222.727 410.01L222.745 409.968C223.127 409.091 223.663 408.275 224.37 407.567C225.058 406.88 225.855 406.335 226.735 405.941C227.723 405.499 228.763 405.294 229.806 405.294C230.851 405.294 231.884 405.505 232.86 405.941C233.732 406.331 234.525 406.874 235.208 407.567C235.919 408.268 236.464 409.083 236.85 409.968C237.27 410.934 237.481 411.958 237.481 413.003C237.481 414.046 237.276 415.086 236.834 416.074C236.44 416.954 235.895 417.751 235.208 418.439C234.518 419.128 233.723 419.662 232.86 420.048L232.818 420.067ZM227.296 415.512C226.982 415.187 226.729 414.811 226.539 414.384C226.359 413.957 226.269 413.497 226.269 413.003C226.269 412.52 226.359 412.06 226.539 411.622C226.729 411.184 226.982 410.808 227.296 410.494C227.622 410.168 227.998 409.91 228.425 409.719C228.851 409.528 229.312 409.433 229.806 409.433C230.288 409.433 230.743 409.528 231.17 409.719C231.596 409.91 231.967 410.168 232.281 410.494C232.607 410.808 232.865 411.184 233.056 411.622C233.247 412.06 233.342 412.52 233.342 413.003C233.342 413.497 233.247 413.957 233.056 414.384C232.865 414.811 232.607 415.187 232.281 415.512C231.967 415.827 231.596 416.079 231.17 416.27C230.743 416.45 230.288 416.54 229.806 416.54C229.312 416.54 228.851 416.45 228.425 416.27C227.998 416.079 227.622 415.827 227.296 415.512ZM253.936 420.067L253.893 420.084C252.937 420.487 251.934 420.678 250.923 420.678C249.915 420.678 248.905 420.492 247.936 420.084L247.894 420.067L247.852 420.048C247.002 419.668 246.222 419.148 245.539 418.49L245.487 418.439L245.437 418.387C244.778 417.705 244.259 416.924 243.878 416.074L243.86 416.032L243.842 415.99C243.434 415.022 243.248 414.011 243.248 413.003C243.248 411.993 243.439 410.998 243.827 410.051L243.844 410.01L243.862 409.968C244.245 409.091 244.781 408.275 245.488 407.567C246.175 406.88 246.972 406.335 247.852 405.941C248.841 405.499 249.881 405.294 250.923 405.294C251.969 405.294 253.001 405.505 253.977 405.941C254.849 406.331 255.643 406.874 256.326 407.567C257.037 408.268 257.581 409.083 257.967 409.968C258.388 410.934 258.598 411.958 258.598 413.003C258.598 414.046 258.393 415.086 257.951 416.074C257.558 416.954 257.013 417.751 256.325 418.439C255.636 419.128 254.841 419.662 253.977 420.048L253.936 420.067ZM248.414 415.512C248.1 415.187 247.847 414.811 247.656 414.384C247.477 413.957 247.387 413.497 247.387 413.003C247.387 412.52 247.477 412.06 247.656 411.622C247.847 411.184 248.1 410.808 248.414 410.494C248.74 410.168 249.116 409.91 249.542 409.719C249.969 409.528 250.429 409.433 250.923 409.433C251.406 409.433 251.861 409.528 252.287 409.719C252.714 409.91 253.084 410.168 253.399 410.494C253.724 410.808 253.983 411.184 254.173 411.622C254.364 412.06 254.46 412.52 254.46 413.003C254.46 413.497 254.364 413.957 254.173 414.384C253.983 414.811 253.724 415.187 253.399 415.512C253.084 415.827 252.714 416.079 252.287 416.27C251.861 416.45 251.406 416.54 250.923 416.54C250.429 416.54 249.969 416.45 249.542 416.27C249.116 416.079 248.74 415.827 248.414 415.512ZM281.786 387.309L279.881 411.747C280.186 412.584 280.339 413.459 280.339 414.35C280.339 415.393 280.134 416.433 279.692 417.421C279.302 418.293 278.76 419.087 278.066 419.77C277.375 420.471 276.568 421.015 275.676 421.397C274.712 421.821 273.694 422.025 272.664 422.025C271.636 422.025 270.611 421.826 269.636 421.397C268.735 421.012 267.924 420.465 267.228 419.769C266.539 419.08 266.005 418.285 265.619 417.421L265.6 417.379L265.583 417.337C265.175 416.369 264.989 415.358 264.989 414.35C264.989 413.34 265.18 412.345 265.568 411.399L265.585 411.357L265.603 411.316C265.613 411.292 265.624 411.269 265.634 411.246L264.769 387.309H281.786ZM269.7 409.164H275.931L277.312 391.448H269.06L269.7 409.164ZM275.14 411.841C274.825 411.516 274.455 411.257 274.028 411.066C273.601 410.876 273.147 410.78 272.664 410.78C272.17 410.78 271.71 410.876 271.283 411.066C270.856 411.257 270.48 411.516 270.155 411.841C269.985 412.011 269.834 412.198 269.7 412.404C269.586 412.579 269.485 412.768 269.397 412.969C269.352 413.079 269.313 413.19 269.279 413.302C269.178 413.639 269.128 413.988 269.128 414.35C269.128 414.844 269.217 415.305 269.397 415.731C269.588 416.158 269.84 416.528 270.155 416.843C270.48 417.168 270.856 417.421 271.283 417.6C271.71 417.791 272.17 417.887 272.664 417.887C273.147 417.887 273.601 417.791 274.028 417.6C274.455 417.421 274.825 417.168 275.14 416.843C275.465 416.528 275.723 416.158 275.914 415.731C276.105 415.305 276.2 414.844 276.2 414.35C276.2 413.988 276.147 413.639 276.039 413.302C276.008 413.203 275.972 413.105 275.931 413.009C275.925 412.996 275.92 412.982 275.914 412.969C275.723 412.532 275.465 412.155 275.14 411.841Z" fill="white"/>
</svg>
