<svg xmlns="http://www.w3.org/2000/svg" viewBox="0 0 288.53818 378.90801"><defs><style>.cls-1{isolation:isolate;}.cls-14,.cls-2{fill:#31023b;}.cls-3,.cls-31,.cls-33,.cls-35{fill:#fff;}.cls-12,.cls-4{fill:#d6d6d6;}.cls-11,.cls-4{opacity:0.53;}.cls-5{fill:#390345;}.cls-6{fill:#500461;}.cls-15,.cls-7{fill:#ffa8a9;}.cls-8{fill:#c97374;}.cls-9{fill:#eb8687;}.cls-10{fill:#f6cfff;}.cls-13,.cls-21,.cls-22,.cls-23,.cls-24,.cls-30,.cls-38{fill:none;stroke:#36103f;}.cls-13,.cls-21,.cls-22,.cls-23,.cls-24,.cls-28,.cls-30,.cls-31,.cls-33,.cls-35,.cls-38{stroke-miterlimit:10;}.cls-13{stroke-width:2.38985px;}.cls-14,.cls-15,.cls-28,.cls-31,.cls-35{stroke:#31023b;stroke-linecap:round;}.cls-14,.cls-15{stroke-linejoin:round;}.cls-14{stroke-width:1.92284px;}.cls-15{stroke-width:0.96142px;}.cls-16,.cls-28{fill:#f12747;}.cls-17{fill:#a61b31;}.cls-18{fill:#000a0e;}.cls-19{fill:#36103f;}.cls-20{fill:#ffbd45;}.cls-21{stroke-width:3.54271px;}.cls-22{stroke-width:2.18921px;}.cls-23{stroke-width:2.91895px;}.cls-24{stroke-width:2.91107px;}.cls-25,.cls-29{opacity:0.34;}.cls-25,.cls-29,.cls-32,.cls-34,.cls-36{mix-blend-mode:multiply;}.cls-26,.cls-29{fill:#ff4551;}.cls-27{opacity:0.71;}.cls-28{stroke-width:2.63678px;}.cls-30{stroke-width:3.05659px;}.cls-31{stroke-width:3px;}.cls-32,.cls-37{fill:#3336b1;}.cls-32,.cls-36{opacity:0.42;}.cls-33{stroke:#1d1d1b;}.cls-34{fill:#694f72;opacity:0.47;}.cls-35{stroke-width:2.25408px;}.cls-38{stroke-width:2.27199px;}</style></defs><g class="cls-1"><g id="Layer_2" data-name="Layer 2"><g id="OBJECTS"><path class="cls-2" d="M100.06453,362.3751c-4.63183-.001-8.84131-1.90332-12.51172-5.65234-20.0791-20.51074-18.83886-91.042-18.77636-94.03418l.03564-1.71387,39.03516,7.43555,23.04541,29.52637.03271.43652c.1167,1.54395,2.686,38.01465-12.30761,55.25488A24.46954,24.46954,0,0,1,101.17244,362.34c-.37353.02343-.73633.03515-1.10156.03515Z"/><path class="cls-2" d="M70.22506,262.71891l36.8157,7.01249,22.43991,28.75122s4.5582,60.30749-28.4006,62.41128c-.344.02194-.67868.03263-1.01508.03263-31.89447,0-29.83993-98.20762-29.83993-98.20762m-2.82572-3.4884-.07172,3.4278c-.06314,3.01776-1.31045,74.14843,19.19129,95.08352,3.95264,4.03623,8.51019,6.08277,13.54608,6.08277.40115,0,.79358-.01261,1.19968-.03852a25.87059,25.87059,0,0,0,18.4465-9.20684c15.38626-17.692,12.77789-54.74631,12.65933-56.315l-.066-.87384-.53921-.69082-22.43991-28.75123-.671-.85974-1.07132-.20407-36.81571-7.01245-3.368-.64154Z"/><path class="cls-2" d="M154.835,362.54893a10.67535,10.67535,0,0,1-4.19922-.67969c-9.3789-4.126.05664-33.87011,2.28418-40.46582l-.3584-14.35254L180.21,276.8878,206.7452,268.17l.2539,1.69727c5.82813,38.9082-5.17968,61.27246-15.44043,73.18262-13.28711,15.42285-29.82812,19.499-36.7207,19.499Z"/><path class="cls-2" d="M205.56624,270.082c10.81314,72.1933-35.48825,91.01785-50.73147,91.01785a9.43232,9.43232,0,0,1-3.6153-.55667c-8.76562-3.85678,3.15558-38.91928,3.15558-38.91928l-.35059-14.025,26.99808-29.45252,24.5437-8.06439m2.35745-3.82507-3.26208,1.07184-24.5437,8.06439-.71976.23648-.51193.55847-26.99808,29.45252-.79007.86184.02924,1.16886.33786,13.51681a169.841,169.841,0,0,0-4.79474,17.87039c-2.88989,14.18082-1.81528,21.85059,3.3819,24.1373a12.06587,12.06587,0,0,0,4.78244.8021c7.122,0,24.1929-4.18155,37.82476-20.00727,10.45667-12.13952,21.68125-34.89065,15.7728-74.338l-.50864-3.39578Z"/><path class="cls-3" d="M139.65438,330.78917c-45.04444,0-70.87891-23.91407-70.87891-65.60938a68.25175,68.25175,0,0,1,2.54492-18.60449l.1792-.63281.59424-.28223c12.0708-5.71973,31.98291-12.53809,58.29785-12.53809,23.97266,0,49.13477,5.60743,74.78613,16.667l.708.30566.14258.75684c.31543,1.67089.583,3.376.79395,5.06835a78.942,78.942,0,0,1,.55175,9.25977c0,22.25391-6.66015,39.251-19.7959,50.51953C175.95027,325.712,159.82625,330.78917,139.65438,330.78917Z"/><path class="cls-2" d="M130.39263,234.5713c20.85949-.00049,45.74411,4.275,74.21182,16.54871q.465,2.46.78,4.98a77.03211,77.03211,0,0,1,.54,9.08c0,22.86-7.19,39.04-19.29,49.42-11.73,10.1-28.09,14.74-46.98,14.74-38.34,0-69.43-18.06-69.43-64.16a66.69521,66.69521,0,0,1,2.49-18.21c12.63751-5.98852,32.14047-12.39813,57.67816-12.39871m.00332-2.8981v2.89807l-.00116-2.89807c-26.58825.00067-46.717,6.89465-58.92135,12.67792l-1.18884.56338-.35849,1.26581A69.70711,69.70711,0,0,0,67.32637,265.18c0,22.63114,7.20026,39.99552,21.40076,51.61072,12.355,10.10575,29.96536,15.44736,50.92734,15.44736,20.52826,0,36.97079-5.19544,48.87094-15.44193,13.4668-11.55252,20.29712-28.91986,20.29712-51.61615a80.27058,80.27058,0,0,0-.56021-9.42144c-.21866-1.74967-.49051-3.48539-.81021-5.17682l-.28608-1.51328-1.41421-.60974c-25.83374-11.138-51.18713-16.78552-75.35587-16.78552Z"/><path class="cls-4" d="M205.92446,265.18c0,22.86-7.19,39.04-19.29,49.42-.56-9.05-5.36-17.7-12.27-23.67-7.76-6.72-17.91-10.27-28.11-11.38,10.19-.95,26.66-2.6367,36.6-.2167-11.13-12.0799-33.2-17.1533-49.6-18.0733,15.93-2.23,32.11-.35,48.08,1.53a71.2151,71.2151,0,0,0-34.39-12.34,173.17645,173.17645,0,0,1,23.67-.51,176.61541,176.61541,0,0,1,21.15,2.27c4.53.77,9.75,1.2,13.62,3.89A77.0326,77.0326,0,0,1,205.92446,265.18Z"/><path class="cls-2" d="M204.03133,252.45518c-25.28711-10.90527-50.06348-16.43457-73.64014-16.43457-25.771,0-45.2539,6.666-57.06006,12.25781l-2.8789,1.36328.86426-3.0664c8.27978-29.37793,35.74218-49.11621,68.33593-49.11621,33.56446,0,60.23926,21.45605,66.376,53.3916l.5166,2.6875Z"/><path class="cls-2" d="M139.65236,198.9087c33.48108,0,59.0101,21.28992,64.95328,52.21512-28.46515-12.275-53.35638-16.55163-74.2146-16.55237-25.54242-.00094-45.03973,6.41016-57.68,12.39734,8.07837-28.66348,34.98538-48.06009,66.94128-48.06009m0-2.89807c-33.25036,0-61.273,20.1626-69.73068,50.172l-1.72842,6.13278,5.75839-2.72751c11.67154-5.52838,30.93661-12.11841,56.43387-12.11841,23.3858.0008,47.96914,5.49015,73.07254,16.31546l5.02667,2.16767-1.03311-5.37576a66.00409,66.00409,0,0,0-23.16858-39.407c-12.20789-9.91729-27.6409-15.1593-44.63068-15.1593Z"/><path class="cls-2" d="M74.49666,244.84581c-1.44189-1.34375-35.3042-33.09766-34.21826-49.52539a8.99176,8.99176,0,0,1,3.86182-7.063,15.3739,15.3739,0,0,1,9.09033-2.55811c19.33594,0,50.57226,24.01074,51.89258,25.0332l.33642.25977.14209.40137c4.12061,11.61523-25.89551,31.39258-29.33154,33.60937l-.94824.61133Z"/><path class="cls-2" d="M53.23058,187.14851c19.06274,0,51.00519,24.7298,51.00519,24.7298,3.85678,10.86938-28.75132,31.90689-28.75132,31.90689s-46.2825-43.12689-30.5043-54.3469a13.95415,13.95415,0,0,1,8.25043-2.28979m0-2.89807a16.7812,16.7812,0,0,0-9.92993,2.82608,10.515,10.515,0,0,0-4.46823,8.14838c-.48795,7.38357,5.288,18.22546,17.16745,32.22448a242.393,242.393,0,0,0,17.50891,18.45606l1.65078,1.53824,1.896-1.22324a163.27176,163.27176,0,0,0,16.1441-12.1185c11.33207-9.778,15.83542-17.36438,13.76734-23.19275l-.28449-.8017-.67263-.52075c-1.33622-1.03451-32.9538-25.3363-52.7793-25.3363Z"/><path class="cls-5" d="M41.55476,188.625s-7.9166,7.0833,4.25,24.9167c14.5,11.1666,33.1747-12.1667,27.4247-19.4167s-6.0497-8.5-16.7997-9.625S41.55476,188.625,41.55476,188.625Z"/><path class="cls-6" d="M80.84462,225.51016c-4.37327,5.136-8.29653,11.2956-9.34284,18.0737-.12148.787,1.08282,1.12611,1.20535.3323,1.014-6.56859,4.7799-12.54092,9.02137-17.52211.51874-.60922-.36136-1.49753-.88388-.88389Z"/><path class="cls-6" d="M77.7971,225.94265q1.254-1.37136,2.5081-2.7427a.625.625,0,0,0-.88388-.88389q-1.25414,1.37129-2.5081,2.7427a.625.625,0,0,0,.88388.88389Z"/><path class="cls-7" d="M44.69446,198.4a1.75339,1.75339,0,0,1-2.44-.39,2.016,2.016,0,0,1-.18-.32,1.747,1.747,0,0,1,3.01-1.74,1.72537,1.72537,0,0,1-.39,2.45Z"/><path class="cls-3" d="M44.12966,195.84381c.1191.2923-.227.2981-.7044.4927s-.9055.504-1.0246.2116.1714-.6869.6489-.8814S44.01056,195.55151,44.12966,195.84381Z"/><path class="cls-8" d="M44.69446,198.4a1.75339,1.75339,0,0,1-2.44-.39,2.016,2.016,0,0,1-.18-.32c.46-.04,1.31.19,1.73.1a1.85527,1.85527,0,0,0,1.41-1.56c.05.08.09.16.14.25A1.76962,1.76962,0,0,1,44.69446,198.4Z"/><path class="cls-7" d="M48.02446,192.07991a1.7472,1.7472,0,1,1,.39-2.4399,1.60908,1.60908,0,0,1,.17.28A1.74016,1.74016,0,0,1,48.02446,192.07991Z"/><path class="cls-3" d="M47.66136,189.61751c.0735.3069-.2695.2603-.7708.3803s-.9714.361-1.0449.0541.2735-.6531.7749-.7731S47.588,189.31051,47.66136,189.61751Z"/><path class="cls-8" d="M48.02446,192.07991a1.75077,1.75077,0,0,1-2.66-.7799,6.78846,6.78846,0,0,0,1.43.1,2.71684,2.71684,0,0,0,1.79-1.48A1.74016,1.74016,0,0,1,48.02446,192.07991Z"/><path class="cls-7" d="M55.59446,187.86a1.75413,1.75413,0,0,1-1.76,1.75,1.73388,1.73388,0,0,1-1.74-1.63.48686.48686,0,0,1-.01-.12,1.75208,1.75208,0,0,1,3.39-.62A1.59333,1.59333,0,0,1,55.59446,187.86Z"/><path class="cls-3" d="M54.55076,186.87731c.0305.3141-.3027.2208-.8158.2707s-1.0118.224-1.0424-.0902.3607-.6092.8738-.6591S54.52026,186.56311,54.55076,186.87731Z"/><path class="cls-8" d="M55.59446,187.86a1.75413,1.75413,0,0,1-1.76,1.75,1.73388,1.73388,0,0,1-1.74-1.63c.21.08.43.2.55.23a2.569,2.569,0,0,0,1.26.06,2.51208,2.51208,0,0,0,1.57-1.03A1.59333,1.59333,0,0,1,55.59446,187.86Z"/><path class="cls-7" d="M63.73446,199.96a7.97,7.97,0,0,1-15.94,0,7.87229,7.87229,0,0,1,.04-.84,7.9716,7.9716,0,0,1,7.93-7.14,8.00526,8.00526,0,0,1,7.97,7.98Z"/><path class="cls-9" d="M63.73446,199.96a7.97,7.97,0,0,1-15.94,0,7.87229,7.87229,0,0,1,.04-.84c.14.11.29.23.44.37a7.2354,7.2354,0,0,0,4.48,1.73,9.33369,9.33369,0,0,0,6.28-1.6401,5.97486,5.97486,0,0,0,2.42-5.1899A7.86919,7.86919,0,0,1,63.73446,199.96Z"/><path class="cls-3" d="M58.02166,194.32611c.1001,1.0306-.9932.7244-2.6767.888s-3.3194.735-3.4196-.2957,1.1834-1.9988,2.8668-2.1624S57.92146,193.29541,58.02166,194.32611Z"/><path class="cls-2" d="M199.36434,245.003c-3.43653-2.21679-33.45313-21.99414-29.33106-33.60937l.1416-.40137.33692-.25977c1.32031-1.02246,32.55664-25.0332,51.89258-25.0332a15.37235,15.37235,0,0,1,9.08984,2.55811,8.99111,8.99111,0,0,1,3.86133,7.0625c1.08594,16.42822-32.77637,48.18213-34.21778,49.52588l-.82617.76855Z"/><path class="cls-2" d="M222.40355,187.14851a13.95241,13.95241,0,0,1,8.2504,2.28979c15.77811,11.22-30.5044,54.3469-30.5044,54.3469s-32.60809-21.03751-28.75119-31.90689c0,0,31.94245-24.7283,51.00519-24.7298m.00171-2.89807h-.00195c-19.82535.00159-51.44278,24.30179-52.779,25.33624l-.6727.52075-.28449.80173c-2.06811,5.82837,2.43515,13.4148,13.76725,23.19278a163.26934,163.26934,0,0,0,16.14407,12.1185l1.896,1.22324,1.65079-1.53824a242.39679,242.39679,0,0,0,17.50894-18.45606c11.87943-13.999,17.65543-24.84094,17.16748-32.22452a10.51485,10.51485,0,0,0-4.4682-8.14834,16.778,16.778,0,0,0-9.92819-2.82608Z"/><path class="cls-5" d="M234.35445,188.75s7.91661,7.0833-4.25,24.9167c-14.5,11.1666-31.16669-11.5834-25.41669-18.8334s4.04169-9.0833,14.79169-10.2083S234.35445,188.75,234.35445,188.75Z"/><path class="cls-7" d="M232.20665,197.98331a1.75339,1.75339,0,0,0,2.44-.39,2.02448,2.02448,0,0,0,.1801-.32,1.747,1.747,0,0,0-3.01-1.74,1.72511,1.72511,0,0,0,.3899,2.45Z"/><path class="cls-3" d="M232.77145,195.42711c-.1191.2923.227.2982.7044.4927s.9055.504,1.0246.2117-.17139-.687-.6489-.8815S232.89055,195.13481,232.77145,195.42711Z"/><path class="cls-8" d="M232.20665,197.98331a1.75339,1.75339,0,0,0,2.44-.39,2.02448,2.02448,0,0,0,.1801-.32c-.4601-.04-1.3101.19-1.7301.1a1.85527,1.85527,0,0,1-1.41-1.56c-.0499.08-.09.16-.14.25A1.76962,1.76962,0,0,0,232.20665,197.98331Z"/><path class="cls-7" d="M228.87675,191.66331a1.74721,1.74721,0,1,0-.3901-2.44,1.60242,1.60242,0,0,0-.1699.28A1.74006,1.74006,0,0,0,228.87675,191.66331Z"/><path class="cls-3" d="M229.23975,189.20081c-.0735.307.2695.2604.7709.3803s.9713.3611,1.0448.0541-.2735-.6531-.7749-.773S229.31315,188.89381,229.23975,189.20081Z"/><path class="cls-8" d="M228.87675,191.66331a1.75052,1.75052,0,0,0,2.6599-.78,6.78763,6.78763,0,0,1-1.43.1,2.71667,2.71667,0,0,1-1.7899-1.48A1.74006,1.74006,0,0,0,228.87675,191.66331Z"/><path class="cls-7" d="M221.30665,187.44331a1.75409,1.75409,0,0,0,1.7601,1.75,1.73386,1.73386,0,0,0,1.7399-1.63.48218.48218,0,0,0,.0101-.12,1.75214,1.75214,0,0,0-3.3901-.62A1.59333,1.59333,0,0,0,221.30665,187.44331Z"/><path class="cls-3" d="M222.35035,186.46061c-.0305.3142.30271.2208.8159.2707s1.01181.224,1.0423-.0901-.3607-.6093-.8738-.6591S222.38085,186.14651,222.35035,186.46061Z"/><path class="cls-8" d="M221.30665,187.44331a1.75409,1.75409,0,0,0,1.7601,1.75,1.73386,1.73386,0,0,0,1.7399-1.63c-.21.08-.4299.2-.5499.23a2.56828,2.56828,0,0,1-1.2601.06,2.51208,2.51208,0,0,1-1.57-1.03A1.59333,1.59333,0,0,0,221.30665,187.44331Z"/><path class="cls-7" d="M213.16665,199.54331a7.97181,7.97181,0,1,0,7.9701-7.98,8.00543,8.00543,0,0,0-7.9701,7.98Z"/><path class="cls-9" d="M213.16665,199.54331a7.97011,7.97011,0,1,0,15.9001-.84c-.1401.11-.2901.23-.44.37a7.2359,7.2359,0,0,1-4.4801,1.73,9.33445,9.33445,0,0,1-6.28-1.64,5.97482,5.97482,0,0,1-2.4199-5.19A7.86886,7.86886,0,0,0,213.16665,199.54331Z"/><path class="cls-3" d="M218.87945,193.90941c-.1001,1.0307.9932.7244,2.6767.888s3.3195.7351,3.4196-.2956-1.1833-1.9988-2.8668-2.1624S218.97965,192.87871,218.87945,193.90941Z"/><path class="cls-6" d="M196.27521,221.31248a17.65113,17.65113,0,0,1,5.11828,4.69618.64325.64325,0,0,0,.85511.22422.62983.62983,0,0,0,.22422-.85512,19.1896,19.1896,0,0,0-5.56672-5.14462.62547.62547,0,0,0-.63089,1.07934Z"/><path class="cls-6" d="M196.96841,226.39405a31.41251,31.41251,0,0,1,7.09627,16.01371c.119.7928,1.32369.45591,1.20535-.3323a32.55376,32.55376,0,0,0-7.41773-16.5653c-.52175-.61381-1.40227.274-.88389.88389Z"/><path class="cls-4" d="M179.68776,206.16661c5.1099.0983,10.6279,1.2495,17.9067-2.9666a50.84682,50.84682,0,0,1-8.17,6.41l-.15.09C186.27446,209.59,182.44776,207.35661,179.68776,206.16661Z"/><path class="cls-2" d="M64.31014,146.067a25.4397,25.4397,0,0,1-6.42334-.86475c-13.53516-3.54346-22.78809-20.43262-19.04-34.75195,3.10791-11.87256,12.04736-19.54346,22.7749-19.54346A26.87446,26.87446,0,0,1,72.25545,93.2501C84.52449,98.5377,89.92,111.628,86.00057,126.59922,82.80965,138.78917,74.70125,146.067,64.31014,146.067Z"/><path class="cls-2" d="M61.62191,92.35566A25.37219,25.37219,0,0,1,71.68166,94.5805c12.53711,5.40331,16.37439,18.44461,12.91721,31.65161-2.90394,11.09334-10.20081,18.38579-20.28824,18.38579a23.89734,23.89734,0,0,1-6.057-.8176c-13.20688-3.45719-21.46228-19.7765-18.0051-32.98339C42.92861,100.57875,50.83,92.35627,61.62191,92.35566m.00125-2.898h-.00141C50.21459,89.45823,40.72463,97.5542,37.445,110.083a31.20488,31.20488,0,0,0,2.99927,22.24414c3.85745,7.24218,10.08124,12.44585,17.07553,14.27677a26.888,26.888,0,0,0,6.79087.912c11.09094,0,19.72339-7.68221,23.09182-20.54993,4.11057-15.703-1.61-29.45973-14.57376-35.04692a28.31085,28.31085,0,0,0-11.20553-2.4615Z"/><path class="cls-7" d="M49.37186,113.39351c2.2632-8.6458,8.6008-13.764,17.2465-11.5008s14.0501,12.9464,11.7869,21.5922-10.213,15.0957-20.5773,10.6289C49.62066,130.57661,47.10866,122.03921,49.37186,113.39351Z"/><path class="cls-9" d="M57.60156,116.75941c2.6154-7.8237,8.8857-12.1086,16.9295-9.4196s12.5603,12.9255,9.9448,20.7492-10.1298,12.9027-19.6757,8.0604C57.241,132.31481,54.98606,124.58321,57.60156,116.75941Z"/><path class="cls-10" d="M64.83766,94.864c.5182,2.2421-2.8623,1.5169-6.9832,2.4693s-7.4218,3.222-7.94.9799,2.4024-4.8318,6.5233-5.7843S64.31946,92.62191,64.83766,94.864Z"/><path class="cls-2" d="M210.462,141.3336c-10.72754-.001-19.667-7.67188-22.77441-19.543-3.749-14.3208,5.50391-31.20947,19.03906-34.75244a25.45369,25.45369,0,0,1,6.42481-.86475c10.38965,0,18.498,7.27735,21.68945,19.46729,3.91895,14.97119-1.47656,28.062-13.74609,33.34961A26.8749,26.8749,0,0,1,210.464,141.3336Z"/><path class="cls-2" d="M213.15087,87.6222c10.08743,0,17.38434,7.29248,20.28821,18.3859,3.45718,13.20691-.38,26.2483-12.91721,31.6515a25.37494,25.37494,0,0,1-10.05972,2.22486c-10.79193,0-18.69336-8.22307-21.37339-18.46115C185.63155,108.2163,193.887,91.897,207.094,88.4398a23.89689,23.89689,0,0,1,6.05692-.8176m0-2.89805a26.88759,26.88759,0,0,0-6.79084.91205c-6.99432,1.83091-13.21814,7.0346-17.07562,14.27678a31.205,31.205,0,0,0-2.99924,22.24421c3.27982,12.52941,12.76987,20.62532,24.177,20.62532A28.31332,28.31332,0,0,0,221.6689,140.321c12.96381-5.58706,18.68439-19.34374,14.57376-35.0468-3.36831-12.86779-12.00079-20.55-23.09179-20.55Z"/><path class="cls-7" d="M225.79545,108.72681c-2.2632-8.6457-8.6007-13.764-17.2465-11.5008s-14.05,12.9464-11.78679,21.5922,10.2129,15.0957,20.57719,10.6289C225.54665,125.90991,228.05865,117.37261,225.79545,108.72681Z"/><path class="cls-9" d="M217.66345,113.22251c-2.187-8.3549-8.4687-13.2597-17.11449-10.9965s-14.1264,12.6546-11.9394,21.0094,10.0665,14.5362,20.44529,10.1246C217.27355,129.86651,219.85055,121.57731,217.66345,113.22251Z"/><path class="cls-10" d="M223.69425,92.67921c-.3596,2.2729-3.22219.3339-7.3998-.3271s-8.0883.2063-7.7287-2.0666,4.0378-3.5796,8.2154-2.9186S224.05385,90.40631,223.69425,92.67921Z"/><path class="cls-3" d="M139.47469,223.00792c-23.10742,0-41.15869-4.56153-53.65186-13.55665-14.915-10.73925-22.47754-28.07763-22.47754-51.5332,0-15.91308,2.53711-29.82373,7.54-41.34668A62.09127,62.09127,0,0,1,97.43416,86.51085c1.40967-.80567,2.89209-1.57911,4.40723-2.30079,10.71777-5.103,23.37939-7.69091,37.6333-7.69091,2.85937,0,5.64453.12011,8.27832.356.52734.04688.96387.08594,1.39062.13282.61622.05957,1.251.12158,1.88672.20361.36524.043.7461.09619,1.13379.15088l.15039.021c1.16992.15381,2.33985.33985,3.4668.55079l.0957.0166c.49219.08691.99219.17529,1.4834.28125.55957.10888,1.07031.209,1.5625.32715.37109.07373.79785.16943,1.21192.27587.65332.14307,1.35546.31836,2.04589.50391.34668.08887.709.18213,1.07129.28564.72949.2002,1.46289.42383,2.19629.64795.31055.09327.62891.18946.93653.29493.51367.165,1.05468.34814,1.584.53173.50195.17383.98242.34815,1.47461.53223,1.46875.54443,2.915,1.13525,4.29492,1.75488.46387.20166.94336.4209,1.41309.65039.88086.40625,1.81152.86963,2.73535,1.36377.45019.2295.91406.48243,1.36621.74561,1.46875.80957,2.93359,1.69873,4.32519,2.62646.32032.19678.67383.4419,1.0254.688,1.26562.86914,2.55468,1.82471,3.82324,2.834.21484.17187.42676.35156.63769.53125l.58594.43457-.002.03564c.041.03516.082.07031.123.106.35743.29736.72266.61084,1.08985.9458A64.87072,64.87072,0,0,1,198.086,101.84c10.9707,13.33154,16.84472,30.95459,17.457,52.377.041,1.21924.06055,2.45508.06055,3.70117a88.795,88.795,0,0,1-1.38477,16.06348c-2.18359,11.83056-7.03711,21.68408-14.42578,29.28613-.35742.37891-.75.7627-1.14258,1.14453l-.42187.41211-.01856.001a52.70829,52.70829,0,0,1-8.00879,6.2168l-.1748.10449a64.13438,64.13438,0,0,1-12.00879,5.89551l-.23047.11035-.07227.001c-.8789.32422-1.7666.63184-2.66308.92969-1.07324.34082-2.13867.665-3.21289.96973A120.6699,120.6699,0,0,1,139.47469,223.00792Z"/><path class="cls-2" d="M139.47444,77.9683c2.75,0,5.47.11,8.15.35.45.04.91.08,1.36.13.62.06,1.24.12,1.86.2.42.05.84.11,1.27.17,1.14.15,2.28.33,3.4.54.51.09,1.03.1799,1.54.29.51.1,1.03.2,1.53.32.4.08.8.17,1.19.27.68.15,1.36.32,2.03.5.35.09.7.1799,1.05.28.73.2,1.45.42,2.17.64.3.09.6.18.89.28.53.17,1.06.3499,1.58.53.49.17.96.34,1.44.52,1.43.53,2.83,1.1,4.21,1.72.46.2.92.41,1.37.63.91.42,1.81.87,2.69,1.34q.675.345,1.32.72,2.175,1.2,4.25,2.57991c.34.21009.67.44,1,.67009q1.92,1.32,3.75,2.78c.2.16.4.33.6.5.01.01.03.02.03.03.23.17.45.35.67.54.36.3.71.6,1.06.91991a63.095,63.095,0,0,1,7.08,7.34009c10.18,12.37,16.5,29.46991,17.13,51.5q.06,1.815.06,3.65988a87.01779,87.01779,0,0,1-1.36,15.80011c-2.23,12.08-7.14,21.44-14.04,28.54-.37.39-.76.77-1.15,1.15h-.01a50.84578,50.84578,0,0,1-8.17,6.41l-.15.09a62.47439,62.47439,0,0,1-11.8,5.79c-.01,0-.02.01-.03.01-.94.35-1.89.68-2.85,1-1.04.32993-2.09.65-3.15.95a119.16142,119.16142,0,0,1-31.97,3.9c-41.24,0-74.68-14.21-74.68-63.64011,0-16.3499,2.67-29.82989,7.42-40.76989a60.63386,60.63386,0,0,1,25.94-29.38q2.1-1.2,4.31-2.25c10.9-5.19,23.54-7.55,37.01-7.55m0-2.898c-14.47088,0-27.342,2.63487-38.25585,7.83145-1.548.73718-3.06266,1.52792-4.502,2.35037A63.52978,63.52978,0,0,0,69.55794,115.99c-5.08441,11.71025-7.66156,25.81555-7.66156,41.92816,0,23.94761,7.76511,41.68119,23.07965,52.70819,12.92462,9.30616,30.75119,13.83,54.49841,13.83a122.06293,122.06293,0,0,0,32.75324-4.00781c1.00424-.28421,2.06314-.60352,3.2431-.97782.92206-.30709,1.73474-.58929,2.49018-.86434h.16571l.47931-.237a65.62573,65.62573,0,0,0,12.19168-5.99527l.04284-.02573.07553-.04535.03022-.01813.02978-.01886a54.29843,54.29843,0,0,0,7.77143-5.95968h.02536l.854-.8223c.40326-.39288.82022-.79916,1.23-1.23111,7.56723-7.78622,12.55057-17.891,14.78748-30.00854a90.32436,90.32436,0,0,0,1.40817-16.32621c0-1.25543-.02072-2.519-.06159-3.75564-.62164-21.73947-6.60675-39.6583-17.78872-53.24581a66.19316,66.19316,0,0,0-7.38144-7.65493c-.23746-.21662-.48758-.43674-.76825-.67591v-.07663l-1.10626-.836c-.20438-.17356-.40793-.34525-.61124-.50791-1.30435-1.03709-2.62048-2.01269-3.9187-2.90523-.312-.2176-.68067-.47464-1.07449-.72007-1.40415-.93435-2.88047-1.83031-4.3892-2.66373-.457-.265-.92984-.52286-1.40646-.76695-.93219-.49732-1.87-.96454-2.78824-1.389-.45157-.22016-.94186-.44543-1.45788-.6698-1.37412-.61756-2.85129-1.22114-4.35843-1.77972-.49216-.18457-.98422-.36255-1.49719-.54051-.53287-.18454-1.07435-.36829-1.61588-.54234-.31665-.10834-.64334-.20714-.97021-.30521-.71482-.21846-1.46738-.44841-2.23813-.65958-.34076-.09762-.71256-.1936-1.08445-.28923-.73559-.19766-1.42623-.36809-2.09014-.51536-.39563-.10051-.81223-.19509-1.23975-.28147-.48407-.11465-.98434-.21344-1.47809-.31012l-.09021-.01767c-.49719-.10662-1.00275-.19638-1.501-.28415l-.11846-.0209c-1.12015-.21017-2.31653-.40022-3.52555-.55933l-.13412-.01884c-.39518-.05531-.7833-.10941-1.17136-.15558-.62234-.08046-1.27289-.14391-1.92346-.20685-.39624-.04432-.84232-.08415-1.28079-.12308l-.10175-.009c-2.67709-.23974-5.5061-.36137-8.40662-.36137Z"/><path class="cls-4" d="M212.79445,173.51c-2.23,12.08-7.14,21.44-14.04,28.54a43.27446,43.27446,0,0,1-22.89.44,36.86679,36.86679,0,0,0,25.02-12.02,33.16651,33.16651,0,0,1-23.63,2.64,44.70491,44.70491,0,0,0,28.66-12.8C207.81445,178.42,210.91445,172.47,212.79445,173.51Z"/><path class="cls-4" d="M196.96446,102.66831a15.27024,15.27024,0,0,1-1.88,2.29,26.60989,26.60989,0,0,1-7.41,4.9,137.79738,137.79738,0,0,1-14.84,5.8,24.09,24.09,0,0,0,10.67-14.33c-7.03,5.97-16.44,8.15-25.52,9.8q-4.425.795-8.88,1.49a75.88332,75.88332,0,0,0,13.41-5.65c1.91-1.03,3.97-2.47,4.64-4.41a.59019.59019,0,0,1-.14.02c-.24.47-.46.95-.68,1.42l.5-1.39a68.76831,68.76831,0,0,1-10.31.84c-15.08-.2-29.1-.5-43.65-4.44-6.19-1.67-12.94-5.16-14.72-11.33q2.1-1.2,4.31-2.25c10.9-5.19,23.54-7.55,37.01-7.55,2.75,0,5.47.11,8.15.35.45.04.91.08,1.36.13.62.06,1.24.12,1.86.2.42.05.84.11,1.27.17,1.14.15,2.28.33,3.4.54.51.09,1.03.18,1.54.29.51.1,1.03.2,1.53.32.4.08.8.17,1.19.27.68.15,1.36.32,2.03.5.35.09.7.18,1.05.28.73.2,1.45.42,2.17.64.3.09.6.18.89.28.53.17,1.06.35,1.58.53.49.17.96.34,1.44.52,1.43.53,2.83,1.1,4.21,1.72.46.2.92.41,1.37.63.91.42,1.81.87,2.69,1.34q.675.345,1.32.72,2.175,1.2,4.25,2.58c.34.21.67.44,1,.67q1.92,1.32,3.75,2.78c.2.16.4.33.6.5.01.01.03.02.03.03.22.18.42.36.64.54h.03c.36.3.71.6,1.06.92A63.08354,63.08354,0,0,1,196.96446,102.66831Z"/><g class="cls-11"><path class="cls-12" d="M177.47776,215.48621c-11.1289,4.1339-24.13,5.859-38.0043,5.859-41.244,0-74.683-14.2003-74.683-63.6384,0-16.3462,2.6717-29.8312,7.4262-40.7707-.284,2.4719-.7679,4.9754-1.0203,6.6794-1.7882,12.0756-1.8303,24.3614,1.2412,36.2476,4.4178,17.0824,15.5046,32.8395,31.3459,40.6129,17.966,8.8042,39.0561,6.5742,59.0522,7.2895,5.4382.1893,11.8862,1.2833,14.1477,6.2376A7.0201,7.0201,0,0,1,177.47776,215.48621Z"/></g><ellipse class="cls-7" cx="176.33406" cy="174.40831" rx="13" ry="5"/><ellipse class="cls-7" cx="102.33406" cy="174.40831" rx="13" ry="5"/><path class="cls-13" d="M140.20906,173.78331a6.94144,6.94144,0,0,1-6.8496,6.6045,6.44271,6.44271,0,0,1-6.4427-6.4427"/><path class="cls-13" d="M152.78626,173.94511a6.44271,6.44271,0,0,1-6.4427,6.4427,6.32789,6.32789,0,0,1-6.1345-6.6045"/><path class="cls-14" d="M148.15146,179.99341a22.19471,22.19471,0,0,1-1.684,6.3454c-.1054.2524-.2108.4944-.3251.7468-1.5202,3.4292-3.761,6.6584-6.8278,6.732-3.0932.0842-5.2901-3.2503-6.7664-6.8687-.0176-.0526-.0439-.1052-.0615-.1578a36.33889,36.33889,0,0,1-2.1513-7.2579c9.0862,7.7208,9.7487-7.6249,9.7487-7.6249C141.69216,183.826,148.15146,179.99341,148.15146,179.99341Z"/><path class="cls-15" d="M146.14236,187.08561c-1.5202,3.4292-3.761,6.6584-6.8278,6.732-3.0932.0842-5.2901-3.2503-6.7664-6.8687-.0176-.0526-.0439-.1052-.0615-.1578a9.81627,9.81627,0,0,1,6.6873-2.4404A9.60021,9.60021,0,0,1,146.14236,187.08561Z"/><line class="cls-13" x1="140.33406" y1="169.40831" x2="140.33406" y2="175.40831"/><ellipse class="cls-2" cx="140.81946" cy="165.74911" rx="9" ry="5"/><ellipse class="cls-3" cx="140.33406" cy="162.40831" rx="3" ry="1"/><circle class="cls-2" cx="105.83406" cy="149.90831" r="15.5"/><circle class="cls-3" cx="94.83406" cy="150.90831" r="2.5"/><circle class="cls-3" cx="105.33406" cy="143.40831" r="6"/><circle class="cls-2" cx="171.83406" cy="149.90831" r="15.5"/><circle class="cls-3" cx="170.33406" cy="143.40831" r="6"/><circle class="cls-3" cx="180.83406" cy="151.90831" r="2.5"/><path class="cls-16" d="M157.12117,234.39268a39.20522,39.20522,0,0,1-11.92382-2.28223c-1.231-.40234-2.48633-.85351-3.72706-1.33984l-.66406-.25976-.33154-.63086a29.46915,29.46915,0,0,1-2.76563-7.77051,6.884,6.884,0,0,1,.063-2.75879,3.80257,3.80257,0,0,1,1.52-2.251c.50049-.46582,2.38184-2.19238,4.96387-4.28515,7.57519-6.126,13.5166-9.23145,17.66016-9.23145a6.14682,6.14682,0,0,1,6.2246,4.83789,52.88825,52.88825,0,0,1,1.67872,7.66309,30.03789,30.03789,0,0,1,.30957,5.31543C169.86238,229.77354,165.24227,234.39268,157.12117,234.39268Z"/><path class="cls-2" d="M161.91628,205.49327a4.25166,4.25166,0,0,1,4.39056,3.46084,51.19835,51.19835,0,0,1,1.61981,7.38419,28.62784,28.62784,0,0,1,.29462,4.98581c-.1933,6.0535-2.81326,11.15814-11.10007,11.15814a37.04937,37.04937,0,0,1-11.32595-2.18555c-1.15708-.37878-2.3667-.81-3.629-1.30438a27.79425,27.79425,0,0,1-2.5665-7.1528,5.10893,5.10893,0,0,1,.021-2.009,1.89087,1.89087,0,0,1,.852-1.22022s2.04068-1.92489,4.9859-4.31268c4.72476-3.82065,11.78537-8.8038,16.45761-8.80435m.00076-3.81986h-.00043c-4.59332.00052-10.93866,3.2486-18.85983,9.654-2.48108,2.01151-4.33441,3.69742-4.96933,4.28458a5.69526,5.69526,0,0,0-2.16812,3.27466,8.68063,8.68063,0,0,0-.09439,3.53781,30.75523,30.75523,0,0,0,2.95877,8.34265l.66226,1.26221,1.32724.51983c1.2684.49677,2.5582.96036,3.83359,1.37787a40.48242,40.48242,0,0,0,12.5144,2.37512c9.17911,0,14.61652-5.41482,14.918-14.85607a31.96415,31.96415,0,0,0-.32873-5.63153,54.81353,54.81353,0,0,0-1.73593-7.92786,8.02265,8.02265,0,0,0-8.05747-6.21323Z"/><path class="cls-17" d="M168.22126,221.34421c-.263,8.2362-5.0175,14.7157-22.426,8.9725a4.2682,4.2682,0,0,1-3.3344,1.5988h-9.0356a4.26364,4.26364,0,0,1-3.5343-1.8618c-17.9135,6.1429-22.8573-.2629-23.1938-8.5412a28.70121,28.70121,0,0,1,.1682-4.2285c4.4074-.3156,12.5594,3.6289,16.4934,4.1653,1.9144.263,3.8394.4419,5.7643.547,2.0511.1053,4.1128.1368,6.164.0842,1.4411-.0421,2.8821-.1157,4.3127-.2209,2.3983-.1788,4.7755-.4523,7.1527-.8099a129.55818,129.55818,0,0,0,18.3132-4.2075,7.94514,7.94514,0,0,1,2.861-.4839A28.62739,28.62739,0,0,1,168.22126,221.34421Z"/><path class="cls-16" d="M117.79451,234.38682c-8.05078,0-12.66943-4.55176-13.00537-12.81738a30.67047,30.67047,0,0,1,.17774-4.51465,51.29167,51.29167,0,0,1,1.812-8.63965,6.143,6.143,0,0,1,6.22119-4.83008c4.25537,0,10.38818,3.25977,18.228,9.68848,2.28808,1.87793,3.93408,3.39258,4.39941,3.82715a3.94719,3.94719,0,0,1,1.645,3.041,8.47887,8.47887,0,0,1-.102,2.23731,29.41452,29.41452,0,0,1-2.731,7.50781l-.33545.63281-.66845.25586c-1.00977.3877-1.98731.74121-2.92188,1.06348A40.54522,40.54522,0,0,1,117.79451,234.38682Z"/><path class="cls-2" d="M113.00035,205.495c4.85852-.00049,12.3014,5.38821,17.01682,9.255,2.6402,2.1669,4.42837,3.86038,4.42837,3.86038a2.092,2.092,0,0,1,.9256,1.71451,6.58913,6.58913,0,0,1-.08407,1.73569,27.73391,27.73391,0,0,1-2.535,6.93182c-.9888.37869-1.946.7258-2.86111,1.04138a38.33962,38.33962,0,0,1-12.09628,2.44312c-8.208,0-10.85437-5.003-11.09751-10.98432a28.70673,28.70673,0,0,1,.16818-4.2286,49.98541,49.98541,0,0,1,1.74613-8.30979,4.25078,4.25078,0,0,1,4.38888-3.45916m.00071-3.81986h-.00037a8.02184,8.02184,0,0,0-8.05716,6.21243,53.14242,53.14242,0,0,0-1.874,8.94846,32.62185,32.62185,0,0,0-.18946,4.80255c.37879,9.31879,5.81482,14.65814,14.91459,14.65814A41.78075,41.78075,0,0,0,131.13,233.647c.99292-.3424,1.99619-.70755,2.98819-1.08749l1.338-.51239.67092-1.2659a30.8,30.8,0,0,0,2.93158-8.11569,10.28489,10.28489,0,0,0,.11325-2.72165,5.90542,5.90542,0,0,0-2.33691-4.32877c-.58636-.54391-2.20676-2.02237-4.3945-3.8179-8.1911-6.71689-14.731-10.12213-19.43948-10.12213Z"/><path class="cls-17" d="M135.28706,222.06051a27.7331,27.7331,0,0,1-2.535,6.9318c-.9888.3787-1.946.7258-2.8611,1.0414-17.9135,6.1429-22.8573-.263-23.1938-8.5412a28.70256,28.70256,0,0,1,.1682-4.2286c4.4074-.3155,12.5594,3.629,16.4934,4.1654,1.9144.263,3.8394.4418,5.7643.547C131.17416,222.08151,133.23586,222.113,135.28706,222.06051Z"/><path class="cls-16" d="M133.72664,234.31846a6.28565,6.28565,0,0,1-5.18017-2.70312,6.13,6.13,0,0,1-1.12256-3.5459v-10.333a6.06956,6.06956,0,0,1,1.32617-3.80566,6.21814,6.21814,0,0,1,4.97656-2.43262h9.22559a6.26814,6.26814,0,0,1,4.39355,1.79395,6.16154,6.16154,0,0,1,1.89844,4.44433v10.333a6.13059,6.13059,0,0,1-1.41406,3.94141,6.27355,6.27355,0,0,1-4.87793,2.30761Z"/><path class="cls-2" d="M142.95226,213.40831a4.36473,4.36473,0,0,1,3.06079,1.2518,4.2257,4.2257,0,0,1,1.321,3.0765v10.3328a4.25876,4.25876,0,0,1-.97729,2.72641,4.3782,4.3782,0,0,1-3.40451,1.61249h-9.22562a4.36837,4.36837,0,0,1-3.60849-1.87769,4.25559,4.25559,0,0,1-.78409-2.46121v-10.3328a4.18182,4.18182,0,0,1,.91291-2.6203,4.35634,4.35634,0,0,1,3.47967-1.708h9.22562m0-3.81986h-9.22562a8.13323,8.13323,0,0,0-6.49441,3.182,7.96138,7.96138,0,0,0-1.718,4.96621v10.3328a8.04885,8.04885,0,0,0,1.48282,4.66345,8.18028,8.18028,0,0,0,6.72961,3.4953h9.22562a8.18508,8.18508,0,0,0,8.20166-8.15875v-10.3328a8.21171,8.21171,0,0,0-8.20166-8.14816Z"/><path class="cls-17" d="M147.32876,221.08871l-.0454,7.0826a4.20078,4.20078,0,0,1-.9773,2.7033,4.39269,4.39269,0,0,1-3.4045,1.5988H133.676a4.37908,4.37908,0,0,1-3.6085-1.8618,4.19456,4.19456,0,0,1-.7841-2.4403l.091-6.1697c2.0943.1053,4.0427.4076,6.137.355,1.4714-.0421,3.0026-.0469,4.4632-.1521C142.42326,222.02571,144.90156,221.44631,147.32876,221.08871Z"/><path class="cls-3" d="M164.18836,208.99271c.1001,1.0307-.9933.7245-2.6767.8881s-3.3195.735-3.4196-.2957,1.1833-1.9988,2.8668-2.1624S164.08816,207.962,164.18836,208.99271Z"/><path class="cls-3" d="M117.52166,209.15941c.1001,1.0307-.9932.7244-2.6767.888s-3.3194.7351-3.4196-.2956,1.1834-1.9988,2.8668-2.1624S117.42146,208.12871,117.52166,209.15941Z"/><path class="cls-3" d="M142.33406,216.40831h-10a1,1,0,0,1-1-1h0a1,1,0,0,1,1-1h10a1,1,0,0,1,1,1h0A1,1,0,0,1,142.33406,216.40831Z"/><path class="cls-18" d="M125.6841,223.70054l.36951-5.31607a82.41923,82.41923,0,0,1-13.75568.60617A85.12082,85.12082,0,0,0,125.6841,223.70054Z"/><path class="cls-18" d="M149.11318,218.38447l.36954,5.31607a85.12331,85.12331,0,0,0,13.38613-4.71A82.42246,82.42246,0,0,1,149.11318,218.38447Z"/><path class="cls-2" d="M48.90376,340.276c-2.0896-11.2527-.0111-23.2447,8.3805-32.7859s23.7559-16.1222,39.136-14.8873c9.1241.7326,17.5055,4.0117,26.4873,5.3991,15.7091,2.4267,31.8734-1.0606,47.9135-1.5359a241.21287,241.21287,0,0,1,27.5674,1.2316c11.85379,1.0085,24.65009,2.4405,33.02219,8.6822,11.96441,8.92,9.7916,23.534,5.06241,35.5607-1.12471,2.8605-2.47371,5.849-5.509,7.8239-2.98511,1.9422-7.10171,2.5795-11.02141,3.123-14.38839,1.9949-29.07159,3.6888-43.62679,2.5154-20.694-1.6684-28.9721,21.1344-49.6005,23.1946-11.5653,1.1551-30.9554-1.3822-42.4851-.0491s-28.5872-24.8449-33.0234-32.7694"/><polygon class="cls-19" points="136.676 76.57 127.137 71.475 131.466 79.436 136.676 76.57"/><polygon class="cls-19" points="134.042 77.096 140.892 68.729 139.953 77.742 134.042 77.096"/><polygon class="cls-20" points="173.365 56.654 180.222 91.451 115.505 84.294 134.907 50.292 134.919 50.304 173.365 56.654"/><path class="cls-16" d="M166.53706,21.96461l6.8283,34.6898-38.4463-6.3507-.0123-.0114,17.24-30.1966a11.04065,11.04065,0,1,1,14.3903,1.8689Z"/><path class="cls-21" d="M134.90676,50.29231l-19.4013,34.0012,64.7165,7.157-6.8566-34.7961-6.8283-34.6898a11.02943,11.02943,0,1,0-14.3903-1.8689Z"/><polyline class="cls-22" points="134.919 50.304 173.365 56.654 174.015 56.759"/><path class="cls-23" d="M141.80426,74.22231a5.51372,5.51372,0,1,1-5.7358-5.2821A5.51367,5.51367,0,0,1,141.80426,74.22231Z"/><path class="cls-23" d="M154.55826,59.93481a5.51367,5.51367,0,1,1-7.4425,2.3262A5.51381,5.51381,0,0,1,154.55826,59.93481Z"/><path class="cls-24" d="M169.69406,78.63571a5.49874,5.49874,0,1,1-4.1326-6.5875A5.49888,5.49888,0,0,1,169.69406,78.63571Z"/><g class="cls-25"><path class="cls-26" d="M155.714,4.04121s-2.8872,9.677,3.2115,12.7115-18.3236,70.0508-18.3236,70.0508l-25.1024-2.5115,36.6439-64.193S146.058,8.919,155.714,4.04121Z"/></g><path class="cls-19" d="M167.64716,25.65711l-.7426-1.206-5.8356,6.8447-2.9831-6.5961-8.3427,5.0362-1.4339-4.0393c-.5675,1.7404-1.2266,3.4708-1.9635,5.1729l1.4911,4.2011,8.6478-5.2214,3.648,8.0657,6.303-7.3949,1.5334,2.4891C167.81116,30.58541,167.72636,28.12571,167.64716,25.65711Z"/><path class="cls-19" d="M169.39506,43.46641l-1.1805,1.4717-4.9814-8.0895-5.8356,6.8447-2.9831-6.5961-8.3427,5.0362-2.2073-6.2181c-.7492,1.3541-1.5475,2.6747-2.3995,3.9456l2.7005,7.6073,8.6478-5.2214,3.648,8.0656,6.303-7.3948,5.0662,8.2236,2.8078-3.5002A36.37374,36.37374,0,0,1,169.39506,43.46641Z"/><g class="cls-27"><path class="cls-3" d="M167.27646,8.48191a4.48389,4.48389,0,0,1-1.5368,6.145c-2.0893,1.1605-2.513-1.1439-3.7536-3.3772s-2.828-3.5499-.7387-4.7104A4.484,4.484,0,0,1,167.27646,8.48191Z"/></g><path class="cls-20" d="M231.62185,259.73611s-4.649-27.0589-13.97279-19.4565-5.49441,18.6981-5.49441,18.6981l15.2982,5.3642Z"/><path class="cls-28" d="M231.62185,259.73611s-4.649-27.0589-13.97279-19.4565-5.49441,18.6981-5.49441,18.6981l15.2982,5.3642Z"/><path class="cls-19" d="M230.11265,260.44491s-8.6281-16.9011-10.4748-10.0472S220.43215,256.01131,230.11265,260.44491Z"/><ellipse class="cls-20" cx="240.24985" cy="270.21346" rx="12.23183" ry="16.21086" transform="translate(-95.47354 404.47107) rotate(-70.15608)"/><ellipse class="cls-28" cx="240.24985" cy="270.21346" rx="12.23183" ry="16.21086" transform="translate(-95.47354 404.47107) rotate(-70.15608)"/><path class="cls-28" d="M255.35415,268.30061s20.8572-17.8542,23.1775-6.0497-7.7123,17.8978-7.7123,17.8978l-15.19829-5.6415Z"/><path class="cls-29" d="M216.43825,243.088s-3.4139,12.2739,10.9061,14.8014l-.0891,3.6236s13.5553-3.232,27.76,8.901c0,0,17.2513,9.8814,22.4149-1.0502,0,0-3.3194,10.8863-7.2125,10.6999l-57.5594-20.8736s-2.9981-4.6361-1.3269-8.7042a57.08067,57.08067,0,0,1,3.31271-6.9284C214.89606,243.14071,216.43825,243.088,216.43825,243.088Z"/><path class="cls-30" d="M255.35415,268.30061s20.8572-17.8542,23.1775-6.0497-7.7123,17.8978-7.7123,17.8978l-15.19829-5.6415Z"/><path class="cls-19" d="M256.06285,269.80981s17.4326-7.4962,14.4769-1.0425S266.34375,272.57991,256.06285,269.80981Z"/><rect class="cls-31" x="187.50202" y="286.18156" width="79.38388" height="47.94469" transform="translate(118.77279 -58.70567) rotate(19.84356)"/><rect class="cls-28" x="216.02784" y="291.19042" width="19.46919" height="41.80857" transform="translate(119.34747 -58.10475) rotate(19.84369)"/><polygon class="cls-32" points="195.337 281.5 262.129 330.279 270.532 306.993 195.337 281.5"/><rect class="cls-30" x="215.7803" y="292.60558" width="19.46916" height="40.35011" transform="translate(119.56561 -57.97999) rotate(19.84369)"/><rect class="cls-33" x="189.78772" y="269.11481" width="95.35632" height="25.1513" transform="matrix(0.94062, 0.33945, -0.33945, 0.94062, 109.72066, -63.88257)"/><rect class="cls-30" x="189.78772" y="269.11481" width="95.35632" height="25.1513" transform="matrix(0.94062, 0.33945, -0.33945, 0.94062, 109.72066, -63.88257)"/><polygon class="cls-32" points="190.7 265.023 282.041 297.986 278.044 309.704 188.35 277.335 190.7 265.023"/><rect class="cls-26" x="224.44749" y="268.38706" width="24.86353" height="25.34778" transform="translate(109.47221 -63.72084) rotate(19.84356)"/><rect class="cls-28" x="224.29739" y="269.24503" width="24.86352" height="24.46356" transform="translate(109.60445 -63.64519) rotate(19.84356)"/><path class="cls-28" d="M76.61046,291.10161l-3.1897,33.6317a11.47736,11.47736,0,0,1-8.2933,9.9579l-9.1614,2.5994-.822.2332-9.1614,2.5994a11.47723,11.47723,0,0,1-12.2872-4.1186l-20.3772-26.945Z"/><path class="cls-34" d="M31.538,321.25181l7.4882,12.194,5.5644-1.6092-4.1454-18.7459,8.9086,17.7743,9.015-2.375-2.8794-18.3777,11.1,15.5946.2812-18.0741,3.581,17.314a7.236,7.236,0,0,1-5.2018,8.452l-20.3186,5.4802a7.236,7.236,0,0,1-8.6947-4.5412Z"/><path class="cls-35" d="M71.70126,298.263c15.4402-15.5125-.0134-26.814-.0134-26.814,3.5668-14.5515-11.6612-16.337-11.6612-16.337,1.3755-14.1115-14.8174-16.12-14.8174-16.12-9.8414-15.4857-30.0959-2.6808-30.0959-2.6808,24.0849,9.9154-13.7874,14.8308-6.2045,30.1674-15.4236,8.9545-3.1584,23.9507-3.1584,23.9507-1.0334,20.9491,12.9569,22.4091,19.8642,18.4025,0,0,8.3151,8.8086,20.6371-.7389C46.25176,308.09291,57.849,312.18011,71.70126,298.263Z"/><path class="cls-18" d="M8.37658,264.96428l-.69324,2.92184a25.6978,25.6978,0,0,0,20.70282-5.63123A24.20047,24.20047,0,0,1,8.37658,264.96428Z"/><path class="cls-18" d="M45.47359,238.04533l-2.23047.31213c.57709,2.68128-.34805,5.67475-1.88717,8.24a25.28246,25.28246,0,0,1-6.11149,6.79767,25.83549,25.83549,0,0,0,7.04123-6.16229,16.83372,16.83372,0,0,0,2.41669-4.19312A11.23907,11.23907,0,0,0,45.47359,238.04533Z"/><path class="cls-18" d="M61.762,255.32423l-2.36023-1.85663a42.11779,42.11779,0,0,1-8.85849,10.18564A43.6266,43.6266,0,0,0,61.762,255.32423Z"/><path class="cls-18" d="M5.892,288.91722l-1.0763,1.97839a24.22548,24.22548,0,0,0,8.50244,1.65888A23.09173,23.09173,0,0,1,5.892,288.91722Z"/><path class="cls-18" d="M72.7022,271.22667l-1.8497-1.28492a13.71187,13.71187,0,0,1-6.25443,6.02909A14.84256,14.84256,0,0,0,72.7022,271.22667Z"/><g class="cls-36"><path class="cls-37" d="M52.15976,242.63551c2.685,2.9447,3.2863,7.3702,2.3349,11.2401s-3.2583,7.2688-5.8212,10.3204a34.56076,34.56076,0,0,0,6.5615-4.2726,11.84838,11.84838,0,0,0,3.9986-6.5822,9.19705,9.19705,0,0,0-7.8656-10.3217"/></g><g class="cls-36"><path class="cls-37" d="M68.84076,260.49931a16.66987,16.66987,0,0,1-5.4516,15.6778,11.05937,11.05937,0,0,0,8.344-6.4248c1.3413-3.4113.2124-7.7925-2.9297-9.6804"/></g><g class="cls-36"><path class="cls-37" d="M40.10106,233.91281c1.614,3.2732,1.3162,7.2286.0275,10.643a40.19167,40.19167,0,0,1-5.6381,9.3432q1.83435-1.7838,3.6686-3.5677c2.3324-2.2682,4.7602-4.6938,5.6135-7.8333s-.5792-7.1457-3.7436-7.9012"/></g><g class="cls-36"><path class="cls-37" d="M14.95176,235.85751c1.4221-.9177,3.2383-.8834,4.9267-.7662a20.08245,20.08245,0,0,1,7.54,1.6396,8.0869,8.0869,0,0,1,4.656,5.8272c.4931,3.6294-2.2727,6.8614-5.1323,9.1501s-6.1745,4.3984-7.5527,7.792a1.96717,1.96717,0,0,0-.1126,1.5954,2.09432,2.09432,0,0,0,1.5636.8828,17.80372,17.80372,0,0,0,6.7369.0351,26.0924,26.0924,0,0,1-11.1718,4.5507c-2.5843.3971-5.6246.2255-7.2497-1.8227-1.7569-2.2143-.929-5.6117.8922-7.7734s4.4038-3.507,6.6421-5.2332a23.30468,23.30468,0,0,0,5.3974-5.8984,4.00191,4.00191,0,0,0,.8487-2.8129,3.94062,3.94062,0,0,0-1.1788-1.8746,20.96386,20.96386,0,0,0-5.181-3.8968c-1.1271-.6001-2.8241-.9417-3.4288.1829"/></g><g class="cls-36"><path class="cls-37" d="M24.74716,264.86181a23.95258,23.95258,0,0,0-7.5352,5.7216,25.07776,25.07776,0,0,0-3.385,4.2504,13.29833,13.29833,0,0,0-1.3339,11.4383c1.4288,3.7094,5.1875,6.5575,9.159,6.3923a18.20921,18.20921,0,0,1-13.4538-2.1639,10.91888,10.91888,0,0,1-3.464-3.1351,14.94912,14.94912,0,0,1-2.0162-3.3217c-1.8837-6.2288.0187-13.6958,5.2928-17.5075a1.66316,1.66316,0,0,1,.6436-.3262,1.95786,1.95786,0,0,1,1.0579.2253c4.774,1.9096,10.1453.1448,14.9751-1.6188"/></g><g class="cls-36"><path class="cls-37" d="M13.95946,292.89931c-2.6629,1.664-3.1992,5.7381-1.3775,8.2957a7.66845,7.66845,0,0,0,8.441,2.5077,10.68917,10.68917,0,0,0,6.4117-6.469c-.2837,4.4182,5.6189,7.2444,9.6269,5.3639s5.9157-6.6169,6.1642-11.0372c1.0143,5.3139,6.8722,8.2665,12.2378,8.9579,6.7282.8669,14.2133-.8932,18.4651-6.1794-3.4379,4.2318-7.2153,8.3217-11.9424,11.0387s-10.5675,3.9199-15.7149,2.1221a14.56835,14.56835,0,0,1-17.3023,2.5581,6.6,6.6,0,0,0-2.093-.9604,6.60149,6.60149,0,0,0-2.8099.4492,14.5701,14.5701,0,0,1-14.3919-4.1881,14.57045,14.57045,0,0,1-2.6833-14.7468q3.22635.8625,6.4528,1.7251"/></g><path class="cls-38" d="M46.00886,278.33191a7.242,7.242,0,1,1-13.6781,4.7639"/><path class="cls-19" d="M28.302,283.08371a3.976,3.976,0,1,1-4.2959-3.6279A3.97589,3.97589,0,0,1,28.302,283.08371Z"/><path class="cls-3" d="M24.22076,282.00271a1.42,1.42,0,1,1-1.5342-1.2956A1.42,1.42,0,0,1,24.22076,282.00271Z"/><path class="cls-19" d="M55.72206,273.64691a3.976,3.976,0,1,1-4.2959-3.628A3.97595,3.97595,0,0,1,55.72206,273.64691Z"/><path class="cls-3" d="M53.75136,272.24551a1.42,1.42,0,1,1-1.5343-1.2957A1.4199,1.4199,0,0,1,53.75136,272.24551Z"/><circle class="cls-7" cx="60.60781" cy="277.51006" r="2.69801" transform="translate(-190.61123 144.94259) rotate(-49.85966)"/><path class="cls-7" d="M22.88566,291.52051a2.698,2.698,0,1,1-2.9151-2.4618A2.698,2.698,0,0,1,22.88566,291.52051Z"/></g></g></g></svg>